<svg width="336" height="79" viewBox="0 0 336 79" fill="none" xmlns="http://www.w3.org/2000/svg">
<path d="M70.9 77H43.9V74.9L51.7 73.7L42.9 50.7H20.4L12 72L20.9 74.6V77H-7.07805e-08V74.6L7.6 72L32.2 10.2H37.1L63.2 73.7L70.9 74.6V77ZM41.4 47L31.6 22.7L21.8 47H41.4ZM64.0906 28.2H84.6906V30.5L78.0906 31.3L92.2906 66.3L101.091 43L96.1906 31.3L92.0906 30.8V28.2H112.291V30.5L105.591 31.3L119.891 66.3L132.291 32.7L125.791 30.8V28.2H142.591V30.8L136.491 32.7L119.491 77H115.491L103.291 48.1L91.8906 77H87.8906L68.5906 31.3L64.0906 30.6V28.2ZM155.816 66.2C155.816 70.5333 157.582 73.1 161.116 73.9C161.916 74.1 162.682 74.2 163.416 74.2C165.949 74.2 168.582 73.1333 171.316 71C174.049 68.8 175.482 65.8667 175.616 62.2V53.6C162.416 53.7333 155.816 57.9333 155.816 66.2ZM159.816 78.2C156.016 78.2 152.749 77.1667 150.016 75.1C147.349 72.9667 146.016 70 146.016 66.2C146.082 61.0667 148.649 57.2333 153.716 54.7C158.849 52.1667 166.149 50.9 175.616 50.9V42.3C175.616 33.8333 172.549 29.6 166.416 29.6C163.282 29.6 160.749 30.9 158.816 33.5C157.482 35.3 156.816 37.5333 156.816 40.2C156.816 41.3333 156.949 42.5333 157.216 43.8C156.282 44.4667 155.316 44.8 154.316 44.8C153.382 44.8 152.449 44.6 151.516 44.2C149.382 43.4 148.316 41.8667 148.316 39.6C148.316 36.5333 149.416 34 151.616 32C155.216 28.7333 160.182 27.1 166.516 27.1C172.849 27.1 177.449 28.4667 180.316 31.2C183.182 33.8667 184.616 38.1 184.616 43.9V74.2L193.016 74.6L193.116 76.9L176.416 78.1L175.516 69.2C172.449 75.2 167.216 78.2 159.816 78.2ZM228.385 27C230.118 27 231.485 27.4333 232.485 28.3C233.485 29.1 233.985 30.2333 233.985 31.7C233.985 34.2333 233.018 35.9 231.085 36.7C230.018 35.8333 228.085 35.4 225.285 35.4C222.485 35.4 219.785 36.3333 217.185 38.2C214.652 40 213.385 42.0667 213.385 44.4V74.1L222.385 74.6V77H196.985V74.6L203.585 74.2V31.5L195.685 31.1V28.8L213.385 27.7L212.785 40H213.185C214.318 36.4 216.385 33.3333 219.385 30.8C222.452 28.2667 225.452 27 228.385 27ZM276.605 61.7V34.2C273.405 31.7333 269.439 30.5 264.705 30.5C258.772 30.5 254.705 32.9333 252.505 37.8C250.705 41.9333 249.805 47.5667 249.805 54.7C249.805 68.5 253.539 75.4 261.005 75.4C265.205 75.4 268.839 73.8 271.905 70.6C275.039 67.4 276.605 64.4333 276.605 61.7ZM259.105 78.5C253.372 78.5 248.539 76.4667 244.605 72.4C240.672 68.2667 238.705 62.1333 238.705 54C238.705 45.8 241.072 39.3333 245.805 34.6C250.605 29.8667 256.972 27.5 264.905 27.5C269.039 27.5 272.939 28.4667 276.605 30.4V5.19999L267.805 4.79999L267.705 2.49999L286.205 0.399997V74.7L294.705 75.1L294.805 77.4L277.105 78.6L277.305 69H276.705C275.105 72 272.672 74.3333 269.405 76C266.139 77.6667 262.705 78.5 259.105 78.5ZM318.034 75.6C320.7 75.6 323 74.8667 324.934 73.4C326.934 71.9333 327.934 69.4667 327.934 66C327.934 63.6667 326.867 61.7333 324.734 60.2C322.667 58.6667 320.067 57.3 316.934 56.1C313.8 54.8333 311.667 53.9667 310.534 53.5C309.467 52.9667 308.034 52.1333 306.234 51C302.967 48.8 301.334 45.6333 301.334 41.5C301.334 37.3667 302.967 33.9333 306.234 31.2C309.5 28.4667 314.267 27.1 320.534 27.1C324.534 27.1 327.934 28 330.734 29.8C333.6 31.5333 335.034 33.6333 335.034 36.1C335.034 38.5667 334.1 40.2667 332.234 41.2C331.234 41.6667 330.234 41.9 329.234 41.9C328.3 41.9 327.367 41.7 326.434 41.3C326.7 40.1 326.834 38.8 326.834 37.4C326.834 36 326.5 34.6 325.834 33.2C324.7 30.8 322.534 29.6 319.334 29.6C316.134 29.6 313.7 30.4667 312.034 32.2C310.367 33.9333 309.534 36.2 309.534 39C309.534 41.8667 310.734 44 313.134 45.4C314.934 46.5333 317.167 47.5667 319.834 48.5C322.5 49.4333 324.3 50.1 325.234 50.5C326.234 50.8333 327.534 51.4333 329.134 52.3C330.734 53.1667 331.934 54.0667 332.734 55C334.8 57.2667 335.834 60.3333 335.834 64.2C335.834 68.0667 334.1 71.3667 330.634 74.1C327.167 76.7667 322.934 78.1 317.934 78.1C312.934 78.1 308.534 77.3333 304.734 75.8C301 74.2667 299.134 72.0333 299.134 69.1C299.134 66.3667 301.167 64.5667 305.234 63.7C306.434 71.6333 310.7 75.6 318.034 75.6Z" fill="#2E2E2E"/>
</svg>
