<svg width="871" height="79" viewBox="0 0 871 79" fill="none" xmlns="http://www.w3.org/2000/svg">
<path d="M36.2 27.5C46.8667 27.5 52.2 32.6333 52.2 42.9C52.2 50.3 51.9667 60.7 51.5 74.1L58.6 74.6V77H36.3V74.6L41.7 74.2C42.1667 56.6 42.4 45.9333 42.4 42.2C42.4 38.4 41.7 35.5667 40.3 33.7C38.9 31.8333 36.4667 30.9 33 30.9C29.6 30.9 26.4 32.5333 23.4 35.8C20.4 39.0667 18.9 42.0667 18.9 44.8V74.1L25.5 74.6V77H2.5V74.6L9.1 74.1V5.19999L0.3 4.79999L0.2 2.49999L18.9 0.399997C18.5 23.2667 18.2667 35.4667 18.2 37H19C20.8 33.9333 23.2 31.6 26.2 30C29.2667 28.3333 32.6 27.5 36.2 27.5ZM88.1445 78.1C81.2779 78.1 75.7445 75.7667 71.5445 71.1C67.3445 66.4333 65.2445 60.2667 65.2445 52.6C65.2445 44.9333 67.4445 38.7667 71.8445 34.1C76.3112 29.4333 81.9112 27.1 88.6445 27.1C95.3779 27.1 100.411 28.6333 103.745 31.7C107.078 34.7 108.745 38.9 108.745 44.3C108.745 45.9 108.611 47.5 108.345 49.1H76.0445V52.6C76.0445 60.0667 77.1112 65.7333 79.2445 69.6C81.3779 73.4 84.8779 75.3 89.7445 75.3C96.6112 75.3 101.911 72.3 105.645 66.3C107.111 66.7667 107.845 67.4667 107.845 68.4C107.845 70.0667 106.311 72 103.245 74.2C101.778 75.2667 99.7112 76.2 97.0445 77C94.3779 77.7333 91.4112 78.1 88.1445 78.1ZM99.2445 42.2C99.2445 39.1333 98.6112 36.5 97.3445 34.3C95.6112 31.3667 92.8112 29.9 88.9445 29.9C81.7445 29.9 77.5445 35.1 76.3445 45.5H99.0445C99.1779 44.3667 99.2445 43.2667 99.2445 42.2ZM138.981 77H115.981V74.6L122.581 74.1V5.19999L113.681 4.79999V2.49999L132.381 0.399997V74.1L138.981 74.6V77ZM167.399 77H144.399V74.6L150.999 74.1V5.19999L142.099 4.79999V2.49999L160.799 0.399997V74.1L167.399 74.6V77ZM224.517 52.6C224.517 60 222.284 66.1 217.817 70.9C213.351 75.7 207.251 78.1 199.517 78.1C191.851 78.1 185.784 75.7 181.317 70.9C176.851 66.1 174.617 60 174.617 52.6C174.617 45.2 176.851 39.1 181.317 34.3C185.784 29.5 191.851 27.1 199.517 27.1C207.251 27.1 213.351 29.5 217.817 34.3C222.284 39.1 224.517 45.2 224.517 52.6ZM185.517 52.6C185.517 68 190.184 75.7 199.517 75.7C208.917 75.7 213.617 68 213.617 52.6C213.617 45.1333 212.551 39.4333 210.417 35.5C208.284 31.5667 204.684 29.6 199.617 29.6C194.551 29.6 190.917 31.5667 188.717 35.5C186.584 39.4333 185.517 45.1333 185.517 52.6ZM264.204 62.9C261.471 62.9 259.137 62.1333 257.204 60.6C255.337 59 254.437 56.8333 254.504 54.1C254.971 46.6333 262.404 42.9 276.804 42.9L277.104 36.5C277.104 36.2333 277.104 35.9667 277.104 35.7C277.104 30.1 274.937 27.3 270.604 27.3C268.271 27.3 266.471 28.1 265.204 29.7C263.937 31.3 263.304 33.2 263.304 35.4C263.304 36.0667 263.371 36.8 263.504 37.6C262.771 38 261.904 38.2 260.904 38.2C259.904 38.2 259.004 37.9 258.204 37.3C257.404 36.6333 257.004 35.7333 257.004 34.6C257.204 31.3333 258.737 28.9667 261.604 27.5C264.471 26.0333 267.404 25.3 270.404 25.3C275.271 25.3 278.637 26.2667 280.504 28.2C282.371 30.0667 283.304 32.9333 283.304 36.8C283.304 37.0667 283.304 37.3333 283.304 37.6L282.604 54.3C282.471 57.3 283.804 58.8 286.604 58.8C289.537 58.8 292.071 56.9 294.204 53.1C296.404 49.2333 297.504 43.9667 297.504 37.3C297.504 29.1 295.337 22.8667 291.004 18.6C286.671 14.2667 280.637 12.1 272.904 12.1C267.771 12.1 263.204 13.0333 259.204 14.9C255.204 16.7 252.037 19.1333 249.704 22.2C245.037 28.3333 242.704 35.8333 242.704 44.7C242.704 53.5667 245.004 60.7667 249.604 66.3C254.204 71.8333 261.037 74.6 270.104 74.6C274.971 74.6 279.604 73.9333 284.004 72.6C288.404 71.2667 291.604 69.9333 293.604 68.6L296.504 66.6L297.904 69C297.304 69.6 295.871 70.5667 293.604 71.9C291.404 73.1667 289.304 74.2 287.304 75C281.971 77.1333 276.237 78.2 270.104 78.2C259.637 78.2 251.104 75.0333 244.504 68.7C237.904 62.3667 234.604 54.3333 234.604 44.6C234.604 35.1333 237.804 26.9333 244.204 20C247.337 16.6 251.437 13.9 256.504 11.9C261.637 9.9 267.437 8.89999 273.904 8.89999C283.037 8.89999 290.604 11.3333 296.604 16.2C302.604 21 305.604 27.8 305.604 36.6C305.604 40.6667 304.904 44.4 303.504 47.8C302.171 51.1333 300.404 53.8 298.204 55.8C293.737 59.9333 289.137 62 284.404 62C280.671 62 278.137 60.8 276.804 58.4C276.537 57.8 276.337 57.1 276.204 56.3C273.737 60.7 269.737 62.9 264.204 62.9ZM261.804 54.5C261.804 56.1667 262.271 57.4667 263.204 58.4C264.137 59.3333 265.537 59.8 267.404 59.8C269.271 59.8 271.171 58.9667 273.104 57.3C275.104 55.6333 276.204 53.5333 276.404 51L276.704 44.8C266.771 44.8 261.804 48.0333 261.804 54.5ZM352.852 61.7V34.2C349.652 31.7333 345.685 30.5 340.952 30.5C335.018 30.5 330.952 32.9333 328.752 37.8C326.952 41.9333 326.052 47.5667 326.052 54.7C326.052 68.5 329.785 75.4 337.252 75.4C341.452 75.4 345.085 73.8 348.152 70.6C351.285 67.4 352.852 64.4333 352.852 61.7ZM335.352 78.5C329.618 78.5 324.785 76.4667 320.852 72.4C316.918 68.2667 314.952 62.1333 314.952 54C314.952 45.8 317.318 39.3333 322.052 34.6C326.852 29.8667 333.218 27.5 341.152 27.5C345.285 27.5 349.185 28.4667 352.852 30.4V5.19999L344.052 4.79999L343.952 2.49999L362.452 0.399997V74.7L370.952 75.1L371.052 77.4L353.352 78.6L353.552 69H352.952C351.352 72 348.918 74.3333 345.652 76C342.385 77.6667 338.952 78.5 335.352 78.5ZM399.18 78.1C392.313 78.1 386.78 75.7667 382.58 71.1C378.38 66.4333 376.28 60.2667 376.28 52.6C376.28 44.9333 378.48 38.7667 382.88 34.1C387.346 29.4333 392.946 27.1 399.68 27.1C406.413 27.1 411.446 28.6333 414.78 31.7C418.113 34.7 419.78 38.9 419.78 44.3C419.78 45.9 419.646 47.5 419.38 49.1H387.08V52.6C387.08 60.0667 388.146 65.7333 390.28 69.6C392.413 73.4 395.913 75.3 400.78 75.3C407.646 75.3 412.946 72.3 416.68 66.3C418.146 66.7667 418.88 67.4667 418.88 68.4C418.88 70.0667 417.346 72 414.28 74.2C412.813 75.2667 410.746 76.2 408.08 77C405.413 77.7333 402.446 78.1 399.18 78.1ZM410.28 42.2C410.28 39.1333 409.646 36.5 408.38 34.3C406.646 31.3667 403.846 29.9 399.98 29.9C392.78 29.9 388.58 35.1 387.38 45.5H410.08C410.213 44.3667 410.28 43.2667 410.28 42.2ZM423.833 28.2H444.833V30.8L438.033 31.4L452.233 66.3L464.233 32.7L456.233 30.8V28.2H475.433V30.8L468.433 32.7L451.833 77H447.833L428.533 31.3L423.833 30.6V28.2ZM485.586 30.8H478.586V28.2H485.586V26.7C485.586 17.8333 487.453 11.1667 491.186 6.7C494.919 2.23333 500.253 -4.05312e-06 507.186 -4.05312e-06C511.319 -4.05312e-06 514.753 0.799996 517.486 2.39999C520.286 3.93333 521.686 6.03333 521.686 8.7C521.686 11.3 520.786 13.2 518.986 14.4C517.919 15.1333 516.853 15.5 515.786 15.5C514.786 15.5 513.819 15.3 512.886 14.9C513.286 13.0333 513.486 11.2333 513.486 9.5C513.486 7.76666 512.886 6.23333 511.686 4.9C510.486 3.56666 508.819 2.89999 506.686 2.89999C504.553 2.89999 502.719 3.49999 501.186 4.7C499.719 5.83333 498.619 7.2 497.886 8.8C497.153 10.3333 496.586 12.4 496.186 15C495.653 18.4667 495.386 22.8667 495.386 28.2H510.486V30.8H495.386V74.1L506.586 74.6L506.686 77H478.886L478.786 74.6L485.586 74.2V30.8ZM536.039 11.9C536.039 13.5 535.472 14.9 534.339 16.1C533.206 17.2333 531.772 17.8 530.039 17.8C528.372 17.8 526.972 17.2333 525.839 16.1C524.706 14.9667 524.139 13.5667 524.139 11.9C524.139 10.1667 524.706 8.73333 525.839 7.6C526.972 6.4 528.372 5.8 530.039 5.8C531.706 5.8 533.106 6.4 534.239 7.6C535.439 8.8 536.039 10.2333 536.039 11.9ZM519.039 77V74.6L525.639 74.1V31.6L516.839 31.3V29L535.439 27.7V74.1L542.039 74.6V77H519.039ZM579.534 27C581.267 27 582.634 27.4333 583.634 28.3C584.634 29.1 585.134 30.2333 585.134 31.7C585.134 34.2333 584.167 35.9 582.234 36.7C581.167 35.8333 579.234 35.4 576.434 35.4C573.634 35.4 570.934 36.3333 568.334 38.2C565.8 40 564.534 42.0667 564.534 44.4V74.1L573.534 74.6V77H548.134V74.6L554.734 74.2V31.5L546.834 31.1V28.8L564.534 27.7L563.934 40H564.334C565.467 36.4 567.534 33.3333 570.534 30.8C573.6 28.2667 576.6 27 579.534 27ZM639.849 52.6C639.849 60 637.616 66.1 633.149 70.9C628.683 75.7 622.583 78.1 614.849 78.1C607.183 78.1 601.116 75.7 596.649 70.9C592.183 66.1 589.949 60 589.949 52.6C589.949 45.2 592.183 39.1 596.649 34.3C601.116 29.5 607.183 27.1 614.849 27.1C622.583 27.1 628.683 29.5 633.149 34.3C637.616 39.1 639.849 45.2 639.849 52.6ZM600.849 52.6C600.849 68 605.516 75.7 614.849 75.7C624.249 75.7 628.949 68 628.949 52.6C628.949 45.1333 627.883 39.4333 625.749 35.5C623.616 31.5667 620.016 29.6 614.949 29.6C609.883 29.6 606.249 31.5667 604.049 35.5C601.916 39.4333 600.849 45.1333 600.849 52.6ZM661.936 72.3C661.936 73.9 661.369 75.3 660.236 76.5C659.103 77.6333 657.669 78.2 655.936 78.2C654.269 78.2 652.869 77.6333 651.736 76.5C650.603 75.3667 650.036 73.9667 650.036 72.3C650.036 70.5667 650.603 69.1333 651.736 68C652.869 66.8 654.269 66.2 655.936 66.2C657.603 66.2 659.003 66.8 660.136 68C661.336 69.2 661.936 70.6333 661.936 72.3ZM697.476 27.1C701.209 27.1 704.809 27.9 708.276 29.5C710.209 30.3667 711.742 31.7 712.876 33.5C714.076 35.3 714.676 37.4 714.676 39.8C714.676 42.2 713.609 43.8333 711.476 44.7C710.609 45.0333 709.676 45.2 708.676 45.2C707.742 45.2 706.776 44.8667 705.776 44.2C706.042 42.8 706.176 41.1667 706.176 39.3C706.176 37.3667 705.576 35.5333 704.376 33.8C702.642 31.2 700.176 29.9 696.976 29.9C687.709 29.9 683.076 37.5333 683.076 52.8C683.076 60.2667 684.142 65.9 686.276 69.7C688.476 73.4333 692.009 75.3 696.876 75.3C703.076 75.3 708.042 72.3 711.776 66.3C713.242 66.7667 713.976 67.5 713.976 68.5C713.976 69.4333 713.342 70.6333 712.076 72.1C710.876 73.5 708.742 74.8667 705.676 76.2C702.676 77.4667 699.209 78.1 695.276 78.1C688.409 78.1 682.842 75.7667 678.576 71.1C674.376 66.4333 672.276 60.2667 672.276 52.6C672.276 44.9333 674.542 38.7667 679.076 34.1C683.676 29.4333 689.809 27.1 697.476 27.1ZM772.857 52.6C772.857 60 770.624 66.1 766.157 70.9C761.69 75.7 755.59 78.1 747.857 78.1C740.19 78.1 734.124 75.7 729.657 70.9C725.19 66.1 722.957 60 722.957 52.6C722.957 45.2 725.19 39.1 729.657 34.3C734.124 29.5 740.19 27.1 747.857 27.1C755.59 27.1 761.69 29.5 766.157 34.3C770.624 39.1 772.857 45.2 772.857 52.6ZM733.857 52.6C733.857 68 738.524 75.7 747.857 75.7C757.257 75.7 761.957 68 761.957 52.6C761.957 45.1333 760.89 39.4333 758.757 35.5C756.624 31.5667 753.024 29.6 747.957 29.6C742.89 29.6 739.257 31.5667 737.057 35.5C734.924 39.4333 733.857 45.1333 733.857 52.6ZM847.844 27.5C858.51 27.5 863.844 32.6333 863.844 42.9C863.844 50.3 863.61 60.7 863.144 74.1L870.244 74.6V77H847.944V74.6L853.344 74.2C853.81 56.6 854.044 45.9333 854.044 42.2C854.044 38.4 853.344 35.5667 851.944 33.7C850.544 31.8333 848.277 30.9 845.144 30.9C842.01 30.9 839.11 32.2333 836.444 34.9C833.777 37.5 831.977 40.3 831.044 43.3C831.044 50.5 830.81 60.7667 830.344 74.1L837.444 74.6V77H815.144V74.6L820.544 74.2C821.01 56.6 821.244 45.9333 821.244 42.2C821.244 38.4 820.544 35.5667 819.144 33.7C817.744 31.8333 815.31 30.9 811.844 30.9C808.444 30.9 805.244 32.7333 802.244 36.4C799.244 40 797.744 43.2 797.744 46V74.1L805.244 74.6V77H781.444V74.6L787.944 74.2V31.8L779.444 31.4V29.1L797.344 27.9L796.844 38.2H797.844C799.644 34.6667 802.044 32 805.044 30.2C808.11 28.4 811.444 27.5 815.044 27.5C824.044 27.5 829.244 31.1 830.644 38.3V38.2C832.444 34.6667 834.844 32 837.844 30.2C840.91 28.4 844.244 27.5 847.844 27.5Z" fill="#2E2E2E"/>
</svg>
