<?xml version="1.0" encoding="UTF-8"?>
<svg id="svg172" xmlns="http://www.w3.org/2000/svg" viewBox="0 0 905.72 325.05">
  <defs>
    <style>
      .cls-1 {
        fill: #8f8f8f;
      }

      .cls-2 {
        fill: #cecece;
      }

      .cls-3 {
        stroke: #9b9b9b;
      }

      .cls-3, .cls-4 {
        stroke-width: 2px;
      }

      .cls-3, .cls-4, .cls-5, .cls-6, .cls-7, .cls-8, .cls-9, .cls-10 {
        fill: none;
      }

      .cls-3, .cls-4, .cls-5, .cls-6, .cls-10 {
        stroke-miterlimit: 10;
      }

      .cls-4, .cls-5 {
        stroke: #e4e4e4;
      }

      .cls-11 {
        fill: #b6b6b6;
      }

      .cls-12 {
        fill: #d0d0d0;
      }

      .cls-13 {
        fill: #909090;
      }

      .cls-5 {
        stroke-width: .5px;
      }

      .cls-14 {
        fill: #c1c1c1;
      }

      .cls-15 {
        fill: #9b9b9b;
        opacity: .5;
      }

      .cls-15, .cls-16, .cls-17 {
        isolation: isolate;
      }

      .cls-18 {
        fill: #e5e5e5;
      }

      .cls-6, .cls-7, .cls-8, .cls-9, .cls-10 {
        stroke: #555;
      }

      .cls-6, .cls-10 {
        stroke-width: 2.5px;
      }

      .cls-7 {
        stroke-miterlimit: 10;
        stroke-width: 2.5px;
      }

      .cls-8 {
        stroke-miterlimit: 10;
        stroke-width: 2.5px;
      }

      .cls-9 {
        stroke-miterlimit: 10;
        stroke-width: 2.5px;
      }

      .cls-19 {
        fill: #dadada;
      }

      .cls-20 {
        fill: #898989;
      }

      .cls-21 {
        fill: #fff;
      }

      .cls-16 {
        opacity: .8;
      }

      .cls-16, .cls-17 {
        fill: #dbdbdb;
      }

      .cls-17 {
        opacity: .6;
      }

      .cls-22 {
        fill: #353535;
      }

      .cls-23 {
        fill: #a8a8a8;
      }

      .cls-10 {
        stroke-linecap: round;
      }

      .cls-24 {
        fill: #9f9f9f;
      }

      .cls-25 {
        fill: #b2b2b2;
      }

      .cls-26 {
        fill: #e8e8e8;
      }
    </style>
  </defs>
  <g id="g170">
    <g id="g168">
      <ellipse id="ellipse2" class="cls-2" cx="103.64" cy="316.48" rx="87.23" ry="8.57"/>
      <ellipse id="ellipse4" class="cls-2" cx="261.92" cy="298.44" rx="38.5" ry="8.57"/>
      <path id="path8" class="cls-26" d="M905.72,264.78l-198-4.27-20.59-61.16c6.1-2.26,12.04-4.93,17.77-8,11.26-6.27,12.58-22.69,7.82-33.31-3.43-1.31-12.31-1.71-12.31-1.71,1.02,4.83,1.3,9.79.83,14.71-.65,5-12.33,11-18.94,14l-24-71.34c3.63-2.07,39.84-43.64,39.84-43.64h16.21l69.46,78.37,22.9-11.8,99.01,128.15Z"/>
      <path id="path10" class="cls-2" d="M712.7,158.04s10.72,28-11.92,36.3c-22.64,8.3-94.37,32.4-82.59,43.23,26.69,24.53,127.29,27.22,127.29,27.22,0,0-6.89-42.43-12.28-61.07l-20.5-45.68Z"/>
      <path id="path12" class="cls-26" d="M75.59,229.74l17.51-35.24,1.58,17.47,12.84-29.5,3,11.28,6.01-19.8,6.76,27.49,10.56-41.53,7.96,34.38,11.09-20.36s-11.94,5.6-11.94,4.12,16.11-28.81,16.11-28.81c0,0-14.84,7.12-14.84,5.64,0-1.47,12.57-16.45,16.86-25.86,4.29-9.42,11.96-42.1,11.96-42.1,0,0,12.32,40.21,18.89,44.55,2.12-6.44,8.88-24.76,8.88-24.76l-13.38,7.58s20.16-54.58,22.62-66.93,1.89-8.1,6.28,2.67c3.07,9.14,6.71,39.05,17.88,56.06,10.57,12.78-7.59,3.68-7.59,3.68l16.45,40.48,14.45-35.98,8.58,27.94,12.79-36.15-14.45,13.02s12.88-24.33,15.63-43.58,6.14-49.84,6.14-49.84l18.16,44.56S319.73,8.39,320.38,0c2.05,29.53,29.54,100.05,29.54,100.05,0,0,10.68-29.22,11.66-40.05,3.32,10.73,46.57,189.43,46.57,189.43,0,0-121.99,10.19-169.56,10.4-47.57.21-138.76,1.07-147.17-5.2-8.41-6.27-15.83-24.89-15.83-24.89h0Z"/>
      <path id="path16" class="cls-20" d="M285.11,269.47s7.46-2.12,8.62,1.61c1.16,3.73-8.62,18.64-8.62,18.64,0,0,11.19-.94,11.66,1.39-8.17,1.17-17.81,1.13-18.41,1.58-.6.45,6.75-23.22,6.75-23.22Z"/>
      <path id="path18" class="cls-25" d="M308.57,255.77c-.83-1.55-13,0-13,0v-7.42s9.27-2.7,9.85-4.84c1.46-5.33-9.58-1.35-11.4-1-19.53,4.16-33.91,20.8-35.19,40.73-.22,2.35-.02,4.72.6,7-2.42,1.94-6.35,4.35-9.17,2.41-4.36-3,9-25.46,8.42-36-.48-8.92-7.77-29.57-26.27-29.71-14.84-.1-23.28,6-29,19s-9.33,19.69-15.39,19.1c-6.06-.59-8.77.5-13.63-8.88.47,6.34,5.34,19.34,18.35,19s18.74-6.7,24.48-12.16c5.74-5.46,15.71-7.6,16.18-.34s-5.69,25-4.76,30.81,3.5,9.13,14.09,8.81c9-.28,15.25-6.52,17.86-9.34,1.05,1.77,2.74,3.07,4.72,3.63.32.05.63.16.92.3.7.42-1.48,3.56-1.78,4.32-.3.76,14.15,1.34,20.84.78.7.01,1.38-.22,1.93-.66.66-.88.48-2.14-.4-2.8-.04-.03-.09-.06-.13-.09-.95-.58-2.05-.88-3.16-.86l-11.24-.84c5.38-3.17,10.31-7.06,14.64-11.55,2.14-2.21,4.27-5.12,3.49-8.11-.64-2.4-3-3.92-5.09-5.19-.53-3.94-.58-7.94-.13-11.89.5-3.2,1.3-5.49,3.25-7.57,0,.07,1,9.81,3.82,11.05s12.39-4,12.39-4c0,0,1.52,3.63,1.93,3.53s2.81-5.66,1.98-7.22h0Z"/>
      <path id="path20" class="cls-25" d="M302.05,238.26c-1.44-.78-2.2-4.89-1.1-5.38,1.1-.49,3.88,1.1,3.82,3.42.72-.37,2.38-.79,2.76-1.21-.83-.44-1.39-1.26-1.49-2.2-.57-2.32,1.15-2.83,2-2.14.85.69,2,2.71,1.48,4.08,2.53-1.32,5.78-.66,8.19.87,2.4,1.61,4.08,4.09,4.66,6.92.06.67.34,1.29.8,1.78,1.09.86,2.74-.35,4,.11,1.09.38-.32,4.73-1.29,5.35-2.68,1.7-5.68,2.83-8.82,3.3-2.93.43-6.1.24-8.54-1.43-1.18-.85-2.2-1.9-3-3.12-2.98-4.43-2.24-5.31-3.47-10.35h0Z"/>
      <path id="path22" class="cls-20" d="M285.98,256.72c-2.04,2.76-3.89,5.65-5.53,8.66-2.59,4.09-4.73,8.45-6.37,13,3.71-2.36,7.59-4.46,11.59-6.28l-.34-.21c-.53-3.94-.58-7.94-.13-11.89.17-1.11.43-2.21.78-3.28Z"/>
      <path id="path24" class="cls-1" d="M236.11,297.11c-.54-5.66,13.7-18.14,4.28-20.93-.53-.17-.82-.73-.65-1.25.02-.06.04-.12.07-.18,2.71-3.75,7.91-6.82,9.23-11.39s-1.85-8.14-6-9.15c-1.57-.38-3.7-.7-4.85-2-1.35-1.49-1.21-4-3.08-5.21-2.88-1.83-7.44.16-10,1.55-4.22,2.24-7.53,5.92-10.86,9.27-5.66,5.7-12.27,12.95-20.82,13.63-9.54.77-14.53-6.87-18.9-14,1,6.65,6,18.07,18.21,17.75,13-.33,18.74-6.7,24.48-12.16,5.74-5.46,15.71-7.6,16.18-.34s-5.69,25-4.76,30.81,3.5,9.13,14.09,8.81c.8-.03,1.61-.11,2.4-.24-4.45.57-8.53.29-9.02-4.97h0Z"/>
      <path id="path26" class="cls-16" d="M316.87,239.14c1.5,1.04,2.75,2.41,3.65,4,1.84,3,4.11,4.05,7,3.43.21-1,.21-1.88-.26-2-1.3-.46-2.95.75-4-.11-.46-.49-.74-1.11-.8-1.78-.58-2.83-2.26-5.31-4.66-6.92-1.62-1.05-3.53-1.59-5.46-1.55-.89.23-1.78.46-2.67.66h-.06c-.62.14-1.24.24-1.87.32-.65.25-1.28.53-1.9.83.12.18.25.35.38.51,3.74-.29,7.47.62,10.65,2.61h0Z"/>
      <path id="path28" class="cls-16" d="M247.82,240.04c7.4,9.47,8.18,22.17,6.51,34,2.34-6.33,4.58-12.9,4.33-17.35-.48-8.92-7.77-29.57-26.27-29.71h-1c6.58,2.82,12.72,8.32,16.43,13.06Z"/>
      <path id="path30" class="cls-20" d="M283.51,297.58l-5.57-.43c1.18.59,2.15,1.53,2.78,2.69.4.71.53,1.54.37,2.34,1.55,0,3-.09,4.18-.19.7.01,1.38-.22,1.93-.66.66-.88.48-2.14-.4-2.8-.04-.03-.09-.06-.13-.09-.95-.58-2.05-.88-3.16-.86Z"/>
      <circle id="circle32" class="cls-22" cx="327.14" cy="244.85" r="1.34"/>
      <path id="path34" class="cls-16" d="M285.33,271.86c-4.77,0-9.83,5.5-11.79,7.16,10.79-7.09,14.69-3.82,15.29,1.5.09.87.04,1.74-.14,2.59,1.36-1.84,2.29-3.93,1.73-6.06-.64-2.4-2.6-5.19-5.09-5.19h0Z"/>
      <path id="path36" class="cls-16" d="M295.55,255.77v-6.75c-1.17.24-2.12,1.1-2.48,2.24-.42,1-.63,4.91,0,5.79,1.16,1.54,6.94-.33,8.8-.56,2.26-.32,4.55-.36,6.82-.12-.01-.21-.06-.41-.15-.6-.8-1.55-12.99,0-12.99,0Z"/>
      <path id="path38" class="cls-1" d="M151.04,289.06s1.73,12.95,5.08,16.55c3.35,3.6,17.29,13.25,18,11.4-6.77-8.45-14-29.49-14-29.49l-9.08,1.54Z"/>
      <path id="path40" class="cls-1" d="M106.51,289.91c-.15.06-.29.16-.38.29-.16.25,0,.57.14.82,1.57,2.74,2.8,5.67,3.65,8.71.62,2.19,1.75,5.22,3.77,4.16,3.51-1.85.64-6.46,0-10.38.4,2.42,8.16-.38,10.69-4,3.24-4.61-4.46-5.29-7.26-4.59-3.61.92-7.26,3.41-10.61,4.99Z"/>
      <path id="path42" class="cls-25" d="M136.16,261.82c-4.66-.54-9.52-.37-13.81,1.52-4.12,1.81-7.41,5.06-10.4,8.42-.86,1.09-1.89,2.02-3.06,2.77-1.19.6-2.51.91-3.84.91-6.26.22-12.15-3.28-16.42-7.85-4.27-4.57-7.24-10.18-10.43-15.56-5.12-8.64-11.27-17.16-20.11-21.93-12.25-6.62-28.21-4.55-39.39,3.76C7.52,242.17,1.04,255.92.04,269.81c-.22,3.07.43,7,3.41,7.73l4.65-8.92c2.28-4.39,4.68-8.91,8.57-12s9.74-4.21,13.78-1.36c3.17,2.24,4.49,6.32,4.9,10.18s.13,7.81,1,11.59c2.19,9.19,11.16,15.56,20.43,17.38,6.74,1.31,13.71.68,20.1-1.83,10.57-4.16,19.79-13.43,31.12-12.69,1.48,4,5.41,6.72,9.53,7.85s8.47.94,12.74.73l-5.57,6.67c2.94,5.87,6.87,11.19,11.62,15.72,2.28-5.8.41-11.71-3.21-16.8.92-1.81,2.41-3.26,4.24-4.13,4.16,2.24,15.21,1.63,19.88,1-.2,3.38.51,11.21,2.67,14.55s9.17,10.35,13.16,12.51c2.52,1.36,10.25,3.16,11.4.87-9.46-4-18.88-13.73-18.84-24,0-5,4.35-8.31,4.12-12.55-.19-3.67-6.16-8-8.77-10.06-7.14-5.71-15.73-9.33-24.81-10.43h0Z"/>
      <path id="path44" class="cls-1" d="M83.62,278.86c-3.72,0-7.56.77-10.33-2.21-.9-1.2-1.69-2.47-2.36-3.8-2.21-3.37-4.91-3.78-8.79-3.55-4.74.28-6.38-1.52-8.27-5.77-5.38-12-19-21.35-32.06-14.36-10,5.38-16.15,17.18-18.85,27.83-.03.1-.07.19-.13.27.21.11.43.2.66.27l4.65-8.92c2.28-4.39,4.68-8.91,8.57-12s9.74-4.21,13.78-1.36c3.17,2.24,4.49,6.32,4.9,10.18s.13,7.81,1,11.59c2.19,9.19,11.16,15.56,20.43,17.38,6.74,1.31,13.71.68,20.1-1.83,7.52-3,14.36-8.49,21.76-11.18-4.64-1.98-9.64-2.56-15.06-2.54h0Z"/>
      <path id="path46" class="cls-17" d="M134.04,274.86c.22,0,9,5.91,8.89,8.67s-8,7.05-8,7.05c0,0,3.85-4.93,3-7.86s-3.89-7.86-3.89-7.86h0Z"/>
      <path id="path48" class="cls-24" d="M167.04,277.38c-.88,3-2.56,5.8-3.31,8.95-1,3.92-.19,8.08,2.21,11.33-.16-.93-.24-1.87-.24-2.81,0-5,4.35-8.31,4.12-12.55-.1-1.6-1.28-3.31-2.78-4.92Z"/>
      <path id="path50" class="cls-25" d="M173.04,271.34c2.29-.91,4.2,1.45,2.58,7.05l2.92.07c-.54-1.52-.73-3.14-.54-4.74.12-1.37,1.33-2.38,2.7-2.26.03,0,.05,0,.08,0,1.57.08,2.12,1.43,2.18,3,.04,1.52-.3,3.04-1,4.39,3.54,2.53,5.43,6.78,4.94,11.1-.33,1.49-.56,3-.7,4.52-.12,1.55.66,3.03,2,3.82.82.25,1.66.44,2.51.56.82.23,1.66.92,1.55,1.77-.1.7-.78,1.15-1.42,1.47-4.87,2.37-10.56,2.39-15.45.05-4.23-2.06-7.64-6.08-8.24-10.74-.37-3.06.55-6.14,2.52-8.51.7-.84,2.95-1.89,3.2-2.88-1.13-1.59-2.92-7.48.17-8.68h0Z"/>
      <circle id="circle52" class="cls-22" cx="190.87" cy="300.03" r="1.33"/>
      <path id="path54" class="cls-17" d="M65.38,246.19c5.29,6,9.36,12.92,14.45,19.06,5.02,6.24,11.94,10.66,19.71,12.59.57-.08,1.13-.18,1.7-.31-5.49-.5-10.59-3.71-14.4-7.78-4.27-4.58-7.23-10.18-10.42-15.57-5.12-8.64-11.28-17.16-20.12-21.93-6.11-3.2-13.04-4.5-19.89-3.72,11.17,2.17,21.71,9.41,28.97,17.66h0Z"/>
      <path id="path56" class="cls-17" d="M152.34,271.08c4.87,2.78,8.66,6.83,12.12,11.17.24-1.19.57-2.36,1-3.5-2.55-2.92-5.47-5.49-8.69-7.65-7.35-4.84-15.86-6.24-24.36-7.68l2.94,1.36c5.62,2.27,11.69,3.29,16.99,6.3h0Z"/>
      <path id="path126" class="cls-2" d="M638.22,104.47c-15.3,8.93-31.95,13.81-51.19,18.39-18.69,4.27-37.59,7.53-56.63,9.76l40.65-56.37,55.42-23.91,23.8,36.13s-3.14,4.3-12.05,16Z"/>
      <path id="path128" class="cls-2" d="M689.23,182.8c-20.69,9.27-211,62-262.13,64.8l88.5-108.85h16.56c16.55,0,33.68-4.32,48.46-6.18,14.78-1.86,50.63-11,67.24-25.07,4.84-4.15,10.4-14.73,10.4-14.73l41.32,61.77s10.34,19-10.35,28.26h0Z"/>
      <polygon id="polygon130" class="cls-21" points="590.96 97.67 591.7 80.5 576.98 93.8 576.98 80.5 556.24 105.72 571.02 76.25 609.66 15.48 638.22 72.18 623.47 66.8 615.35 93.8 604.62 72.18 590.96 97.67"/>
      <ellipse id="ellipse6" class="cls-2" cx="435.86" cy="297.56" rx="99.97" ry="16.1"/>
      <path id="path14" class="cls-4" d="M470.32,241.27s110.26-9.9,124-19.52"/>
      <path id="path58" class="cls-14" d="M515.77,221.46c-.37-1.68,78.91-92.89,85.72-99.15,6.81-6.26,67.73-78,72.14-80.45,2.68-6-6.2-11.06-10.21-8.33-3.73,7.3-67.86,83.12-73.66,89.3-5.8,6.18-52.29,56.46-72.64,72.56-4.4,12.23-8.47,14.29-11.61,17.84-.54,1.89.14,4.45,3.81,6.89s6.45,1.34,6.45,1.34h0Z"/>
      <path id="path60" class="cls-19" d="M652.39,59.07c-5.79,5.67-27.63,31.4-33.29,38.11-12.21,14.47-62.7,71.66-75.59,86.07-6,6.76-28.89,30.24-34.94,36.35.24.18.47.37.75.55,3.66,2.45,6.45,1.31,6.45,1.31-.37-1.68,78.91-92.89,85.72-99.15,6.81-6.26,67.73-78,72.14-80.45.74-1.58.64-3.42-.26-4.91-6.36,7.93-13.8,15.08-20.98,22.12h0Z"/>
      <path id="path62" class="cls-23" d="M507.12,211.59c-.56.55-1.1,1.09-1.61,1.67-.54,1.89.14,4.45,3.81,6.89s6.45,1.31,6.45,1.31c.24-.58.58-1.12,1-1.6-2.16-3.79-5.57-6.71-9.65-8.27h0Z"/>
      <path id="path64" class="cls-6" d="M434.47,46.26c-3.68-12.85-14.32-17.84-18.14-18.61-.57-.11-1.12.26-1.23.83-.03.16-.02.32.02.48l4.68,17.3s-9.79,13.57-9.79,27.89,1.47,19.8,0,24.2c-2.72,8.39-1.51,17.55,3.3,24.94,7.37,11.89,18.67,20.82,31.93,25.25"/>
      <path id="path66" class="cls-6" d="M415.68,27.63s8.8-9.85,30.26-2.19c15.02-6.87,32.15-7.45,47.6-1.61,26,9.82,33.11,25.77,33.11,25.77"/>
      <path id="path68" class="cls-6" d="M502.46,60.51s16.22-13.9,30.13-10.93c13.13,10.16,4.63,36.42,1.54,40.28"/>
      <path id="path70" class="cls-6" d="M513.66,59.35s11.43-6.82,13.91-4.22c2.92,3.07,1.76,19.93.77,26.24"/>
      <path id="path72" class="cls-6" d="M410.01,74.15s1.3-18.32,11-15.19,15,23.56,25.45,26.27,48.66-9.24,62.18,2.33,7.34,25.09,5,29.72-9.63,16.35-9.63,16.35c0,0,9.62,9-10.46,15.56"/>
      <path id="path74" class="cls-6" d="M537.64,81.37s4.62,27.2-7.44,43.64c-13,17.7-41.14,30.1-67.36,27.32"/>
      <path id="path76" class="cls-6" d="M463.57,155.14s-1.79-8.27-9.27-8.81c-7.48-.54-25.63,11.75-35,26.16s-7.74,21.09,2.77,28.87c8,5.89,27.94,10.21,46.09,8.35l21.9-2.17c1.17.45,2.03,1.47,2.27,2.7,0,1.43-3.4,11.62,2.22,12.46,5.62.84,6.46-3.31,6.46-7.46,4.77-2.8,15.57-9,16.07-26.64s-12.7-28.5-27.58-26.26-39,11.51-52.5,8.43"/>
      <path id="path78" class="cls-6" d="M457.01,155.61s-7.6,8.93-7.73,15.41"/>
      <line id="line80" class="cls-6" x1="476.44" y1="165.17" x2="468.19" y2="152.74"/>
      <line id="line82" class="cls-6" x1="465.15" y1="158.13" x2="467.03" y2="167.53"/>
      <ellipse id="ellipse84" class="cls-7" cx="440.12" cy="128.62" rx="2.74" ry="6.58" transform="translate(108.67 445.46) rotate(-60)"/>
      <path id="path86" class="cls-6" d="M443.6,148.54s-54.21,15.29-78.83,27.52c-24.62,12.23-79.06,42.92-76.8,51.5s47.9-8.09,62.59-14.6c16.5-7.32,64.43-32.57,64.43-32.57"/>
      <path id="path88" class="cls-6" d="M434.82,206.91s-18.69,23.06-29.61,29.7c-10.58,6.44-39.86,21.91-42.11,26.07-3.35,6.18-7.31,27.78,14.2,38.8,9.35,4.79,31.25,6.39,40.37,1.14s8.79-7.37,7.76-8.21c-2.37-1.93-26.57,11.91-37.21,10.38"/>
      <path id="path90" class="cls-6" d="M381.7,271.09c.78-.78,23.39-3.9,32.84,4.6,7.66,6.91,7,19.25,5.81,19.66"/>
      <path id="path92" class="cls-6" d="M414.54,275.69s18.22-9.77,30.73-28.52c7.65-11.55,13.8-24.03,18.3-37.13"/>
      <path id="path94" class="cls-6" d="M468.19,209.71l21.52,72.91s6.34,13.52,16.79,12.73c10.45-.79,31.37-7.94,40.22-19.66,4.39-5.81,9.65-15.81,7.46-19.29-2.43-3.86-5.66-2-7.53-1.34-2.7-1-21.3-2.52-26.71,7"/>
      <path id="path96" class="cls-6" d="M499.44,221.46s16.22,34.94,23.59,46.52"/>
      <path id="path98" class="cls-6" d="M531.45,123.15s40.64-21.74,55.46-26.32c14.82-4.58,28.39-9.81,35.69-1.88,7.3,7.93,1.41,24.4-3.59,30.46-5.63,6.89-15.23,14.61-28,14.61,0,0-15.87,1.05-17.12-13.77-3.55,1.67-8.84,1.42-5.63-4,4.59-7.72,13.77-17.32,38.4-20.24"/>
      <path id="path100" class="cls-6" d="M469.62,152.71s17.77,3.65,44-1.2c26.23-4.85,60.66-22.89,60.66-22.89"/>
      <path id="path102" class="cls-10" d="M390.68,80.03c11.11,4.56,19.17,18,19.17,18"/>
      <path id="path104" class="cls-10" d="M390.68,93.48c5.31.38,14.51,3.85,18.09,9.41"/>
      <path id="path106" class="cls-6" d="M512.72,134.44c7,.8,26.88,10.28,32.4,17.73"/>
      <path id="path108" class="cls-10" d="M541.9,148.83c1.19,1,2.27,2.12,3.22,3.35"/>
      <path id="path110" class="cls-10" d="M514.62,139.4c5.28,3.06,16,13.34,18.82,20.74"/>
      <ellipse id="ellipse112" class="cls-8" cx="323.62" cy="206.26" rx="22.06" ry="3.95" transform="translate(-59.78 189.44) rotate(-30)"/>
      <ellipse id="ellipse114" class="cls-9" cx="374.39" cy="178.2" rx="19.84" ry="2.87" transform="translate(-40.23 174.27) rotate(-24.91)"/>
      <path id="path116" class="cls-6" d="M431.56,158.59c-2.14,1.1-7.35,3.35-9.47,4.12-9.35,3.41-17.27,5.21-17.71,4s6.8-4.91,16.14-8.32c5.38-2,10.94-3.44,16.61-4.32"/>
      <path id="path118" class="cls-6" d="M475.68,235.07s2.38,3.26,4.09,2.75,2.23-12,0-18.84-5.49-9.88-6-9.83"/>
      <path id="path120" class="cls-6" d="M480.23,250.5c.19.63,7.18.4,11.28,14.38,4.1,13.98,3.13,21.95,0,20.86"/>
      <path id="path122" class="cls-6" d="M569.07,121.11c-10.54,0-25,11.47-24,13.33,2,3.82,20.82-1.63,20.82-1.63"/>
      <path id="path124" class="cls-6" d="M506.61,152.65s31.85-11,33.08-14.24c1.23-3.24-23.11-.32-24.09.34"/>
      <path id="path132" class="cls-14" d="M742.05,287.27l12-90.94,3.88-108.63s5.13-2,11.64,1.65,8.66,8.66,8.66,8.66l-11.66,87.32,2.5,101.94-12.85,11.2-14.17-11.2Z"/>
      <path id="path134" class="cls-23" d="M778.26,98.01s-2.15-5-8.66-8.66c-.55-.31-1.12-.59-1.71-.84-1,8.33-.26,16.74-.21,25.14-.05,9.53-.74,19.04-2.07,28.48-2.58,19.4-4.06,38.94-4.46,58.51-.18,9.9.76,19.71.92,29.6.11,9.23-.6,18.45-2.12,27.56-2,12.4-5.39,24.49-9.06,36.5l5.33,4.21,12.88-11.24-2.5-101.94,11.66-87.32Z"/>
      <path id="path136" class="cls-18" d="M726.55,116.25c-1.78.14-5.79,71.95-5.79,71.95l74.83,8.13,6.24-87.05-75.28,6.97Z"/>
      <polygon id="polygon138" class="cls-14" points="804.95 206.81 816.97 129.45 801.83 109.28 795.59 196.33 804.95 206.81"/>
      <polygon id="polygon140" class="cls-23" points="751.57 158.04 750 168.66 735.91 148.01 754.62 135.36 754.62 146.23 780 143.73 776.44 167.11 751.57 158.04"/>
      <polygon id="polygon142" class="cls-12" points="749.31 154.74 747.8 164.67 734.17 145.37 752.26 133.54 752.26 143.7 776.81 141.36 773.37 163.22 749.31 154.74"/>
      <path id="path144" class="cls-13" d="M774.99,303.17s4.65-48,2.86-54.77c-1.07,3.93-20.4,35.08-20.4,35.08v-30.43s-4.3,14-5.73,18.26c-1.43-6.45-11.45-25.78-10-23.63s1.79,22.55,0,22.55c-1.43-.35-6.8-19-12.17-25.06,2.14,2.15,3.58,17.9,5.37,25.78-.72-2.86-15.23-12.89-22.2-14.32.72,4.65,11.1,13.25,13.25,19.33s-1.44,12.89-1.44,12.89l13.25,9.91,37.21,4.41Z"/>
      <path id="path146" class="cls-11" d="M750.2,302.68c-.34-1,7.41-25.95,7.41-25.95,0,0,22.91-14.15,27-16.51,4.09-2.36,9.77-2,9.77-2l12.46-4.71s34.37,9.09,35.38,9.43,7.07,11.45,9.77,15.16c2.7,3.71,4,6.06,4.38,12.13l.34,6.06-18.2,19.54h-20.89s-14.82,5.73-18.19,4.72-15.5-4-19.88-7.75-29.35-10.12-29.35-10.12h0Z"/>
      <path id="path148" class="cls-3" d="M795.59,262.41s-1.86-17.37,14.5-36"/>
      <circle id="circle150" class="cls-3" cx="811.1" cy="225.16" r="2.32"/>
      <circle id="circle152" class="cls-3" cx="820.3" cy="230.99" r="2.1"/>
      <path id="path154" class="cls-3" d="M802.25,237.39s4.56,2.67,8.69,0c2.72-1.78,5.32-3.72,7.81-5.81"/>
      <path id="path156" class="cls-15" d="M779.28,245.16c-.84-2.53-1.06-5.23-.65-7.86.26-1.23,1.06-2.64,2.33-2.59.58.07,1.13.32,1.55.73,1.03.86,1.97,1.82,2.8,2.87,6.46,7.73,11.34,16.66,14.36,26.27-.38-4.77,2.15-9.44,5.77-12.57s8.22-4.9,12.86-6.09c1.73-.45,3.82-.73,5.07.54.81.93,1.07,2.22.66,3.39-.4,1.14-1.09,2.15-2,2.94-2.13,1.78-4.46,3.31-6.94,4.55-5.18,2.94-10.1,6.32-14.7,10.1-.39.39-.89.66-1.43.79-.34.03-.68-.01-1-.12-9.76-2.46-16.15-13.97-18.68-22.95h0Z"/>
      <path id="path158" class="cls-2" d="M788.55,293.95c5.24-4.94,10.97-9.32,17.1-13.08,4.35.88,8.29.17,11.61.67,7-6.18,15.21-13.36,22.38-19.34-8.21-2.22-32.76-8.71-32.76-8.71l-12.47,4.71s-5.73-.33-9.77,2c-3.23,1.89-18.47,11.28-24.49,15,3.8,5.78,22.41,14.27,28.4,18.75h0Z"/>
      <polygon id="polygon160" class="cls-23" points="804.95 206.83 795.59 196.35 720.76 188.22 720.76 194.35 804.95 206.83"/>
      <path id="path162" class="cls-21" d="M682.75,87.15c.71-2.15,24.06-29.06,24.06-29.06l25.8,32.25h-4.3l11.47,12.18s-15.05,1.43-17.2-2.87c-1.48,3.1-5.69,8.47-7.5,7.87-1.81-.6-11.62-13.23-11.62-13.23,0,0-10,18-11.43,17.44-1.43-.56-4.98-23.26-4.98-23.26l-5.83,5.11,3.12-5.07-1.59-1.36Z"/>
      <path id="path164" class="cls-5" d="M839.64,262.2c-8.21-2.22-32.76-8.71-32.76-8.71l-12.47,4.71s-5.73-.33-9.77,2c-3.23,1.89-18.47,11.28-24.49,15"/>
      <path id="path166" class="cls-17" d="M172.14,275.07c2.88-.25,1.27,4.88,2.94,5.49,1.26.45,2.87-.54,4.45.15,1.56.76,2.82,2.02,3.58,3.58,1.15,2.16,1.05,4.23.94,6.59-.14,3.14.13,6.29,3.7,7.2-1.1-.86-1.7-2.21-1.63-3.6.14-1.52.37-3.03.7-4.52.49-4.32-1.4-8.57-4.94-11.1.7-1.35,1.04-2.87,1-4.39-.06-1.57-.61-2.92-2.18-3-1.37-.17-2.61.81-2.77,2.17,0,.03,0,.05,0,.08-.18,1.6,0,3.22.54,4.74l-2.92-.07c1.62-5.6-.29-8-2.58-7.05-1.46.57-1.81,2.23-1.66,4,.25-.16.54-.25.84-.27h0Z"/>
    </g>
  </g>
</svg>