<svg width="365" height="99" viewBox="0 0 365 99" fill="none" xmlns="http://www.w3.org/2000/svg">
<path d="M53.9 21.9C53.9 25.6333 53.1 28.8333 51.5 31.5C49.9 34.1667 47.7333 36.2 45 37.6C39.8667 40.1333 33.7333 41.4 26.6 41.4C24.8667 41.4 22.5333 41.2667 19.6 41V69.1L27.3 69.6V72H1.8V69.6L9.3 69.1V8.49999L0.6 7.4V5H19.3L31.2 4.7C46.3333 4.7 53.9 10.4333 53.9 21.9ZM24 38.3C30.0667 38.3 34.7333 36.8333 38 33.9C41.2667 30.9667 42.9 27.0333 42.9 22.1C42.9 17.1 41.7333 13.4667 39.4 11.2C37.0667 8.86666 33.3333 7.7 28.2 7.7C25.9333 7.7 23.0667 7.83333 19.6 8.09999V38.1C20.6 38.2333 22.0667 38.3 24 38.3ZM91.5727 22C93.306 22 94.6727 22.4333 95.6727 23.3C96.6727 24.1 97.1727 25.2333 97.1727 26.7C97.1727 29.2333 96.206 30.9 94.2727 31.7C93.206 30.8333 91.2727 30.4 88.4727 30.4C85.6727 30.4 82.9727 31.3333 80.3727 33.2C77.8393 35 76.5727 37.0667 76.5727 39.4V69.1L85.5727 69.6V72H60.1727V69.6L66.7727 69.2V26.5L58.8727 26.1V23.8L76.5727 22.7L75.9727 35H76.3727C77.506 31.4 79.5727 28.3333 82.5727 25.8C85.6393 23.2667 88.6393 22 91.5727 22ZM151.888 47.6C151.888 55 149.655 61.1 145.188 65.9C140.722 70.7 134.622 73.1 126.888 73.1C119.222 73.1 113.155 70.7 108.688 65.9C104.222 61.1 101.988 55 101.988 47.6C101.988 40.2 104.222 34.1 108.688 29.3C113.155 24.5 119.222 22.1 126.888 22.1C134.622 22.1 140.722 24.5 145.188 29.3C149.655 34.1 151.888 40.2 151.888 47.6ZM112.888 47.6C112.888 63 117.555 70.7 126.888 70.7C136.288 70.7 140.988 63 140.988 47.6C140.988 40.1333 139.922 34.4333 137.788 30.5C135.655 26.5667 132.055 24.6 126.988 24.6C121.922 24.6 118.288 26.5667 116.088 30.5C113.955 34.4333 112.888 40.1333 112.888 47.6ZM166.075 70.1V26.5L157.275 26.1V23.8L175.875 22.7V71.6C175.875 80.4667 174.008 87.1333 170.275 91.6C166.542 96.0667 161.208 98.3 154.275 98.3C150.142 98.3 146.708 97.5 143.975 95.9C141.175 94.3667 139.775 92.2667 139.775 89.6C139.775 87 140.708 85.0667 142.575 83.8C143.575 83.1333 144.608 82.8 145.675 82.8C146.675 82.8 147.642 83 148.575 83.4C148.175 85.2667 147.975 87.0667 147.975 88.8C147.975 90.5333 148.575 92.0667 149.775 93.4C150.975 94.7333 152.642 95.4 154.775 95.4C156.908 95.4 158.708 94.8 160.175 93.6C161.708 92.4667 162.842 91.1333 163.575 89.6C165.242 86 166.075 79.5 166.075 70.1ZM176.275 6.9C176.275 8.5 175.708 9.9 174.575 11.1C173.442 12.2333 172.008 12.8 170.275 12.8C168.608 12.8 167.208 12.2333 166.075 11.1C164.942 9.96666 164.375 8.56666 164.375 6.9C164.375 5.16666 164.942 3.73333 166.075 2.6C167.208 1.4 168.608 0.799999 170.275 0.799999C171.942 0.799999 173.342 1.4 174.475 2.6C175.675 3.8 176.275 5.23333 176.275 6.9ZM211.512 73.1C204.645 73.1 199.112 70.7667 194.912 66.1C190.712 61.4333 188.612 55.2667 188.612 47.6C188.612 39.9333 190.812 33.7667 195.212 29.1C199.678 24.4333 205.278 22.1 212.012 22.1C218.745 22.1 223.778 23.6333 227.112 26.7C230.445 29.7 232.112 33.9 232.112 39.3C232.112 40.9 231.978 42.5 231.712 44.1H199.412V47.6C199.412 55.0667 200.478 60.7333 202.612 64.6C204.745 68.4 208.245 70.3 213.112 70.3C219.978 70.3 225.278 67.3 229.012 61.3C230.478 61.7667 231.212 62.4667 231.212 63.4C231.212 65.0667 229.678 67 226.612 69.2C225.145 70.2667 223.078 71.2 220.412 72C217.745 72.7333 214.778 73.1 211.512 73.1ZM222.612 37.2C222.612 34.1333 221.978 31.5 220.712 29.3C218.978 26.3667 216.178 24.9 212.312 24.9C205.112 24.9 200.912 30.1 199.712 40.5H222.412C222.545 39.3667 222.612 38.2667 222.612 37.2ZM266.448 22.1C270.182 22.1 273.782 22.9 277.248 24.5C279.182 25.3667 280.715 26.7 281.848 28.5C283.048 30.3 283.648 32.4 283.648 34.8C283.648 37.2 282.582 38.8333 280.448 39.7C279.582 40.0333 278.648 40.2 277.648 40.2C276.715 40.2 275.748 39.8667 274.748 39.2C275.015 37.8 275.148 36.1667 275.148 34.3C275.148 32.3667 274.548 30.5333 273.348 28.8C271.615 26.2 269.148 24.9 265.948 24.9C256.682 24.9 252.048 32.5333 252.048 47.8C252.048 55.2667 253.115 60.9 255.248 64.7C257.448 68.4333 260.982 70.3 265.848 70.3C272.048 70.3 277.015 67.3 280.748 61.3C282.215 61.7667 282.948 62.5 282.948 63.5C282.948 64.4333 282.315 65.6333 281.048 67.1C279.848 68.5 277.715 69.8667 274.648 71.2C271.648 72.4667 268.182 73.1 264.248 73.1C257.382 73.1 251.815 70.7667 247.548 66.1C243.348 61.4333 241.248 55.2667 241.248 47.6C241.248 39.9333 243.515 33.7667 248.048 29.1C252.648 24.4333 258.782 22.1 266.448 22.1ZM322.13 61.6C322.13 61.8 322.096 62.0333 322.03 62.3C320.963 65.5667 319.163 68.2 316.63 70.2C314.163 72.1333 311.263 73.1 307.93 73.1C304.596 73.1 301.796 72.1667 299.53 70.3C297.33 68.3667 296.23 64.6333 296.23 59.1C296.23 57.5667 296.396 46.4667 296.73 25.8H289.83V23.2H296.83L296.93 8.49999H306.73L306.43 23.2H320.73V25.8H306.43C306.096 47.3333 305.93 59.9333 305.93 63.6C305.93 68.0667 307.396 70.3 310.33 70.3C312.13 70.3 313.996 69.2667 315.93 67.2C317.93 65.1333 319.33 62.8 320.13 60.2C321.463 60.2 322.13 60.6667 322.13 61.6ZM346.26 70.6C348.927 70.6 351.227 69.8667 353.16 68.4C355.16 66.9333 356.16 64.4667 356.16 61C356.16 58.6667 355.093 56.7333 352.96 55.2C350.893 53.6667 348.293 52.3 345.16 51.1C342.027 49.8333 339.893 48.9667 338.76 48.5C337.693 47.9667 336.26 47.1333 334.46 46C331.193 43.8 329.56 40.6333 329.56 36.5C329.56 32.3667 331.193 28.9333 334.46 26.2C337.727 23.4667 342.493 22.1 348.76 22.1C352.76 22.1 356.16 23 358.96 24.8C361.827 26.5333 363.26 28.6333 363.26 31.1C363.26 33.5667 362.327 35.2667 360.46 36.2C359.46 36.6667 358.46 36.9 357.46 36.9C356.527 36.9 355.593 36.7 354.66 36.3C354.927 35.1 355.06 33.8 355.06 32.4C355.06 31 354.727 29.6 354.06 28.2C352.927 25.8 350.76 24.6 347.56 24.6C344.36 24.6 341.927 25.4667 340.26 27.2C338.593 28.9333 337.76 31.2 337.76 34C337.76 36.8667 338.96 39 341.36 40.4C343.16 41.5333 345.393 42.5667 348.06 43.5C350.727 44.4333 352.527 45.1 353.46 45.5C354.46 45.8333 355.76 46.4333 357.36 47.3C358.96 48.1667 360.16 49.0667 360.96 50C363.027 52.2667 364.06 55.3333 364.06 59.2C364.06 63.0667 362.327 66.3667 358.86 69.1C355.393 71.7667 351.16 73.1 346.16 73.1C341.16 73.1 336.76 72.3333 332.96 70.8C329.227 69.2667 327.36 67.0333 327.36 64.1C327.36 61.3667 329.393 59.5667 333.46 58.7C334.66 66.6333 338.927 70.6 346.26 70.6Z" fill="#2E2E2E"/>
</svg>
