<svg width="280" height="35" viewBox="0 0 280 35" fill="none" xmlns="http://www.w3.org/2000/svg">
<path d="M21.9727 4.88281H24.4141V9.76562H19.5312V7.32422H17.0898V4.88281H7.32422V7.32422H4.88281V12.207H7.32422V14.6484H19.5312V17.0898H21.9727V19.5312H24.4141V29.2969H21.9727V31.7383H19.5312V34.1797H4.88281V31.7383H2.44141V29.2969H0V24.4141H4.88281V26.8555H7.32422V29.2969H17.0898V26.8555H19.5312V21.9727H17.0898V19.5312H4.88281V17.0898H2.44141V14.6484H0V4.88281H2.44141V2.44141H4.88281V0H19.5312V2.44141H21.9727V4.88281Z" fill="white"/>
<path d="M30.7383 29.2969H28.2969V0H33.1797V26.8555H35.6211V29.2969H45.3867V26.8555H47.8281V0H52.7109V29.2969H50.2695V31.7383H47.8281V34.1797H33.1797V31.7383H30.7383V29.2969Z" fill="white"/>
<path d="M61.4766 14.6484V34.1797H56.5938V0H61.4766V7.32422H63.918V9.76562H66.3594V12.207H68.8008V14.6484H71.2422V17.0898H73.6836V19.5312H76.125V0H81.0078V34.1797H76.125V26.8555H73.6836V24.4141H71.2422V21.9727H68.8008V19.5312H66.3594V17.0898H63.918V14.6484H61.4766Z" fill="white"/>
<path d="M106.863 4.88281H109.305V9.76562H104.422V7.32422H101.98V4.88281H92.2148V7.32422H89.7734V26.8555H92.2148V29.2969H101.98V26.8555H104.422V19.5312H97.0977V14.6484H109.305V29.2969H106.863V31.7383H104.422V34.1797H89.7734V31.7383H87.332V29.2969H84.8906V4.88281H87.332V2.44141H89.7734V0H104.422V2.44141H106.863V4.88281Z" fill="white"/>
<path d="M115.629 29.2969H113.188V24.4141H118.07V26.8555H120.512V29.2969H125.395V26.8555H127.836V4.88281H122.953V0H137.602V4.88281H132.719V29.2969H130.277V31.7383H127.836V34.1797H118.07V31.7383H115.629V29.2969Z" fill="white"/>
<path d="M143.926 29.2969H141.484V0H146.367V26.8555H148.809V29.2969H158.574V26.8555H161.016V0H165.898V29.2969H163.457V31.7383H161.016V34.1797H146.367V31.7383H143.926V29.2969Z" fill="white"/>
<path d="M205.402 29.2969H215.168V26.8555H217.609V24.4141H222.492V29.2969H220.051V31.7383H217.609V34.1797H202.961V31.7383H200.52V29.2969H198.078V4.88281H200.52V2.44141H202.961V0H217.609V2.44141H220.051V4.88281H222.492V9.76562H217.609V7.32422H215.168V4.88281H205.402V7.32422H202.961V26.8555H205.402V29.2969Z" fill="white"/>
<path d="M231.258 19.5312V34.1797H226.375V0H231.258V14.6484H245.906V0H250.789V34.1797H245.906V19.5312H231.258Z" fill="white"/>
<path d="M271.762 4.88281H261.996V7.32422H259.555V26.8555H261.996V29.2969H271.762V26.8555H274.203V7.32422H271.762V4.88281ZM259.555 2.44141V0H274.203V2.44141H276.645V4.88281H279.086V29.2969H276.645V31.7383H274.203V34.1797H259.555V31.7383H257.113V29.2969H254.672V4.88281H257.113V2.44141H259.555Z" fill="white"/>
</svg>
