<svg width="242" height="24" viewBox="0 0 242 24" fill="none" xmlns="http://www.w3.org/2000/svg">
<path d="M0 12C0 18.6274 5.37258 24 12 24V12C12 18.6274 17.3726 24 24 24V12C24 18.6274 29.3726 24 36 24C42.6274 24 48 18.6274 48 12C48 5.37258 42.6274 0 36 0C29.3726 0 24 5.37258 24 12V0C17.3726 0 12 5.37258 12 12V0C5.37258 0 0 5.37258 0 12Z" fill="black"/>
<path d="M77.147 8.82031H72.4808C72.3956 8.21662 72.2216 7.6804 71.9588 7.21165C71.696 6.73579 71.3587 6.33097 70.9467 5.99716C70.5348 5.66335 70.059 5.40767 69.5192 5.23011C68.9865 5.05256 68.4077 4.96378 67.7827 4.96378C66.6534 4.96378 65.6697 5.24432 64.8317 5.8054C63.9936 6.35937 63.3438 7.16903 62.8821 8.23438C62.4205 9.29261 62.1896 10.5781 62.1896 12.0909C62.1896 13.6463 62.4205 14.9531 62.8821 16.0114C63.3509 17.0696 64.0043 17.8686 64.8423 18.4084C65.6804 18.9482 66.6499 19.218 67.7507 19.218C68.3686 19.218 68.9403 19.1364 69.4659 18.973C69.9986 18.8097 70.4709 18.5717 70.8828 18.2592C71.2947 17.9396 71.6357 17.5526 71.9055 17.098C72.1825 16.6435 72.3743 16.125 72.4808 15.5426L77.147 15.5639C77.0263 16.5653 76.7244 17.5312 76.2415 18.4616C75.7656 19.3849 75.1229 20.2124 74.3132 20.9439C73.5107 21.6683 72.5518 22.2436 71.4368 22.6697C70.3288 23.0888 69.0753 23.2983 67.6761 23.2983C65.7301 23.2983 63.9901 22.858 62.456 21.9773C60.929 21.0966 59.7216 19.8217 58.8338 18.1527C57.9531 16.4837 57.5128 14.4631 57.5128 12.0909C57.5128 9.71165 57.9602 7.6875 58.8551 6.01847C59.75 4.34943 60.9645 3.07812 62.4986 2.20455C64.0327 1.32386 65.7585 0.883522 67.6761 0.883522C68.9403 0.883522 70.1122 1.06108 71.1918 1.41619C72.2784 1.77131 73.2408 2.28977 74.0788 2.97159C74.9169 3.64631 75.5987 4.47372 76.1243 5.45383C76.657 6.43395 76.9979 7.55611 77.147 8.82031Z" fill="black"/>
<path d="M78.6549 23V1.18182H83.2678V10.1839H92.6322V1.18182H97.2345V23H92.6322V13.9872H83.2678V23H78.6549Z" fill="black"/>
<path d="M119.287 12.0909C119.287 14.4702 118.836 16.4943 117.934 18.1634C117.04 19.8324 115.818 21.1072 114.27 21.9879C112.728 22.8615 110.996 23.2983 109.071 23.2983C107.132 23.2983 105.392 22.858 103.851 21.9773C102.309 21.0966 101.091 19.8217 100.197 18.1527C99.3016 16.4837 98.8542 14.4631 98.8542 12.0909C98.8542 9.71165 99.3016 7.6875 100.197 6.01847C101.091 4.34943 102.309 3.07812 103.851 2.20455C105.392 1.32386 107.132 0.883522 109.071 0.883522C110.996 0.883522 112.728 1.32386 114.27 2.20455C115.818 3.07812 117.04 4.34943 117.934 6.01847C118.836 7.6875 119.287 9.71165 119.287 12.0909ZM114.611 12.0909C114.611 10.5497 114.38 9.25 113.918 8.19176C113.464 7.13352 112.821 6.33097 111.99 5.78409C111.159 5.23722 110.186 4.96378 109.071 4.96378C107.956 4.96378 106.983 5.23722 106.152 5.78409C105.321 6.33097 104.675 7.13352 104.213 8.19176C103.758 9.25 103.531 10.5497 103.531 12.0909C103.531 13.6321 103.758 14.9318 104.213 15.9901C104.675 17.0483 105.321 17.8509 106.152 18.3977C106.983 18.9446 107.956 19.218 109.071 19.218C110.186 19.218 111.159 18.9446 111.99 18.3977C112.821 17.8509 113.464 17.0483 113.918 15.9901C114.38 14.9318 114.611 13.6321 114.611 12.0909Z" fill="black"/>
<path d="M136.684 7.45668C136.599 6.5973 136.233 5.92969 135.587 5.45383C134.94 4.97798 134.063 4.74006 132.955 4.74006C132.202 4.74006 131.567 4.84659 131.048 5.05966C130.53 5.26562 130.132 5.55327 129.855 5.92258C129.585 6.2919 129.45 6.71094 129.45 7.17969C129.436 7.57031 129.518 7.91122 129.695 8.20241C129.88 8.49361 130.132 8.74574 130.452 8.95881C130.771 9.16477 131.14 9.34588 131.56 9.50213C131.979 9.65128 132.426 9.77912 132.902 9.88565L134.862 10.3544C135.814 10.5675 136.687 10.8516 137.483 11.2067C138.278 11.5618 138.967 11.9986 139.55 12.517C140.132 13.0355 140.583 13.6463 140.903 14.3494C141.229 15.0526 141.396 15.8587 141.403 16.7678C141.396 18.103 141.055 19.2607 140.381 20.2408C139.713 21.2138 138.747 21.9702 137.483 22.5099C136.226 23.0426 134.709 23.3089 132.934 23.3089C131.172 23.3089 129.638 23.0391 128.332 22.4993C127.032 21.9595 126.016 21.1605 125.285 20.1023C124.56 19.0369 124.18 17.7195 124.145 16.1499H128.609C128.658 16.8814 128.868 17.4922 129.237 17.9822C129.613 18.4652 130.114 18.831 130.739 19.0795C131.371 19.321 132.085 19.4418 132.881 19.4418C133.662 19.4418 134.34 19.3281 134.915 19.1009C135.498 18.8736 135.949 18.5575 136.268 18.1527C136.588 17.7479 136.748 17.2827 136.748 16.7571C136.748 16.267 136.602 15.8551 136.311 15.5213C136.027 15.1875 135.608 14.9034 135.054 14.669C134.507 14.4347 133.836 14.2216 133.04 14.0298L130.665 13.4332C128.825 12.9858 127.373 12.2862 126.307 11.3345C125.242 10.3828 124.713 9.10085 124.72 7.48864C124.713 6.16761 125.064 5.01349 125.775 4.02628C126.492 3.03906 127.476 2.26847 128.726 1.71449C129.976 1.16051 131.396 0.883522 132.987 0.883522C134.606 0.883522 136.02 1.16051 137.227 1.71449C138.442 2.26847 139.386 3.03906 140.061 4.02628C140.736 5.01349 141.084 6.15696 141.105 7.45668H136.684Z" fill="black"/>
<path d="M156.183 1.18182H160.796V15.3509C160.796 16.9418 160.416 18.3338 159.656 19.527C158.903 20.7202 157.848 21.6506 156.492 22.3182C155.135 22.9787 153.555 23.3089 151.751 23.3089C149.94 23.3089 148.356 22.9787 146.999 22.3182C145.643 21.6506 144.588 20.7202 143.835 19.527C143.083 18.3338 142.706 16.9418 142.706 15.3509V1.18182H147.319V14.9567C147.319 15.7876 147.5 16.5263 147.862 17.1726C148.232 17.8189 148.75 18.3267 149.418 18.696C150.085 19.0653 150.863 19.25 151.751 19.25C152.646 19.25 153.423 19.0653 154.084 18.696C154.752 18.3267 155.266 17.8189 155.629 17.1726C155.998 16.5263 156.183 15.7876 156.183 14.9567V1.18182Z" fill="black"/>
<path d="M181.04 1.18182V23H177.056L167.564 9.26776H167.404V23H162.791V1.18182H166.839L176.257 14.9034H176.449V1.18182H181.04Z" fill="black"/>
<path d="M197.519 8.23438C197.37 7.71591 197.16 7.25781 196.89 6.86008C196.62 6.45526 196.29 6.11435 195.899 5.83736C195.516 5.55327 195.076 5.33665 194.578 5.1875C194.088 5.03835 193.545 4.96378 192.948 4.96378C191.833 4.96378 190.853 5.24077 190.008 5.79474C189.17 6.34872 188.517 7.15483 188.048 8.21307C187.579 9.2642 187.345 10.5497 187.345 12.0696C187.345 13.5895 187.576 14.8821 188.037 15.9474C188.499 17.0128 189.152 17.826 189.997 18.3871C190.843 18.9411 191.84 19.218 192.991 19.218C194.035 19.218 194.926 19.0334 195.665 18.6641C196.411 18.2876 196.979 17.7585 197.37 17.0767C197.767 16.3949 197.966 15.5888 197.966 14.6584L198.904 14.7969H193.279V11.3239H202.409V14.0724C202.409 15.9901 202.004 17.6378 201.194 19.0156C200.384 20.3864 199.269 21.4446 197.849 22.1903C196.429 22.929 194.802 23.2983 192.97 23.2983C190.924 23.2983 189.127 22.8473 187.579 21.9453C186.031 21.0362 184.823 19.7472 183.957 18.0781C183.098 16.402 182.668 14.4134 182.668 12.1122C182.668 10.3437 182.924 8.76705 183.435 7.3821C183.953 5.99006 184.678 4.81108 185.608 3.84517C186.539 2.87926 187.622 2.14418 188.857 1.63991C190.093 1.13565 191.432 0.883522 192.874 0.883522C194.11 0.883522 195.26 1.06463 196.326 1.42685C197.391 1.78196 198.335 2.28622 199.159 2.93963C199.99 3.59304 200.669 4.37074 201.194 5.27273C201.72 6.16761 202.057 7.15483 202.206 8.23438H197.519Z" fill="black"/>
<path d="M216.753 1.18182H221.312V16.3949C221.312 17.8011 220.996 19.0227 220.364 20.0597C219.739 21.0966 218.869 21.8956 217.754 22.4567C216.639 23.0178 215.343 23.2983 213.866 23.2983C212.552 23.2983 211.359 23.0675 210.286 22.6058C209.221 22.1371 208.376 21.4268 207.751 20.4751C207.126 19.5163 206.817 18.3125 206.824 16.8636H211.415C211.43 17.4389 211.547 17.9325 211.767 18.3445C211.994 18.7493 212.303 19.0618 212.694 19.282C213.092 19.495 213.56 19.6016 214.1 19.6016C214.668 19.6016 215.148 19.4808 215.538 19.2393C215.936 18.9908 216.238 18.6286 216.444 18.1527C216.65 17.6768 216.753 17.0909 216.753 16.3949V1.18182Z" fill="black"/>
<path d="M236.803 1.18182H241.416V15.3509C241.416 16.9418 241.036 18.3338 240.276 19.527C239.523 20.7202 238.468 21.6506 237.112 22.3182C235.755 22.9787 234.175 23.3089 232.371 23.3089C230.56 23.3089 228.976 22.9787 227.62 22.3182C226.263 21.6506 225.208 20.7202 224.456 19.527C223.703 18.3338 223.326 16.9418 223.326 15.3509V1.18182H227.939V14.9567C227.939 15.7876 228.12 16.5263 228.483 17.1726C228.852 17.8189 229.37 18.3267 230.038 18.696C230.706 19.0653 231.483 19.25 232.371 19.25C233.266 19.25 234.044 19.0653 234.704 18.696C235.372 18.3267 235.887 17.8189 236.249 17.1726C236.618 16.5263 236.803 15.7876 236.803 14.9567V1.18182Z" fill="black"/>
</svg>
