<svg width="63" height="18" viewBox="0 0 63 18" fill="none" xmlns="http://www.w3.org/2000/svg">
<path d="M12.2685 9.90371C12.2685 9.68088 12.4434 9.50756 12.6433 9.50756H12.9931C13.0181 9.50756 13.068 9.50756 13.093 9.50756C13.4178 9.40853 13.5178 9.30949 13.5928 8.98762C13.6177 8.96286 13.6177 8.91334 13.6177 8.88858V6.09078C13.6177 6.04127 13.6177 6.01651 13.5928 5.96699C13.5178 5.66988 13.4178 5.57084 13.093 5.4718C13.068 5.4718 13.0181 5.4718 12.9931 5.4718H12.6433C12.4434 5.4718 12.2685 5.27373 12.2685 5.07565V3.39202C12.2685 3.3425 12.2435 3.31774 12.2435 3.26822C12.1435 2.97111 12.0436 2.87208 11.7437 2.77304C11.6938 2.77304 11.6688 2.74828 11.6188 2.74828H11.294C11.0691 2.74828 10.8942 2.57496 10.8942 2.37689V2.03026C10.8942 2.0055 10.8942 1.95598 10.8692 1.93122C10.7693 1.58459 10.6943 1.51032 10.3195 1.41128H7.37107C7.02126 1.51032 6.92131 1.58459 6.82136 1.93122C6.82136 1.95598 6.79638 2.0055 6.79638 2.03026V5.07565C6.79638 5.27373 6.62147 5.4718 6.42158 5.4718H6.07176C6.04678 5.4718 5.9968 5.4718 5.97182 5.4718C5.64699 5.57084 5.54704 5.66988 5.4471 5.96699C5.4471 6.01651 5.4471 6.04127 5.4471 6.09078V9.11142C5.4471 9.33425 5.27219 9.50756 5.04731 9.50756H4.72248C4.67251 9.50756 4.64752 9.50757 4.59755 9.53232C4.27272 9.63136 4.19776 9.70564 4.09782 10.0275C4.07283 10.0523 4.07283 10.1018 4.07283 10.1513V11.8102C4.07283 12.033 3.89792 12.2063 3.67304 12.2063H3.34821C3.32323 12.2063 3.27325 12.2311 3.24827 12.2311C2.92344 12.3301 2.82349 12.4044 2.72355 12.7263C2.72355 12.7758 2.72355 12.8006 2.72355 12.8501V15.6479C2.72355 15.6726 2.72355 15.7221 2.72355 15.7469C2.82349 16.0688 2.92344 16.1678 3.24827 16.2421C3.27325 16.2668 3.32323 16.2668 3.34821 16.2668H10.2695C10.2945 16.2668 10.3445 16.2668 10.3695 16.2421C10.6943 16.1678 10.7942 16.0688 10.8692 15.7469C10.8942 15.7221 10.8942 15.6726 10.8942 15.6479V15.3012C10.8942 15.0784 11.0691 14.9051 11.294 14.9051H11.6188C11.6688 14.9051 11.6938 14.9051 11.7437 14.9051C12.0436 14.8061 12.1435 14.707 12.2435 14.4099C12.2435 14.3604 12.2685 14.3356 12.2685 14.2861V9.90371ZM14.992 9.11142C14.992 9.33425 14.8171 9.50756 14.5922 9.50756H14.2424C14.2174 9.50756 14.1674 9.50757 14.1425 9.53232C13.8176 9.63136 13.7427 9.70564 13.6427 10.0275C13.6177 10.0523 13.6177 10.1018 13.6177 10.1513V14.5337C13.6177 14.7318 13.4428 14.9051 13.218 14.9051H12.8931C12.8432 14.9051 12.8182 14.9298 12.7682 14.9298C12.4684 15.0289 12.3684 15.1032 12.2685 15.425C12.2685 15.4746 12.2685 15.4993 12.2685 15.5488V15.8707C12.2685 16.0935 12.0686 16.2668 11.8687 16.2668H11.4689C11.0941 16.3659 11.0191 16.4402 10.9192 16.7868C10.8942 16.8116 10.8942 16.8611 10.8942 16.8858V17.2325C10.8942 17.4305 10.7193 17.6039 10.4944 17.6039H3.12333C2.89845 17.6039 2.72355 17.4305 2.72355 17.2325V16.8858C2.72355 16.8611 2.72355 16.8116 2.69856 16.7868C2.59861 16.4402 2.49867 16.3659 2.14885 16.2668H1.92397C1.57416 16.3659 1.47421 16.4402 1.37427 16.7868C1.34928 16.8116 1.34928 16.8611 1.34928 16.8858V17.2325C1.34928 17.4305 1.17437 17.6039 0.949494 17.6039H0.3748C0.174907 17.6039 0 17.4305 0 17.2325V16.663C0 16.4402 0.174907 16.2668 0.3748 16.2668H0.724614C0.7496 16.2668 0.799574 16.2668 0.82456 16.2421C1.14939 16.1678 1.24933 16.0688 1.34928 15.7469C1.34928 15.7221 1.34928 15.6726 1.34928 15.6479V12.6025C1.34928 12.3796 1.52419 12.2063 1.74907 12.2063H2.07389C2.12387 12.2063 2.14885 12.2063 2.19883 12.2063C2.52365 12.1073 2.59861 12.0083 2.69856 11.6864C2.72355 11.6616 2.72355 11.6121 2.72355 11.5873V9.90371C2.72355 9.68088 2.89845 9.50756 3.12333 9.50756H3.44816C3.47315 9.50756 3.52312 9.50756 3.54811 9.50756C3.87293 9.40853 3.97288 9.30949 4.07283 8.98762C4.07283 8.96286 4.07283 8.91334 4.07283 8.88858V5.84319C4.07283 5.64512 4.24773 5.4718 4.47261 5.4718H4.82243C4.84741 5.4718 4.89739 5.44704 4.92238 5.44704C5.2472 5.348 5.32216 5.24897 5.42211 4.95186C5.4471 4.90234 5.4471 4.87758 5.4471 4.82806V2.03026C5.4471 2.0055 5.4471 1.95598 5.42211 1.93122C5.32216 1.58459 5.22222 1.51032 4.8724 1.41128H4.64752C4.29771 1.51032 4.19776 1.58459 4.09782 1.93122C4.07283 1.95598 4.07283 2.0055 4.07283 2.03026V2.37689C4.07283 2.57496 3.89792 2.74828 3.67304 2.74828H3.12333C2.89845 2.74828 2.72355 2.57496 2.72355 2.37689V1.80743C2.72355 1.58459 2.89845 1.41128 3.12333 1.41128H3.44816C3.47315 1.41128 3.52312 1.41128 3.54811 1.38652C3.87293 1.28748 3.97288 1.2132 4.07283 0.891335C4.07283 0.866574 4.07283 0.817056 4.07283 0.792297V0.445667C4.07283 0.222834 4.24773 0.0495179 4.47261 0.0495179H5.04731C5.27219 0.0495179 5.4471 0.222834 5.4471 0.445667V0.792297C5.4471 0.817056 5.4471 0.866574 5.4471 0.891335C5.54704 1.2132 5.64699 1.28748 5.97182 1.38652C5.9968 1.41128 6.04678 1.41128 6.07176 1.41128H6.17171C6.22168 1.41128 6.24667 1.41128 6.29664 1.38652C6.59648 1.28748 6.69643 1.2132 6.79638 0.891335C6.79638 0.866574 6.79638 0.817056 6.79638 0.792297V0.445667C6.79638 0.222834 6.97128 0.0495179 7.19616 0.0495179H10.4944C10.7193 0.0495179 10.8942 0.222834 10.8942 0.445667V0.792297C10.8942 0.817056 10.8942 0.866574 10.9192 0.891335C10.9941 1.2132 11.0941 1.28748 11.4189 1.38652C11.4439 1.41128 11.4939 1.41128 11.5189 1.41128H11.8687C12.0686 1.41128 12.2685 1.58459 12.2685 1.80743V2.1293C12.2685 2.17882 12.2685 2.20358 12.2685 2.2531C12.3684 2.55021 12.4684 2.64924 12.7682 2.74828C12.8182 2.74828 12.8432 2.74828 12.8931 2.74828H13.218C13.4428 2.74828 13.6177 2.94636 13.6177 3.14443V4.82806C13.6177 4.87758 13.6177 4.90234 13.6427 4.95186C13.7427 5.24897 13.8176 5.348 14.1425 5.44704C14.1674 5.44704 14.2174 5.4718 14.2424 5.4718H14.5922C14.8171 5.4718 14.992 5.64512 14.992 5.84319V9.11142Z" fill="white"/>
<path d="M23.2825 8.88858C23.2825 8.83907 23.2825 8.81431 23.2575 8.76479C23.1576 8.44292 23.0576 8.36864 22.7078 8.2696H18.4101C18.0353 8.36864 17.9354 8.44292 17.8354 8.76479C17.8354 8.81431 17.8354 8.83907 17.8354 8.88858V11.6864C17.8354 11.7111 17.8354 11.7607 17.8354 11.7854C17.9354 12.1073 18.0353 12.2063 18.3351 12.3054C18.3851 12.3054 18.4101 12.3054 18.4601 12.3054H22.6329C22.6828 12.3054 22.7078 12.3054 22.7578 12.3054C23.0826 12.2063 23.1576 12.1073 23.2575 11.7854C23.2825 11.7607 23.2825 11.7111 23.2825 11.6864V8.88858ZM23.2825 7.62586C23.2825 7.67538 23.2825 7.70014 23.2825 7.74966C23.3825 8.07153 23.4824 8.1458 23.8072 8.24484C23.8322 8.24484 23.8822 8.2696 23.9072 8.2696H24.232C24.4569 8.2696 24.6318 8.44292 24.6318 8.64099V11.9092C24.6318 12.132 24.4569 12.3054 24.232 12.3054H23.9072C23.8822 12.3054 23.8322 12.3054 23.8072 12.3301C23.4824 12.4292 23.3825 12.5034 23.2825 12.8253C23.2825 12.8748 23.2825 12.8996 23.2825 12.9491V13.271C23.2825 13.4938 23.1076 13.6671 22.8827 13.6671H18.2102C18.0103 13.6671 17.8354 13.4938 17.8354 13.271V12.9491C17.8354 12.8996 17.8104 12.8748 17.8104 12.8253C17.7105 12.5034 17.6105 12.4044 17.2357 12.3054C17.2607 12.3054 17.2607 12.3054 17.2607 12.3054H17.0358C16.686 12.4044 16.5861 12.5034 16.4861 12.8253C16.4611 12.8748 16.4611 12.8996 16.4611 12.9491V15.7469C16.4611 15.7717 16.4611 15.8212 16.4861 15.8459C16.5611 16.1678 16.661 16.2421 16.9859 16.3411C17.0109 16.3659 17.0608 16.3659 17.0858 16.3659H21.2836C21.3086 16.3659 21.3585 16.3659 21.3835 16.3411C21.7083 16.2421 21.8083 16.1678 21.9082 15.8459C21.9082 15.8212 21.9082 15.7717 21.9082 15.7469V15.4003C21.9082 15.1774 22.0831 15.0041 22.308 15.0041H22.8827C23.1076 15.0041 23.2825 15.1774 23.2825 15.4003V15.9697C23.2825 16.1926 23.1076 16.3659 22.8827 16.3659H22.5579C22.5079 16.3659 22.4829 16.3659 22.433 16.3906C22.1081 16.4649 22.0332 16.564 21.9332 16.8858C21.9082 16.9106 21.9082 16.9601 21.9082 16.9849V17.3315C21.9082 17.5296 21.7333 17.7029 21.5085 17.7029H16.8609C16.6361 17.7029 16.4611 17.5296 16.4611 17.3315V16.9849C16.4611 16.9601 16.4611 16.9106 16.4362 16.8858C16.3612 16.564 16.2612 16.4649 15.9364 16.3906C15.9114 16.3659 15.8615 16.3659 15.8365 16.3659H15.4867C15.2868 16.3659 15.1119 16.1926 15.1119 15.9697V12.7015C15.1119 12.4787 15.2868 12.3054 15.4867 12.3054H15.8365C15.8615 12.3054 15.9114 12.3054 15.9364 12.3054C16.2612 12.2063 16.3612 12.1073 16.4362 11.7854C16.4611 11.7607 16.4611 11.7111 16.4611 11.6864V8.64099C16.4611 8.44292 16.6361 8.2696 16.8609 8.2696H17.1858C17.2357 8.2696 17.2607 8.24484 17.3107 8.24484C17.6355 8.1458 17.7105 8.07153 17.8104 7.74966C17.8104 7.70014 17.8354 7.67538 17.8354 7.62586V7.30399C17.8354 7.08116 18.0103 6.90784 18.2102 6.90784H22.8827C23.1076 6.90784 23.2825 7.08116 23.2825 7.30399V7.62586Z" fill="white"/>
<path d="M32.3187 7.20495C32.3187 6.98212 32.4936 6.8088 32.6935 6.8088H33.2682C33.4931 6.8088 33.668 6.98212 33.668 7.20495V9.11142C33.668 9.33425 33.4931 9.50756 33.2682 9.50756H32.9434C32.8934 9.50756 32.8684 9.50757 32.8184 9.53232C32.5186 9.63136 32.4186 9.70564 32.3187 10.0275C32.3187 10.077 32.3187 10.1018 32.3187 10.1513V11.8102C32.3187 12.033 32.1188 12.2063 31.9189 12.2063H31.5691C31.5441 12.2063 31.4941 12.2311 31.4692 12.2311C31.1443 12.3301 31.0444 12.4044 30.9694 12.7263C30.9444 12.7758 30.9444 12.8006 30.9444 12.8501V14.5337C30.9444 14.7318 30.7695 14.9051 30.5446 14.9051H30.2198C30.1698 14.9051 30.1449 14.9298 30.0949 14.9298C29.795 15.0289 29.6951 15.1032 29.5952 15.425C29.5952 15.4746 29.5702 15.4993 29.5702 15.5488V15.8707C29.5702 16.0935 29.3953 16.2668 29.1954 16.2668H28.8456C28.8206 16.2668 28.7706 16.2668 28.7456 16.2916C28.4208 16.3659 28.3208 16.4649 28.2459 16.7868C28.2209 16.8116 28.2209 16.8611 28.2209 16.8858V17.2325C28.2209 17.4305 28.046 17.6039 27.8211 17.6039H27.2464C27.0215 17.6039 26.8466 17.4305 26.8466 17.2325V16.8858C26.8466 16.8611 26.8466 16.8116 26.8466 16.7868C26.7467 16.4649 26.6467 16.3659 26.3219 16.2916C26.2969 16.2668 26.2719 16.2668 26.222 16.2668H25.8971C25.6722 16.2668 25.4973 16.0935 25.4973 15.8707V12.6025C25.4973 12.3796 25.6722 12.2063 25.8971 12.2063H26.2719C26.6467 12.1073 26.7467 12.033 26.8466 11.6864C26.8466 11.6616 26.8466 11.6121 26.8466 11.5873V9.90371C26.8466 9.68088 26.6717 9.50756 26.4468 9.50756H25.8971C25.6722 9.50756 25.4973 9.33425 25.4973 9.11142V8.56671C25.4973 8.34388 25.6722 8.17056 25.8971 8.17056H26.2719C26.6467 8.07153 26.7467 7.97249 26.8466 7.65062C26.8466 7.6011 26.8466 7.57634 26.8466 7.52682V7.20495C26.8466 6.98212 27.0215 6.8088 27.2464 6.8088H27.8211C28.046 6.8088 28.2209 6.98212 28.2209 7.20495V11.8102C28.2209 12.033 28.046 12.2063 27.8211 12.2063H27.4963C27.4463 12.2063 27.4213 12.2311 27.3713 12.2311C27.0465 12.3301 26.9716 12.4044 26.8716 12.7263C26.8716 12.7758 26.8466 12.8006 26.8466 12.8501V15.6479C26.8466 15.6726 26.8716 15.7221 26.8716 15.7469C26.9716 16.0688 27.0465 16.1678 27.3713 16.2421C27.4213 16.2668 27.4463 16.2668 27.4963 16.2668H27.5962C27.6212 16.2668 27.6712 16.2668 27.6962 16.2421C28.021 16.1678 28.096 16.0688 28.1959 15.7469C28.2209 15.7221 28.2209 15.6726 28.2209 15.6479V15.3012C28.2209 15.0784 28.3958 14.9051 28.6207 14.9051H28.9455C28.9955 14.9051 29.0205 14.9051 29.0704 14.9051C29.3703 14.8061 29.4702 14.707 29.5702 14.4099C29.5702 14.3604 29.5702 14.3356 29.5702 14.2861V12.6025C29.5702 12.3796 29.7701 12.2063 29.97 12.2063H30.3198C30.3448 12.2063 30.3947 12.2063 30.4197 12.2063C30.7445 12.1073 30.8445 12.0083 30.9194 11.6864C30.9444 11.6616 30.9444 11.6121 30.9444 11.5873V9.90371C30.9444 9.68088 31.1193 9.50756 31.3442 9.50756H31.669C31.719 9.50756 31.744 9.50756 31.794 9.50756C32.0938 9.40853 32.1938 9.30949 32.2937 8.98762C32.2937 8.96286 32.3187 8.91334 32.3187 8.88858V7.20495Z" fill="white"/>
<path d="M42.7288 2.69876C42.5039 2.69876 42.329 2.52545 42.329 2.30261V1.98074C42.329 1.93122 42.329 1.90647 42.304 1.85695C42.2041 1.53508 42.1291 1.4608 41.8043 1.36176C41.7543 1.36176 41.7293 1.337 41.6793 1.337H40.2301C40.2051 1.337 40.1552 1.36176 40.1302 1.36176C39.8053 1.4608 39.7054 1.53508 39.6054 1.85695C39.6054 1.90647 39.6054 1.93122 39.6054 1.98074V2.30261C39.6054 2.52545 39.4305 2.69876 39.2057 2.69876H38.8558C38.8309 2.69876 38.7809 2.69876 38.7559 2.72352C38.4311 2.7978 38.3561 2.89684 38.2562 3.21871C38.2312 3.24347 38.2312 3.29299 38.2312 3.31774V7.4773C38.2312 7.50206 38.2312 7.55158 38.2562 7.57634C38.3561 7.89821 38.4311 7.99725 38.7559 8.07153C38.7809 8.09629 38.8309 8.09629 38.8558 8.09629H40.5549C40.7798 8.09629 40.9547 8.2696 40.9547 8.49243V9.0619C40.9547 9.28473 40.7798 9.45805 40.5549 9.45805H38.8558C38.8309 9.45805 38.7809 9.45805 38.7559 9.45805C38.4311 9.55708 38.3561 9.65612 38.2562 9.97799C38.2312 10.0028 38.2312 10.0275 38.2312 10.077V11.7607C38.2312 11.9835 38.0563 12.1568 37.8314 12.1568H37.5066C37.4566 12.1568 37.4316 12.1568 37.3816 12.1568C37.0818 12.2558 36.9818 12.3549 36.8819 12.6768C36.8819 12.7015 36.8819 12.751 36.8819 12.7758V17.1582C36.8819 17.381 36.707 17.5543 36.4821 17.5543H35.9074C35.6825 17.5543 35.5076 17.381 35.5076 17.1582V12.553C35.5076 12.3301 35.6825 12.1568 35.9074 12.1568H36.3072C36.3072 12.1568 36.3072 12.1568 36.2822 12.1568C36.657 12.0578 36.757 11.9587 36.8569 11.6369C36.8569 11.5873 36.8819 11.5626 36.8819 11.5131V9.85419C36.8819 9.63136 37.0568 9.45805 37.2567 9.45805H37.6065C37.6315 9.45805 37.6815 9.43329 37.7065 9.43329C38.0313 9.33425 38.1312 9.25997 38.2062 8.9381C38.2312 8.88858 38.2312 8.86382 38.2312 8.81431V8.71527C38.2312 8.69051 38.2312 8.64099 38.2062 8.61623C38.1312 8.29436 38.0313 8.22008 37.7065 8.12105C37.6815 8.09629 37.6315 8.09629 37.6065 8.09629H34.5331C34.3333 8.09629 34.1583 7.92297 34.1583 7.70014V7.13067C34.1583 6.9326 34.3333 6.75928 34.5331 6.75928H36.3072H36.2822C36.657 6.66025 36.757 6.56121 36.8569 6.23934C36.8569 6.18982 36.8819 6.16506 36.8819 6.11554V3.09491C36.8819 2.87208 37.0568 2.69876 37.2567 2.69876H37.6065C37.6315 2.69876 37.6815 2.69876 37.7065 2.674C38.0313 2.59973 38.1312 2.50069 38.2062 2.17882C38.2312 2.15406 38.2312 2.10454 38.2312 2.07978V1.73315C38.2312 1.51032 38.4061 1.337 38.631 1.337H38.9558C39.0058 1.337 39.0308 1.337 39.0807 1.337C39.4056 1.23796 39.4805 1.13893 39.5805 0.841815C39.5805 0.792297 39.6054 0.767538 39.6054 0.718019V0.396148C39.6054 0.173314 39.7803 0 40.0052 0H41.9292C42.1541 0 42.329 0.173314 42.329 0.396148V0.718019C42.329 0.767538 42.329 0.792297 42.329 0.841815C42.4289 1.13893 42.5289 1.23796 42.8537 1.337C42.8787 1.337 42.9287 1.337 42.9537 1.337H43.2785C43.5034 1.337 43.6783 1.51032 43.6783 1.73315V2.30261C43.6783 2.52545 43.5034 2.69876 43.2785 2.69876H42.7288Z" fill="white"/>
<path d="M42.9552 15.3012H42.6054C42.5804 15.3012 42.5304 15.3012 42.5055 15.326C42.1806 15.4003 42.0807 15.4993 42.0057 15.8212C41.9807 15.8459 41.9807 15.8955 41.9807 15.9202V17.6039C41.9807 17.8267 41.8058 18 41.581 18H41.0063C40.8064 18 40.6315 17.8267 40.6315 17.6039V15.6974C40.6315 15.4746 40.8064 15.3012 41.0063 15.3012H41.3561C41.3811 15.3012 41.431 15.3012 41.456 15.2765C41.7808 15.2022 41.8808 15.1032 41.9557 14.7813C41.9807 14.7565 41.9807 14.707 41.9807 14.6823V12.9986C41.9807 12.7758 42.1556 12.6025 42.3805 12.6025H42.7053C42.7553 12.6025 42.7803 12.6025 42.8303 12.5777C43.1551 12.4787 43.2301 12.4044 43.33 12.0825C43.33 12.0578 43.355 12.0083 43.355 11.9835V10.5227C43.355 10.4979 43.33 10.4484 43.33 10.4237C43.2301 10.1018 43.1551 10.0028 42.8303 9.90371C42.7803 9.90371 42.7553 9.90371 42.7053 9.90371H42.3805C42.1556 9.90371 41.9807 9.7304 41.9807 9.50756V8.9381C41.9807 8.71527 42.1556 8.54195 42.3805 8.54195H42.7803H42.7553C43.1301 8.44292 43.2301 8.36864 43.33 8.02201C43.33 7.99725 43.355 7.94773 43.355 7.92297V7.6011C43.355 7.37827 43.5299 7.20495 43.7298 7.20495H44.3045C44.5294 7.20495 44.7043 7.37827 44.7043 7.6011V12.2063C44.7043 12.4292 44.5294 12.6025 44.3045 12.6025H43.9797C43.9297 12.6025 43.9047 12.6025 43.8547 12.6272C43.5549 12.7015 43.4549 12.8006 43.355 13.1224C43.355 13.1472 43.355 13.1967 43.355 13.2215V14.9051C43.355 15.1279 43.1551 15.3012 42.9552 15.3012ZM44.3045 4.50619C44.5294 4.50619 44.7043 4.6795 44.7043 4.87758V5.44704C44.7043 5.66988 44.5294 5.84319 44.3045 5.84319H43.7298C43.5299 5.84319 43.355 5.66988 43.355 5.44704V4.87758C43.355 4.6795 43.5299 4.50619 43.7298 4.50619H44.3045Z" fill="white"/>
<path d="M53.971 8.2696H54.3458C54.5707 8.2696 54.7456 8.44292 54.7456 8.64099V9.21045C54.7456 9.43329 54.5707 9.6066 54.3458 9.6066H53.7961C53.5712 9.6066 53.3963 9.43329 53.3963 9.21045V8.88858C53.3963 8.83907 53.3963 8.81431 53.3713 8.76479C53.2714 8.46768 53.1964 8.36864 52.8716 8.2696C52.8466 8.2696 52.7966 8.2696 52.7717 8.2696H49.9232C49.8982 8.2696 49.8482 8.2696 49.8232 8.2696C49.4984 8.36864 49.4235 8.46768 49.3235 8.76479C49.2985 8.81431 49.2985 8.83907 49.2985 8.88858V11.9092C49.2985 12.132 49.1236 12.3054 48.8987 12.3054H48.5739C48.5239 12.3054 48.4989 12.3054 48.449 12.3301C48.1491 12.4292 48.0492 12.5034 47.9492 12.8253C47.9492 12.8501 47.9492 12.8996 47.9492 12.9491V14.608C47.9492 14.8308 47.7493 15.0041 47.5494 15.0041H47.1996C47.1747 15.0041 47.1247 15.0041 47.0997 15.0289C46.7749 15.1279 46.6749 15.2022 46.6 15.5241C46.575 15.5736 46.575 15.5983 46.575 15.6479V17.3315C46.575 17.5296 46.4001 17.7029 46.1752 17.7029H45.6005C45.4006 17.7029 45.2257 17.5296 45.2257 17.3315V15.4003C45.2257 15.1774 45.4006 15.0041 45.6005 15.0041H46.0003C46.3751 14.9051 46.45 14.8308 46.55 14.4842C46.575 14.4594 46.575 14.4099 46.575 14.3851V12.7015C46.575 12.4787 46.7499 12.3054 46.9748 12.3054H47.2996C47.3496 12.3054 47.3745 12.3054 47.4245 12.3054C47.7493 12.2063 47.8243 12.1073 47.9243 11.7854C47.9243 11.7607 47.9492 11.7111 47.9492 11.6864V8.88858C47.9492 8.83907 47.9243 8.81431 47.9243 8.76479C47.8243 8.46768 47.7493 8.36864 47.4245 8.2696C47.3745 8.2696 47.3496 8.2696 47.2996 8.2696H46.9748C46.7499 8.2696 46.575 8.07153 46.575 7.87345V7.30399C46.575 7.08116 46.7499 6.90784 46.9748 6.90784H47.5494C47.7493 6.90784 47.9492 7.08116 47.9492 7.30399V7.62586C47.9492 7.67538 47.9492 7.70014 47.9492 7.74966C48.0492 8.07153 48.1491 8.1458 48.5239 8.2696H48.7238C49.0986 8.1458 49.1986 8.07153 49.2735 7.74966C49.2985 7.70014 49.2985 7.67538 49.2985 7.62586V7.30399C49.2985 7.08116 49.4734 6.90784 49.6983 6.90784H52.9965C53.2214 6.90784 53.3963 7.08116 53.3963 7.30399V7.62586C53.3963 7.67538 53.3963 7.70014 53.3963 7.74966C53.4963 8.07153 53.5962 8.1458 53.971 8.2696Z" fill="white"/>
<path d="M61.6507 8.88858C61.6507 8.83907 61.6507 8.81431 61.6257 8.76479C61.5258 8.44292 61.4258 8.36864 61.076 8.2696H56.7783C56.4035 8.36864 56.3036 8.44292 56.2036 8.76479C56.2036 8.81431 56.2036 8.83907 56.2036 8.88858V11.9092C56.2036 12.132 56.0287 12.3054 55.8038 12.3054H55.404C55.0542 12.4044 54.9543 12.5034 54.8543 12.8253C54.8294 12.8748 54.8294 12.8996 54.8294 12.9491V15.7221C54.8294 15.7717 54.8294 15.8212 54.8543 15.8459C54.9543 16.1678 55.0542 16.2668 55.404 16.3659H59.7018C60.0766 16.2668 60.1765 16.1678 60.2765 15.8459C60.2765 15.8212 60.2765 15.7717 60.2765 15.7221V12.7015C60.2765 12.4787 60.4514 12.3054 60.6762 12.3054H61.0261C61.051 12.3054 61.101 12.3054 61.126 12.3054C61.4508 12.2063 61.5258 12.1073 61.6257 11.7854C61.6507 11.7607 61.6507 11.7111 61.6507 11.6864V8.88858ZM61.6507 7.62586C61.6507 7.67538 61.6507 7.70014 61.6507 7.74966C61.7507 8.04677 61.8506 8.1458 62.1754 8.24484C62.2004 8.24484 62.2504 8.2696 62.2754 8.2696H62.6002C62.8251 8.2696 63 8.44292 63 8.64099V11.9092C63 12.132 62.8251 12.3054 62.6002 12.3054H62.2254C61.8506 12.4044 61.7507 12.5034 61.6507 12.8253C61.6507 12.8748 61.6507 12.8996 61.6507 12.9491V15.9697C61.6507 16.1926 61.4758 16.3659 61.2509 16.3659H60.9261C60.8761 16.3659 60.8262 16.3659 60.8012 16.3659C60.4763 16.4649 60.4014 16.564 60.3014 16.8858C60.2765 16.9106 60.2765 16.9601 60.2765 16.9849V17.3315C60.2765 17.5296 60.1015 17.7029 59.8767 17.7029H55.2291C55.0043 17.7029 54.8294 17.5296 54.8294 17.3315V16.9849C54.8294 16.9601 54.8294 16.9106 54.8044 16.8858C54.7294 16.564 54.6295 16.4649 54.3046 16.3659C54.2796 16.3659 54.2297 16.3659 54.2047 16.3659H53.8549C53.655 16.3659 53.4801 16.1926 53.4801 15.9697V12.7015C53.4801 12.4787 53.655 12.3054 53.8549 12.3054H54.2047C54.2297 12.3054 54.2796 12.3054 54.3046 12.3054C54.6295 12.2063 54.7294 12.1073 54.8044 11.7854C54.8294 11.7607 54.8294 11.7111 54.8294 11.6864V8.64099C54.8294 8.44292 55.0043 8.2696 55.2291 8.2696H55.554C55.6039 8.2696 55.6289 8.24484 55.6789 8.24484C56.0037 8.1458 56.0787 8.04677 56.1786 7.74966C56.1786 7.70014 56.2036 7.67538 56.2036 7.62586V7.30399C56.2036 7.08116 56.3785 6.90784 56.5784 6.90784H61.2509C61.4758 6.90784 61.6507 7.08116 61.6507 7.30399V7.62586Z" fill="white"/>
</svg>
