<svg width="244" height="30" viewBox="0 0 244 30" fill="none" xmlns="http://www.w3.org/2000/svg">
<path d="M0 15C0 21.6274 5.37258 27 12 27V15C12 21.6274 17.3726 27 24 27V15C24 21.6274 29.3726 27 36 27C42.6274 27 48 21.6274 48 15C48 8.37258 42.6274 3 36 3C29.3726 3 24 8.37258 24 15V3C17.3726 3 12 8.37258 12 15V3C5.37258 3 0 8.37258 0 15Z" fill="white"/>
<path d="M77.147 11.8203H72.4808C72.3956 11.2166 72.2216 10.6804 71.9588 10.2116C71.696 9.73579 71.3587 9.33097 70.9467 8.99716C70.5348 8.66335 70.0589 8.40767 69.5192 8.23011C68.9865 8.05256 68.4077 7.96378 67.7827 7.96378C66.6534 7.96378 65.6697 8.24432 64.8317 8.8054C63.9936 9.35937 63.3438 10.169 62.8821 11.2344C62.4205 12.2926 62.1896 13.5781 62.1896 15.0909C62.1896 16.6463 62.4205 17.9531 62.8821 19.0114C63.3509 20.0696 64.0043 20.8686 64.8423 21.4084C65.6804 21.9482 66.6499 22.218 67.7507 22.218C68.3686 22.218 68.9403 22.1364 69.4659 21.973C69.9986 21.8097 70.4709 21.5717 70.8828 21.2592C71.2947 20.9396 71.6357 20.5526 71.9055 20.098C72.1825 19.6435 72.3743 19.125 72.4808 18.5426L77.147 18.5639C77.0263 19.5653 76.7244 20.5312 76.2415 21.4616C75.7656 22.3849 75.1229 23.2124 74.3132 23.9439C73.5107 24.6683 72.5518 25.2436 71.4368 25.6697C70.3288 26.0888 69.0753 26.2983 67.6761 26.2983C65.7301 26.2983 63.9901 25.858 62.456 24.9773C60.929 24.0966 59.7216 22.8217 58.8338 21.1527C57.9531 19.4837 57.5128 17.4631 57.5128 15.0909C57.5128 12.7116 57.9602 10.6875 58.8551 9.01847C59.75 7.34943 60.9645 6.07812 62.4986 5.20455C64.0327 4.32386 65.7585 3.88352 67.6761 3.88352C68.9403 3.88352 70.1122 4.06108 71.1918 4.41619C72.2784 4.77131 73.2408 5.28977 74.0788 5.97159C74.9169 6.64631 75.5987 7.47372 76.1243 8.45383C76.657 9.43395 76.9979 10.5561 77.147 11.8203ZM78.6549 26V4.18182H83.2678V13.1839H92.6322V4.18182H97.2344V26H92.6322V16.9872H83.2678V26H78.6549ZM119.287 15.0909C119.287 17.4702 118.836 19.4943 117.934 21.1634C117.04 22.8324 115.818 24.1072 114.27 24.9879C112.728 25.8615 110.996 26.2983 109.071 26.2983C107.132 26.2983 105.392 25.858 103.851 24.9773C102.309 24.0966 101.091 22.8217 100.197 21.1527C99.3016 19.4837 98.8542 17.4631 98.8542 15.0909C98.8542 12.7116 99.3016 10.6875 100.197 9.01847C101.091 7.34943 102.309 6.07812 103.851 5.20455C105.392 4.32386 107.132 3.88352 109.071 3.88352C110.996 3.88352 112.728 4.32386 114.27 5.20455C115.818 6.07812 117.04 7.34943 117.934 9.01847C118.836 10.6875 119.287 12.7116 119.287 15.0909ZM114.611 15.0909C114.611 13.5497 114.38 12.25 113.918 11.1918C113.464 10.1335 112.821 9.33097 111.99 8.78409C111.159 8.23722 110.186 7.96378 109.071 7.96378C107.956 7.96378 106.983 8.23722 106.152 8.78409C105.321 9.33097 104.675 10.1335 104.213 11.1918C103.758 12.25 103.531 13.5497 103.531 15.0909C103.531 16.6321 103.758 17.9318 104.213 18.9901C104.675 20.0483 105.321 20.8509 106.152 21.3977C106.983 21.9446 107.956 22.218 109.071 22.218C110.186 22.218 111.159 21.9446 111.99 21.3977C112.821 20.8509 113.464 20.0483 113.918 18.9901C114.38 17.9318 114.611 16.6321 114.611 15.0909ZM136.684 10.4567C136.599 9.5973 136.233 8.92969 135.587 8.45383C134.94 7.97798 134.063 7.74006 132.955 7.74006C132.202 7.74006 131.567 7.84659 131.048 8.05966C130.53 8.26562 130.132 8.55327 129.855 8.92258C129.585 9.2919 129.45 9.71094 129.45 10.1797C129.436 10.5703 129.518 10.9112 129.695 11.2024C129.88 11.4936 130.132 11.7457 130.452 11.9588C130.771 12.1648 131.14 12.3459 131.56 12.5021C131.979 12.6513 132.426 12.7791 132.902 12.8857L134.862 13.3544C135.814 13.5675 136.687 13.8516 137.483 14.2067C138.278 14.5618 138.967 14.9986 139.55 15.517C140.132 16.0355 140.583 16.6463 140.903 17.3494C141.229 18.0526 141.396 18.8587 141.403 19.7678C141.396 21.103 141.055 22.2607 140.381 23.2408C139.713 24.2138 138.747 24.9702 137.483 25.5099C136.226 26.0426 134.709 26.3089 132.934 26.3089C131.172 26.3089 129.638 26.0391 128.332 25.4993C127.032 24.9595 126.016 24.1605 125.285 23.1023C124.56 22.0369 124.18 20.7195 124.145 19.1499H128.609C128.658 19.8814 128.868 20.4922 129.237 20.9822C129.613 21.4652 130.114 21.831 130.739 22.0795C131.371 22.321 132.085 22.4418 132.881 22.4418C133.662 22.4418 134.34 22.3281 134.915 22.1009C135.498 21.8736 135.949 21.5575 136.268 21.1527C136.588 20.7479 136.748 20.2827 136.748 19.7571C136.748 19.267 136.602 18.8551 136.311 18.5213C136.027 18.1875 135.608 17.9034 135.054 17.669C134.507 17.4347 133.836 17.2216 133.04 17.0298L130.665 16.4332C128.825 15.9858 127.373 15.2862 126.307 14.3345C125.242 13.3828 124.713 12.1009 124.72 10.4886C124.713 9.16761 125.064 8.01349 125.775 7.02628C126.492 6.03906 127.476 5.26847 128.726 4.71449C129.976 4.16051 131.396 3.88352 132.987 3.88352C134.606 3.88352 136.02 4.16051 137.227 4.71449C138.442 5.26847 139.386 6.03906 140.061 7.02628C140.736 8.01349 141.084 9.15696 141.105 10.4567H136.684ZM156.183 4.18182H160.796V18.3509C160.796 19.9418 160.416 21.3338 159.656 22.527C158.903 23.7202 157.848 24.6506 156.492 25.3182C155.135 25.9787 153.555 26.3089 151.751 26.3089C149.94 26.3089 148.356 25.9787 146.999 25.3182C145.643 24.6506 144.588 23.7202 143.835 22.527C143.082 21.3338 142.706 19.9418 142.706 18.3509V4.18182H147.319V17.9567C147.319 18.7876 147.5 19.5263 147.862 20.1726C148.232 20.8189 148.75 21.3267 149.418 21.696C150.085 22.0653 150.863 22.25 151.751 22.25C152.646 22.25 153.423 22.0653 154.084 21.696C154.752 21.3267 155.266 20.8189 155.629 20.1726C155.998 19.5263 156.183 18.7876 156.183 17.9567V4.18182ZM181.04 4.18182V26H177.056L167.564 12.2678H167.404V26H162.791V4.18182H166.839L176.257 17.9034H176.449V4.18182H181.04ZM197.519 11.2344C197.37 10.7159 197.16 10.2578 196.89 9.86008C196.62 9.45526 196.29 9.11435 195.899 8.83736C195.516 8.55327 195.076 8.33665 194.578 8.1875C194.088 8.03835 193.545 7.96378 192.948 7.96378C191.833 7.96378 190.853 8.24077 190.008 8.79474C189.17 9.34872 188.517 10.1548 188.048 11.2131C187.579 12.2642 187.345 13.5497 187.345 15.0696C187.345 16.5895 187.576 17.8821 188.037 18.9474C188.499 20.0128 189.152 20.826 189.997 21.3871C190.843 21.9411 191.84 22.218 192.991 22.218C194.035 22.218 194.926 22.0334 195.665 21.6641C196.411 21.2876 196.979 20.7585 197.37 20.0767C197.767 19.3949 197.966 18.5888 197.966 17.6584L198.904 17.7969H193.279V14.3239H202.409V17.0724C202.409 18.9901 202.004 20.6378 201.194 22.0156C200.384 23.3864 199.269 24.4446 197.849 25.1903C196.429 25.929 194.802 26.2983 192.97 26.2983C190.924 26.2983 189.127 25.8473 187.579 24.9453C186.031 24.0362 184.823 22.7472 183.957 21.0781C183.098 19.402 182.668 17.4134 182.668 15.1122C182.668 13.3437 182.924 11.767 183.435 10.3821C183.953 8.99006 184.678 7.81108 185.608 6.84517C186.539 5.87926 187.622 5.14418 188.857 4.63991C190.093 4.13565 191.432 3.88352 192.874 3.88352C194.11 3.88352 195.26 4.06463 196.326 4.42685C197.391 4.78196 198.335 5.28622 199.159 5.93963C199.99 6.59304 200.669 7.37074 201.194 8.27273C201.72 9.16761 202.057 10.1548 202.206 11.2344H197.519ZM216.753 4.18182H221.312V19.3949C221.312 20.8011 220.996 22.0227 220.364 23.0597C219.739 24.0966 218.869 24.8956 217.754 25.4567C216.639 26.0178 215.343 26.2983 213.866 26.2983C212.552 26.2983 211.359 26.0675 210.286 25.6058C209.221 25.1371 208.376 24.4268 207.751 23.4751C207.126 22.5163 206.817 21.3125 206.824 19.8636H211.415C211.43 20.4389 211.547 20.9325 211.767 21.3445C211.994 21.7493 212.303 22.0618 212.694 22.282C213.092 22.495 213.56 22.6016 214.1 22.6016C214.668 22.6016 215.148 22.4808 215.538 22.2393C215.936 21.9908 216.238 21.6286 216.444 21.1527C216.65 20.6768 216.753 20.0909 216.753 19.3949V4.18182ZM236.803 4.18182H241.416V18.3509C241.416 19.9418 241.036 21.3338 240.276 22.527C239.523 23.7202 238.468 24.6506 237.112 25.3182C235.755 25.9787 234.175 26.3089 232.371 26.3089C230.56 26.3089 228.976 25.9787 227.62 25.3182C226.263 24.6506 225.208 23.7202 224.456 22.527C223.703 21.3338 223.326 19.9418 223.326 18.3509V4.18182H227.939V17.9567C227.939 18.7876 228.12 19.5263 228.483 20.1726C228.852 20.8189 229.37 21.3267 230.038 21.696C230.706 22.0653 231.483 22.25 232.371 22.25C233.266 22.25 234.044 22.0653 234.704 21.696C235.372 21.3267 235.887 20.8189 236.249 20.1726C236.618 19.5263 236.803 18.7876 236.803 17.9567V4.18182Z" fill="white"/>
</svg>
