<svg width="27" height="17" viewBox="0 0 27 17" fill="none" xmlns="http://www.w3.org/2000/svg">
<path d="M10 17C12.2325 17 14.4431 16.5603 16.5056 15.706C18.5682 14.8516 20.4422 13.5994 22.0208 12.0208C23.5994 10.4422 24.8516 8.56815 25.706 6.50562C26.5603 4.44308 27 2.23247 27 0H22.9155C22.9155 1.69609 22.5815 3.37557 21.9324 4.94256C21.2833 6.50954 20.332 7.93334 19.1327 9.13265C17.9333 10.332 16.5095 11.2833 14.9426 11.9324C13.3756 12.5815 11.6961 12.9155 10 12.9155V17Z" fill="white"/>
<path d="M0 17C2.23247 17 4.44308 16.5603 6.50562 15.706C8.56815 14.8516 10.4422 13.5994 12.0208 12.0208C13.5994 10.4422 14.8516 8.56815 15.706 6.50562C16.5603 4.44308 17 2.23247 17 0H12.9702C12.9702 1.70327 12.6347 3.38986 11.9829 4.96347C11.3311 6.53708 10.3757 7.9669 9.1713 9.1713C7.9669 10.3757 6.53708 11.3311 4.96347 11.9829C3.38986 12.6347 1.70327 12.9702 1.76149e-07 12.9702L0 17Z" fill="white"/>
<path d="M7.43094e-07 13H11V17H0L7.43094e-07 13Z" fill="white"/>
</svg>
