<svg width="336" height="36" viewBox="0 0 336 36" fill="none" xmlns="http://www.w3.org/2000/svg">
<g filter="url(#filter0_i_455_41)">
<path d="M20.5867 17.9982C20.2235 17.9982 19.8889 18.1951 19.7125 18.5126L10.8243 34.5144C10.4541 35.181 10.936 36 11.6985 36H29.4124C29.7756 36 30.1103 35.8031 30.2866 35.4856L39.1748 19.4837C39.545 18.8172 39.0631 17.9982 38.3006 17.9982H20.5867Z" fill="white"/>
</g>
<g filter="url(#filter1_i_455_41)">
<path d="M10.5875 0C10.2244 0 9.88973 0.19689 9.71336 0.514352L0.825371 16.5125C0.455071 17.1791 0.937039 17.9982 1.69953 17.9982H19.4099C19.773 17.9982 20.1076 17.8013 20.284 17.484L29.1751 1.48578C29.5456 0.819244 29.0636 0 28.3011 0H10.5875Z" fill="white"/>
</g>
<path d="M77.9727 5.79297H80.4141V10.6758H75.5312V8.23438H73.0898V5.79297H63.3242V8.23438H60.8828V13.1172H63.3242V15.5586H75.5312V18H77.9727V20.4414H80.4141V30.207H77.9727V32.6484H75.5312V35.0898H60.8828V32.6484H58.4414V30.207H56V25.3242H60.8828V27.7656H63.3242V30.207H73.0898V27.7656H75.5312V22.8828H73.0898V20.4414H60.8828V18H58.4414V15.5586H56V5.79297H58.4414V3.35156H60.8828V0.910156H75.5312V3.35156H77.9727V5.79297Z" fill="white"/>
<path d="M86.7383 30.207H84.2969V0.910156H89.1797V27.7656H91.6211V30.207H101.387V27.7656H103.828V0.910156H108.711V30.207H106.27V32.6484H103.828V35.0898H89.1797V32.6484H86.7383V30.207Z" fill="white"/>
<path d="M117.477 15.5586V35.0898H112.594V0.910156H117.477V8.23438H119.918V10.6758H122.359V13.1172H124.801V15.5586H127.242V18H129.684V20.4414H132.125V0.910156H137.008V35.0898H132.125V27.7656H129.684V25.3242H127.242V22.8828H124.801V20.4414H122.359V18H119.918V15.5586H117.477Z" fill="white"/>
<path d="M162.863 5.79297H165.305V10.6758H160.422V8.23438H157.98V5.79297H148.215V8.23438H145.773V27.7656H148.215V30.207H157.98V27.7656H160.422V20.4414H153.098V15.5586H165.305V30.207H162.863V32.6484H160.422V35.0898H145.773V32.6484H143.332V30.207H140.891V5.79297H143.332V3.35156H145.773V0.910156H160.422V3.35156H162.863V5.79297Z" fill="white"/>
<path d="M171.629 30.207H169.188V25.3242H174.07V27.7656H176.512V30.207H181.395V27.7656H183.836V5.79297H178.953V0.910156H193.602V5.79297H188.719V30.207H186.277V32.6484H183.836V35.0898H174.07V32.6484H171.629V30.207Z" fill="white"/>
<path d="M199.926 30.207H197.484V0.910156H202.367V27.7656H204.809V30.207H214.574V27.7656H217.016V0.910156H221.898V30.207H219.457V32.6484H217.016V35.0898H202.367V32.6484H199.926V30.207Z" fill="white"/>
<path d="M261.402 30.207H271.168V27.7656H273.609V25.3242H278.492V30.207H276.051V32.6484H273.609V35.0898H258.961V32.6484H256.52V30.207H254.078V5.79297H256.52V3.35156H258.961V0.910156H273.609V3.35156H276.051V5.79297H278.492V10.6758H273.609V8.23438H271.168V5.79297H261.402V8.23438H258.961V27.7656H261.402V30.207Z" fill="white"/>
<path d="M287.258 20.4414V35.0898H282.375V0.910156H287.258V15.5586H301.906V0.910156H306.789V35.0898H301.906V20.4414H287.258Z" fill="white"/>
<path d="M327.762 5.79297H317.996V8.23438H315.555V27.7656H317.996V30.207H327.762V27.7656H330.203V8.23438H327.762V5.79297ZM315.555 3.35156V0.910156H330.203V3.35156H332.645V5.79297H335.086V30.207H332.645V32.6484H330.203V35.0898H315.555V32.6484H313.113V30.207H310.672V5.79297H313.113V3.35156H315.555Z" fill="white"/>
<defs>
<filter id="filter0_i_455_41" x="10.697" y="17.9982" width="28.605" height="22.0018" filterUnits="userSpaceOnUse" color-interpolation-filters="sRGB">
<feFlood flood-opacity="0" result="BackgroundImageFix"/>
<feBlend mode="normal" in="SourceGraphic" in2="BackgroundImageFix" result="shape"/>
<feColorMatrix in="SourceAlpha" type="matrix" values="0 0 0 0 0 0 0 0 0 0 0 0 0 0 0 0 0 0 127 0" result="hardAlpha"/>
<feOffset dy="4"/>
<feGaussianBlur stdDeviation="2"/>
<feComposite in2="hardAlpha" operator="arithmetic" k2="-1" k3="1"/>
<feColorMatrix type="matrix" values="0 0 0 0 1 0 0 0 0 1 0 0 0 0 1 0 0 0 0.12 0"/>
<feBlend mode="normal" in2="shape" result="effect1_innerShadow_455_41"/>
</filter>
<filter id="filter1_i_455_41" x="0.69809" y="0" width="28.6044" height="21.9982" filterUnits="userSpaceOnUse" color-interpolation-filters="sRGB">
<feFlood flood-opacity="0" result="BackgroundImageFix"/>
<feBlend mode="normal" in="SourceGraphic" in2="BackgroundImageFix" result="shape"/>
<feColorMatrix in="SourceAlpha" type="matrix" values="0 0 0 0 0 0 0 0 0 0 0 0 0 0 0 0 0 0 127 0" result="hardAlpha"/>
<feOffset dy="4"/>
<feGaussianBlur stdDeviation="2"/>
<feComposite in2="hardAlpha" operator="arithmetic" k2="-1" k3="1"/>
<feColorMatrix type="matrix" values="0 0 0 0 1 0 0 0 0 1 0 0 0 0 1 0 0 0 0.12 0"/>
<feBlend mode="normal" in2="shape" result="effect1_innerShadow_455_41"/>
</filter>
</defs>
</svg>
