<svg width="400" height="400" xmlns="http://www.w3.org/2000/svg">
  <g transform="translate(200,200)">
    <!-- 선의 수와 선의 길이, 간격을 조절하세요. -->
    <!-- 여기서는 36개의 선을 10도 간격으로 그립니다. -->
    <g transform="rotate(0)">
      <line x1="0" y1="-85" x2="0" y2="-170" stroke="black" stroke-width="20"/>
    </g>
    <g transform="rotate(30)">
      <line x1="0" y1="-85" x2="0" y2="-170" stroke="black" stroke-width="20"/>
    </g>
    <g transform="rotate(60)">
      <line x1="0" y1="-85" x2="0" y2="-170" stroke="black" stroke-width="20"/>
    </g>
     <g transform="rotate(90)">
      <line x1="0" y1="-85" x2="0" y2="-170" stroke="black" stroke-width="20"/>
    </g>
    <g transform="rotate(120)">
      <line x1="0" y1="-85" x2="0" y2="-170" stroke="black" stroke-width="20"/>
    </g>
    <g transform="rotate(150)">
      <line x1="0" y1="-85" x2="0" y2="-170" stroke="black" stroke-width="20"/>
    </g>
    <g transform="rotate(180)">
      <line x1="0" y1="-85" x2="0" y2="-170" stroke="black" stroke-width="20"/>
    </g>
     <g transform="rotate(210)">
      <line x1="0" y1="-85" x2="0" y2="-170" stroke="black" stroke-width="20"/>
    </g>
    <g transform="rotate(240)">
      <line x1="0" y1="-85" x2="0" y2="-170" stroke="black" stroke-width="20"/>
    </g>
    <g transform="rotate(270)">
      <line x1="0" y1="-85" x2="0" y2="-170" stroke="black" stroke-width="20"/>
    </g>
    <g transform="rotate(210)">
      <line x1="0" y1="-85" x2="0" y2="-170" stroke="black" stroke-width="20"/>
    </g>
    <g transform="rotate(300)">
      <line x1="0" y1="-85" x2="0" y2="-170" stroke="black" stroke-width="20"/>
    </g>
    <g transform="rotate(330)">
      <line x1="0" y1="-85" x2="0" y2="-170" stroke="black" stroke-width="20"/>
    </g>
    <!-- 이하 동일한 방식으로 필요한 만큼의 선을 추가합니다. -->
    <!-- 각도가 적당히 설정되어야 균형있게 그려집니다. -->
    <!-- 선의 길이와 간격을 조절하여 원하는 형태로 만드세요. -->
  </g>
</svg>
