<svg width="1500.606" height="151.671" viewBox="0 0 1500.606 151.671" xmlns="http://www.w3.org/2000/svg"><g id="svgGroup" stroke-linecap="round" fill-rule="evenodd" font-size="9pt" stroke="#000" stroke-width="0.25mm" fill="#000" style="stroke:#000;stroke-width:0.25mm;fill:#000"><path d="M 63.656 116.146 L 44.661 116.146 L 44.661 35.671 L 60.176 35.671 L 61.771 46.691 L 62.061 46.691 A 64.526 64.526 0 0 1 72.485 37.969 A 60.109 60.109 0 0 1 73.226 37.483 A 24.088 24.088 0 0 1 84.961 33.701 A 29.504 29.504 0 0 1 86.856 33.641 A 33.821 33.821 0 0 1 92.517 34.086 Q 95.644 34.618 98.173 35.783 A 17.398 17.398 0 0 1 100.993 37.411 A 22.205 22.205 0 0 1 107.504 44.778 A 28.252 28.252 0 0 1 109.041 47.996 A 75.333 75.333 0 0 1 116.46 41.148 A 63.297 63.297 0 0 1 121.076 37.773 Q 127.311 33.641 134.996 33.641 A 29.941 29.941 0 0 1 142.236 34.462 A 19.226 19.226 0 0 1 153.628 42.051 Q 158.251 48.512 159.323 58.996 A 65.895 65.895 0 0 1 159.646 65.686 L 159.646 116.146 L 140.796 116.146 L 140.796 68.151 A 53.502 53.502 0 0 0 140.61 63.52 Q 140.207 58.899 138.929 56.028 A 10.504 10.504 0 0 0 137.823 54.086 A 9.497 9.497 0 0 0 132.291 50.463 Q 130.672 50.053 128.731 50.027 A 19.724 19.724 0 0 0 128.471 50.026 A 13.052 13.052 0 0 0 124.363 50.721 Q 122.752 51.254 121.081 52.193 A 23.259 23.259 0 0 0 120.568 52.491 Q 117.444 54.354 113.948 57.625 A 67.032 67.032 0 0 0 111.651 59.886 L 111.651 116.146 L 92.656 116.146 L 92.656 68.151 A 53.502 53.502 0 0 0 92.47 63.52 Q 92.067 58.899 90.789 56.028 A 10.504 10.504 0 0 0 89.683 54.086 A 9.497 9.497 0 0 0 84.151 50.463 Q 82.532 50.053 80.591 50.027 A 19.724 19.724 0 0 0 80.331 50.026 A 12.385 12.385 0 0 0 76.805 50.567 Q 75.317 51.008 73.744 51.809 A 23.924 23.924 0 0 0 72.501 52.491 Q 68.296 54.956 63.656 59.886 L 63.656 116.146 Z M 273.471 113.681 L 273.471 112.956 A 17.867 17.867 0 0 1 268.489 107.916 A 20.476 20.476 0 0 1 268.323 107.663 A 12.624 12.624 0 0 1 266.652 103.596 Q 266.275 101.941 266.227 100.024 A 22.467 22.467 0 0 1 266.221 99.471 Q 266.221 94.831 268.903 90.843 Q 271.586 86.856 275.211 84.536 L 275.211 83.956 A 26.86 26.86 0 0 1 270.784 79.668 A 36.561 36.561 0 0 1 267.671 75.256 A 23.194 23.194 0 0 1 264.434 65.036 A 28.638 28.638 0 0 1 264.336 62.641 A 31.93 31.93 0 0 1 265.227 54.922 A 24.563 24.563 0 0 1 268.831 46.836 Q 273.326 40.311 280.576 36.976 Q 287.826 33.641 296.091 33.641 A 39.602 39.602 0 0 1 299.985 33.824 A 31.297 31.297 0 0 1 302.761 34.221 A 39.262 39.262 0 0 1 305.456 34.828 Q 306.713 35.161 307.814 35.556 A 23.886 23.886 0 0 1 308.126 35.671 L 336.981 35.671 L 336.981 49.736 L 322.481 49.736 A 16.705 16.705 0 0 1 324.299 52.528 Q 325.019 53.902 325.596 55.529 A 35.46 35.46 0 0 1 325.598 55.536 Q 326.831 59.016 326.831 63.221 A 32.037 32.037 0 0 1 326.067 70.387 A 23.766 23.766 0 0 1 322.771 78.228 Q 318.711 84.391 311.678 87.508 Q 304.646 90.626 296.091 90.626 Q 293.807 90.626 291.031 90.134 A 40.044 40.044 0 0 1 290.943 90.118 Q 288.116 89.611 285.361 88.596 A 14.113 14.113 0 0 0 283.317 90.675 A 12.264 12.264 0 0 0 282.533 91.786 Q 281.59 93.294 281.465 95.566 A 12.973 12.973 0 0 0 281.446 96.281 A 5.82 5.82 0 0 0 283.458 100.786 A 8.109 8.109 0 0 0 284.273 101.428 Q 287.101 103.386 294.496 103.386 L 308.851 103.386 A 70.49 70.49 0 0 1 316.773 103.801 Q 325.444 104.785 330.746 108.098 A 15.466 15.466 0 0 1 337.974 119.246 A 24.587 24.587 0 0 1 338.286 123.251 Q 338.286 131.226 333.066 137.678 Q 327.846 144.131 318.131 147.901 Q 308.728 151.549 296.202 151.667 A 89.243 89.243 0 0 1 295.366 151.671 Q 285.796 151.671 278.183 149.351 A 33.341 33.341 0 0 1 272.536 147.083 Q 268.803 145.146 266.221 142.391 A 15.956 15.956 0 0 1 261.924 132.311 A 21.1 21.1 0 0 1 261.871 130.791 Q 261.871 125.716 264.843 121.293 A 21.888 21.888 0 0 1 269.177 116.591 A 29.973 29.973 0 0 1 273.471 113.681 Z M 1428.251 147.466 L 1431.876 132.821 Q 1432.673 133.02 1433.642 133.288 A 111.919 111.919 0 0 1 1434.558 133.546 Q 1436.081 133.981 1437.676 133.981 Q 1443.911 133.981 1447.681 130.066 A 24.323 24.323 0 0 0 1451.961 123.888 A 30.959 30.959 0 0 0 1453.481 120.206 L 1455.076 115.131 L 1423.466 35.671 L 1442.751 35.671 L 1456.526 74.966 Q 1458.411 80.476 1460.078 86.276 Q 1461.746 92.076 1463.631 97.731 L 1464.356 97.731 Q 1465.661 92.076 1467.256 86.348 Q 1468.851 80.621 1470.301 74.966 L 1482.336 35.671 L 1500.606 35.671 L 1471.606 119.771 Q 1468.381 128.602 1464.276 134.994 A 55.448 55.448 0 0 1 1463.993 135.431 Q 1459.716 141.956 1453.698 145.508 Q 1447.681 149.061 1438.836 149.061 A 43.562 43.562 0 0 1 1436.07 148.977 Q 1434.39 148.87 1432.963 148.626 A 33.981 33.981 0 0 1 1429.789 147.93 A 28.569 28.569 0 0 1 1428.251 147.466 Z M 414.556 116.146 L 395.561 116.146 L 395.561 35.671 L 411.076 35.671 L 412.671 46.546 L 412.961 46.546 Q 418.326 41.181 424.706 37.411 A 27.151 27.151 0 0 1 435.825 33.821 A 33.745 33.745 0 0 1 439.351 33.641 A 31.132 31.132 0 0 1 446.653 34.441 A 19.075 19.075 0 0 1 458.201 42.051 A 28.827 28.827 0 0 1 462.159 50.359 Q 463.338 54.233 463.818 58.91 A 66.549 66.549 0 0 1 464.146 65.686 L 464.146 116.146 L 445.151 116.146 L 445.151 68.151 A 53.502 53.502 0 0 0 444.965 63.52 Q 444.562 58.899 443.284 56.028 A 10.504 10.504 0 0 0 442.178 54.086 A 9.431 9.431 0 0 0 436.912 50.55 Q 435.276 50.095 433.295 50.035 A 20.173 20.173 0 0 0 432.681 50.026 A 18.205 18.205 0 0 0 427.34 50.784 A 15.713 15.713 0 0 0 423.473 52.563 A 40.543 40.543 0 0 0 420.35 54.782 Q 418.739 56.037 416.998 57.601 A 86.959 86.959 0 0 0 414.556 59.886 L 414.556 116.146 Z M 779.376 116.146 L 760.381 116.146 L 760.381 35.671 L 775.896 35.671 L 777.491 46.546 L 777.781 46.546 Q 783.146 41.181 789.526 37.411 A 27.151 27.151 0 0 1 800.645 33.821 A 33.745 33.745 0 0 1 804.171 33.641 A 31.132 31.132 0 0 1 811.473 34.441 A 19.075 19.075 0 0 1 823.021 42.051 A 28.827 28.827 0 0 1 826.979 50.359 Q 828.158 54.233 828.638 58.91 A 66.549 66.549 0 0 1 828.966 65.686 L 828.966 116.146 L 809.971 116.146 L 809.971 68.151 A 53.502 53.502 0 0 0 809.785 63.52 Q 809.382 58.899 808.104 56.028 A 10.504 10.504 0 0 0 806.998 54.086 A 9.431 9.431 0 0 0 801.732 50.55 Q 800.096 50.095 798.115 50.035 A 20.173 20.173 0 0 0 797.501 50.026 A 18.205 18.205 0 0 0 792.16 50.784 A 15.713 15.713 0 0 0 788.293 52.563 A 40.543 40.543 0 0 0 785.17 54.782 Q 783.559 56.037 781.818 57.601 A 86.959 86.959 0 0 0 779.376 59.886 L 779.376 116.146 Z M 188.501 56.986 L 181.686 44.226 A 93.665 93.665 0 0 1 189.735 39.835 A 104.825 104.825 0 0 1 191.328 39.078 A 63.657 63.657 0 0 1 200.891 35.557 A 70.822 70.822 0 0 1 202.348 35.163 Q 208.221 33.641 214.601 33.641 A 42.016 42.016 0 0 1 221.724 34.211 Q 225.864 34.924 229.242 36.527 A 23.825 23.825 0 0 1 231.421 37.701 A 24.523 24.523 0 0 1 240.742 48.038 A 30.433 30.433 0 0 1 241.426 49.518 Q 244.761 57.276 244.761 68.441 L 244.761 116.146 L 229.246 116.146 L 227.796 107.301 L 227.216 107.301 Q 221.851 111.796 215.616 114.986 Q 209.381 118.176 202.276 118.176 A 27.962 27.962 0 0 1 195.818 117.461 A 22.01 22.01 0 0 1 189.878 115.131 Q 184.586 112.086 181.541 106.793 A 22.773 22.773 0 0 1 178.736 98.324 A 28.907 28.907 0 0 1 178.496 94.541 Q 178.496 81.491 189.806 74.458 A 45.855 45.855 0 0 1 198.177 70.48 Q 206.896 67.272 219.848 65.421 A 194.699 194.699 0 0 1 225.766 64.671 A 26.139 26.139 0 0 0 225.186 59.907 A 21.44 21.44 0 0 0 224.243 56.768 Q 222.866 53.216 219.748 51.113 Q 216.631 49.011 211.266 49.011 Q 205.176 49.011 199.521 51.331 Q 193.866 53.651 188.501 56.986 Z M 492.856 56.986 L 486.041 44.226 A 93.665 93.665 0 0 1 494.09 39.835 A 104.825 104.825 0 0 1 495.683 39.078 A 63.657 63.657 0 0 1 505.246 35.557 A 70.822 70.822 0 0 1 506.703 35.163 Q 512.576 33.641 518.956 33.641 A 42.016 42.016 0 0 1 526.079 34.211 Q 530.219 34.924 533.597 36.527 A 23.825 23.825 0 0 1 535.776 37.701 A 24.523 24.523 0 0 1 545.097 48.038 A 30.433 30.433 0 0 1 545.781 49.518 Q 549.116 57.276 549.116 68.441 L 549.116 116.146 L 533.601 116.146 L 532.151 107.301 L 531.571 107.301 Q 526.206 111.796 519.971 114.986 Q 513.736 118.176 506.631 118.176 A 27.962 27.962 0 0 1 500.173 117.461 A 22.01 22.01 0 0 1 494.233 115.131 Q 488.941 112.086 485.896 106.793 A 22.773 22.773 0 0 1 483.091 98.324 A 28.907 28.907 0 0 1 482.851 94.541 Q 482.851 81.491 494.161 74.458 A 45.855 45.855 0 0 1 502.532 70.48 Q 511.251 67.272 524.203 65.421 A 194.699 194.699 0 0 1 530.121 64.671 A 26.139 26.139 0 0 0 529.541 59.907 A 21.44 21.44 0 0 0 528.598 56.768 Q 527.221 53.216 524.103 51.113 Q 520.986 49.011 515.621 49.011 Q 509.531 49.011 503.876 51.331 Q 498.221 53.651 492.856 56.986 Z M 1208.141 56.986 L 1201.326 44.226 A 93.665 93.665 0 0 1 1209.375 39.835 A 104.825 104.825 0 0 1 1210.968 39.078 A 63.657 63.657 0 0 1 1220.531 35.557 A 70.822 70.822 0 0 1 1221.988 35.163 Q 1227.861 33.641 1234.241 33.641 A 42.016 42.016 0 0 1 1241.364 34.211 Q 1245.504 34.924 1248.882 36.527 A 23.825 23.825 0 0 1 1251.061 37.701 A 24.523 24.523 0 0 1 1260.382 48.038 A 30.433 30.433 0 0 1 1261.066 49.518 Q 1264.401 57.276 1264.401 68.441 L 1264.401 116.146 L 1248.886 116.146 L 1247.436 107.301 L 1246.856 107.301 Q 1241.491 111.796 1235.256 114.986 Q 1229.021 118.176 1221.916 118.176 A 27.962 27.962 0 0 1 1215.458 117.461 A 22.01 22.01 0 0 1 1209.518 115.131 Q 1204.226 112.086 1201.181 106.793 A 22.773 22.773 0 0 1 1198.376 98.324 A 28.907 28.907 0 0 1 1198.136 94.541 Q 1198.136 81.491 1209.446 74.458 A 45.855 45.855 0 0 1 1217.817 70.48 Q 1226.536 67.272 1239.488 65.421 A 194.699 194.699 0 0 1 1245.406 64.671 A 26.139 26.139 0 0 0 1244.826 59.907 A 21.44 21.44 0 0 0 1243.883 56.768 Q 1242.506 53.216 1239.388 51.113 Q 1236.271 49.011 1230.906 49.011 Q 1224.816 49.011 1219.161 51.331 Q 1213.506 53.651 1208.141 56.986 Z M 1186.391 81.056 L 1135.496 81.056 A 32.245 32.245 0 0 0 1136.602 86.856 A 23.637 23.637 0 0 0 1139.411 93.091 Q 1142.601 98.021 1147.603 100.703 A 22.459 22.459 0 0 0 1155.201 103.124 A 28.612 28.612 0 0 0 1159.131 103.386 Q 1164.206 103.386 1168.701 101.863 A 42.685 42.685 0 0 0 1175.162 99.038 A 50.29 50.29 0 0 0 1177.691 97.586 L 1184.216 109.476 A 53.818 53.818 0 0 1 1174.917 114.396 A 63.246 63.246 0 0 1 1171.456 115.711 Q 1164.351 118.176 1156.666 118.176 A 42.337 42.337 0 0 1 1143.559 116.193 A 38.249 38.249 0 0 1 1136.511 113.101 Q 1127.521 108.026 1122.228 98.601 A 40.25 40.25 0 0 1 1117.826 86.17 A 55.6 55.6 0 0 1 1116.936 75.981 A 53.543 53.543 0 0 1 1117.715 66.646 A 41.583 41.583 0 0 1 1120.053 58.363 A 43.431 43.431 0 0 1 1125.512 48.529 A 38.91 38.91 0 0 1 1128.463 45.023 A 37.328 37.328 0 0 1 1137.727 37.829 A 34.785 34.785 0 0 1 1140.353 36.541 Q 1146.951 33.641 1154.056 33.641 A 40.437 40.437 0 0 1 1162.317 34.442 A 28.714 28.714 0 0 1 1172.326 38.498 Q 1179.721 43.356 1183.491 51.983 A 44.131 44.131 0 0 1 1186.626 63.094 A 58.937 58.937 0 0 1 1187.261 71.921 A 61.676 61.676 0 0 1 1187.178 75.183 A 50.179 50.179 0 0 1 1187.043 77.068 Q 1186.826 79.461 1186.391 81.056 Z M 571.156 88.886 L 571.156 50.751 L 559.701 50.751 L 559.701 36.541 L 572.316 35.671 L 574.346 13.631 L 590.151 13.631 L 590.151 35.671 L 610.596 35.671 L 610.596 50.751 L 590.151 50.751 L 590.151 89.031 A 27.494 27.494 0 0 0 590.4 92.863 Q 590.676 94.823 591.26 96.414 A 11.15 11.15 0 0 0 592.978 99.543 A 9.008 9.008 0 0 0 597.895 102.656 Q 599.566 103.096 601.606 103.096 A 15.883 15.883 0 0 0 604.228 102.869 A 19.522 19.522 0 0 0 605.883 102.516 Q 608.131 101.936 609.871 101.211 L 613.061 115.131 A 94.148 94.148 0 0 1 609.863 116.082 Q 608.175 116.554 606.283 117.026 A 157.66 157.66 0 0 1 605.738 117.161 A 34.935 34.935 0 0 1 600.279 118.031 A 43.757 43.757 0 0 1 596.676 118.176 A 37.973 37.973 0 0 1 590.732 117.739 Q 587.53 117.23 584.918 116.131 A 18.861 18.861 0 0 1 581.813 114.478 A 21.002 21.002 0 0 1 573.783 104.414 A 25.584 25.584 0 0 1 573.693 104.183 A 36.714 36.714 0 0 1 571.713 96.58 Q 571.16 92.992 571.156 88.949 A 59.631 59.631 0 0 1 571.156 88.886 Z M 887.546 88.886 L 887.546 50.751 L 876.091 50.751 L 876.091 36.541 L 888.706 35.671 L 890.736 13.631 L 906.541 13.631 L 906.541 35.671 L 926.986 35.671 L 926.986 50.751 L 906.541 50.751 L 906.541 89.031 A 27.494 27.494 0 0 0 906.79 92.863 Q 907.066 94.823 907.65 96.414 A 11.15 11.15 0 0 0 909.368 99.543 A 9.008 9.008 0 0 0 914.285 102.656 Q 915.956 103.096 917.996 103.096 A 15.883 15.883 0 0 0 920.618 102.869 A 19.522 19.522 0 0 0 922.273 102.516 Q 924.521 101.936 926.261 101.211 L 929.451 115.131 A 94.148 94.148 0 0 1 926.253 116.082 Q 924.565 116.554 922.673 117.026 A 157.66 157.66 0 0 1 922.128 117.161 A 34.935 34.935 0 0 1 916.669 118.031 A 43.757 43.757 0 0 1 913.066 118.176 A 37.973 37.973 0 0 1 907.122 117.739 Q 903.92 117.23 901.308 116.131 A 18.861 18.861 0 0 1 898.203 114.478 A 21.002 21.002 0 0 1 890.173 104.414 A 25.584 25.584 0 0 1 890.083 104.183 A 36.714 36.714 0 0 1 888.103 96.58 Q 887.55 92.992 887.546 88.949 A 59.631 59.631 0 0 1 887.546 88.886 Z M 1377.066 88.886 L 1377.066 50.751 L 1365.611 50.751 L 1365.611 36.541 L 1378.226 35.671 L 1380.256 13.631 L 1396.061 13.631 L 1396.061 35.671 L 1416.506 35.671 L 1416.506 50.751 L 1396.061 50.751 L 1396.061 89.031 A 27.494 27.494 0 0 0 1396.31 92.863 Q 1396.586 94.823 1397.17 96.414 A 11.15 11.15 0 0 0 1398.888 99.543 A 9.008 9.008 0 0 0 1403.805 102.656 Q 1405.476 103.096 1407.516 103.096 A 15.883 15.883 0 0 0 1410.138 102.869 A 19.522 19.522 0 0 0 1411.793 102.516 Q 1414.041 101.936 1415.781 101.211 L 1418.971 115.131 A 94.148 94.148 0 0 1 1415.773 116.082 Q 1414.085 116.554 1412.193 117.026 A 157.66 157.66 0 0 1 1411.648 117.161 A 34.935 34.935 0 0 1 1406.189 118.031 A 43.757 43.757 0 0 1 1402.586 118.176 A 37.973 37.973 0 0 1 1396.642 117.739 Q 1393.44 117.23 1390.828 116.131 A 18.861 18.861 0 0 1 1387.723 114.478 A 21.002 21.002 0 0 1 1379.693 104.414 A 25.584 25.584 0 0 1 1379.603 104.183 A 36.714 36.714 0 0 1 1377.623 96.58 Q 1377.07 92.992 1377.066 88.949 A 59.631 59.631 0 0 1 1377.066 88.886 Z M 1287.021 95.411 L 1287.021 0.581 L 1306.016 0.581 L 1306.016 96.281 A 14.709 14.709 0 0 0 1306.097 97.889 Q 1306.342 100.105 1307.321 101.138 A 5.458 5.458 0 0 0 1308.187 101.89 Q 1308.783 102.299 1309.408 102.441 A 3.012 3.012 0 0 0 1310.076 102.516 Q 1310.656 102.516 1311.236 102.443 L 1312.976 102.226 L 1315.296 116.436 A 18.809 18.809 0 0 1 1313.648 117.028 Q 1312.794 117.294 1311.823 117.521 A 32.637 32.637 0 0 1 1311.163 117.668 A 20.562 20.562 0 0 1 1309.216 117.977 Q 1308.136 118.1 1306.894 118.146 A 42.58 42.58 0 0 1 1305.291 118.176 Q 1300.194 118.176 1296.621 116.524 A 13.518 13.518 0 0 1 1294.561 115.348 A 15.022 15.022 0 0 1 1289.296 108.775 A 19.015 19.015 0 0 1 1288.761 107.373 Q 1287.129 102.547 1287.027 96.256 A 52.175 52.175 0 0 1 1287.021 95.411 Z M 1082.281 116.146 L 1063.286 116.146 L 1063.286 35.671 L 1078.801 35.671 L 1080.396 50.026 L 1080.686 50.026 A 41.743 41.743 0 0 1 1085.141 43.472 A 31.243 31.243 0 0 1 1091.126 37.918 Q 1097.216 33.641 1103.596 33.641 A 38.711 38.711 0 0 1 1105.748 33.697 Q 1107.541 33.797 1108.888 34.076 A 16.389 16.389 0 0 1 1111.608 34.879 A 14.213 14.213 0 0 1 1112.731 35.381 L 1109.541 51.766 Q 1107.366 51.186 1105.553 50.823 A 16.497 16.497 0 0 0 1104.082 50.602 Q 1102.762 50.461 1101.131 50.461 Q 1097.305 50.461 1093.037 53.023 A 28.099 28.099 0 0 0 1091.198 54.231 A 19.349 19.349 0 0 0 1087.173 58.179 Q 1084.433 61.712 1082.281 67.136 L 1082.281 116.146 Z M 703.396 118.176 Q 693.391 118.176 684.618 113.173 A 36.863 36.863 0 0 1 671.695 100.697 A 44.484 44.484 0 0 1 670.481 98.673 Q 665.116 89.176 665.116 75.981 A 56.426 56.426 0 0 1 666.07 65.325 Q 667.328 58.785 670.241 53.498 A 35.36 35.36 0 0 1 670.481 53.071 A 39.199 39.199 0 0 1 678.871 42.707 A 36.016 36.016 0 0 1 684.618 38.643 Q 693.391 33.641 703.396 33.641 Q 710.936 33.641 717.823 36.468 Q 724.711 39.296 730.076 44.733 A 38.017 38.017 0 0 1 737.087 54.689 A 45.358 45.358 0 0 1 738.558 58.001 A 42.976 42.976 0 0 1 741.121 67.829 A 57.426 57.426 0 0 1 741.676 75.981 A 54.505 54.505 0 0 1 740.649 86.818 A 40.147 40.147 0 0 1 736.311 98.673 A 39.354 39.354 0 0 1 728.273 108.789 A 35.683 35.683 0 0 1 722.173 113.173 Q 713.401 118.176 703.396 118.176 Z M 973.531 118.176 Q 963.526 118.176 954.753 113.173 A 36.863 36.863 0 0 1 941.83 100.697 A 44.484 44.484 0 0 1 940.616 98.673 Q 935.251 89.176 935.251 75.981 A 56.426 56.426 0 0 1 936.205 65.325 Q 937.463 58.785 940.376 53.498 A 35.36 35.36 0 0 1 940.616 53.071 A 39.199 39.199 0 0 1 949.006 42.707 A 36.016 36.016 0 0 1 954.753 38.643 Q 963.526 33.641 973.531 33.641 Q 981.071 33.641 987.958 36.468 Q 994.846 39.296 1000.211 44.733 A 38.017 38.017 0 0 1 1007.222 54.689 A 45.358 45.358 0 0 1 1008.693 58.001 A 42.976 42.976 0 0 1 1011.256 67.829 A 57.426 57.426 0 0 1 1011.811 75.981 A 54.505 54.505 0 0 1 1010.784 86.818 A 40.147 40.147 0 0 1 1006.446 98.673 A 39.354 39.354 0 0 1 998.408 108.789 A 35.683 35.683 0 0 1 992.308 113.173 Q 983.536 118.176 973.531 118.176 Z M 20.736 116.146 L 1.741 116.146 L 1.741 35.671 L 20.736 35.671 L 20.736 116.146 Z M 371.636 116.146 L 352.641 116.146 L 352.641 35.671 L 371.636 35.671 L 371.636 116.146 Z M 646.556 116.146 L 627.561 116.146 L 627.561 35.671 L 646.556 35.671 L 646.556 116.146 Z M 1350.386 116.146 L 1331.391 116.146 L 1331.391 35.671 L 1350.386 35.671 L 1350.386 116.146 Z M 703.396 102.516 A 18.047 18.047 0 0 0 708.667 101.775 A 15.014 15.014 0 0 0 713.546 99.253 Q 717.751 95.991 719.998 89.973 Q 722.213 84.044 722.245 76.214 A 56.3 56.3 0 0 0 722.246 75.981 Q 722.246 68.431 720.303 62.7 A 29.626 29.626 0 0 0 719.998 61.843 A 24.59 24.59 0 0 0 717.669 57.124 A 18.104 18.104 0 0 0 713.546 52.563 A 15.478 15.478 0 0 0 705.564 49.415 A 20.026 20.026 0 0 0 703.396 49.301 A 17.252 17.252 0 0 0 697.838 50.168 A 15.094 15.094 0 0 0 693.391 52.563 Q 689.186 55.826 686.938 61.843 Q 684.831 67.484 684.699 74.974 A 57.268 57.268 0 0 0 684.691 75.981 Q 684.691 83.683 686.787 89.559 A 29.826 29.826 0 0 0 686.938 89.973 A 24.59 24.59 0 0 0 689.267 94.692 A 18.104 18.104 0 0 0 693.391 99.253 A 15.524 15.524 0 0 0 702.058 102.471 A 19.679 19.679 0 0 0 703.396 102.516 Z M 973.531 102.516 A 18.047 18.047 0 0 0 978.802 101.775 A 15.014 15.014 0 0 0 983.681 99.253 Q 987.886 95.991 990.133 89.973 Q 992.348 84.044 992.38 76.214 A 56.3 56.3 0 0 0 992.381 75.981 Q 992.381 68.431 990.438 62.7 A 29.626 29.626 0 0 0 990.133 61.843 A 24.59 24.59 0 0 0 987.804 57.124 A 18.104 18.104 0 0 0 983.681 52.563 A 15.478 15.478 0 0 0 975.699 49.415 A 20.026 20.026 0 0 0 973.531 49.301 A 17.252 17.252 0 0 0 967.973 50.168 A 15.094 15.094 0 0 0 963.526 52.563 Q 959.321 55.826 957.073 61.843 Q 954.966 67.484 954.834 74.974 A 57.268 57.268 0 0 0 954.826 75.981 Q 954.826 83.683 956.922 89.559 A 29.826 29.826 0 0 0 957.073 89.973 A 24.59 24.59 0 0 0 959.402 94.692 A 18.104 18.104 0 0 0 963.526 99.253 A 15.524 15.524 0 0 0 972.193 102.471 A 19.679 19.679 0 0 0 973.531 102.516 Z M 305.806 118.321 L 294.786 118.321 Q 291.596 118.321 288.913 118.103 A 32.892 32.892 0 0 1 285.548 117.661 A 27.57 27.57 0 0 1 283.911 117.306 A 19.011 19.011 0 0 0 281.606 119.262 Q 280.131 120.745 279.271 122.381 A 12.941 12.941 0 0 0 278.139 125.308 A 10.748 10.748 0 0 0 277.821 127.891 A 8.665 8.665 0 0 0 281.179 134.854 A 13.999 13.999 0 0 0 283.331 136.301 A 21.619 21.619 0 0 0 288.43 138.272 Q 292.611 139.346 298.121 139.346 A 41.362 41.362 0 0 0 303.426 139.023 Q 306.2 138.664 308.574 137.905 A 23.858 23.858 0 0 0 309.648 137.533 Q 313.764 135.997 316.318 133.681 A 13.946 13.946 0 0 0 317.188 132.821 A 10.81 10.81 0 0 0 318.973 130.272 A 8.55 8.55 0 0 0 319.871 126.441 A 9.703 9.703 0 0 0 319.588 124.011 A 5.818 5.818 0 0 0 316.246 119.988 Q 312.82 118.412 306.547 118.326 A 53.578 53.578 0 0 0 305.806 118.321 Z M 1135.206 68.151 L 1171.021 68.151 A 32.082 32.082 0 0 0 1170.526 62.34 Q 1169.579 57.201 1166.816 53.723 A 13.549 13.549 0 0 0 1158.785 48.873 A 21.042 21.042 0 0 0 1154.346 48.431 Q 1149.851 48.431 1145.791 50.678 A 18.686 18.686 0 0 0 1140.248 55.412 A 23.073 23.073 0 0 0 1138.903 57.276 A 21.938 21.938 0 0 0 1136.508 62.34 Q 1135.627 64.99 1135.206 68.151 Z M 296.091 78.736 Q 300.006 78.736 303.196 76.778 A 13.823 13.823 0 0 0 307.906 71.92 A 16.566 16.566 0 0 0 308.271 71.268 Q 310.045 67.924 310.149 63.23 A 26.618 26.618 0 0 0 310.156 62.641 Q 310.156 57.566 308.271 54.013 A 14.4 14.4 0 0 0 305.92 50.73 A 12.202 12.202 0 0 0 303.268 48.648 A 13.366 13.366 0 0 0 298.062 46.949 A 16.745 16.745 0 0 0 296.091 46.836 Q 292.321 46.836 289.203 48.648 A 12.905 12.905 0 0 0 284.82 52.894 A 15.867 15.867 0 0 0 284.201 53.941 A 14.634 14.634 0 0 0 282.817 57.72 Q 282.441 59.392 282.347 61.324 A 27.111 27.111 0 0 0 282.316 62.641 Q 282.316 67.716 284.201 71.268 A 15.104 15.104 0 0 0 286.873 74.924 A 13.364 13.364 0 0 0 289.203 76.778 Q 292.321 78.736 296.091 78.736 Z M 225.766 94.541 L 225.766 76.561 A 128.319 128.319 0 0 0 219.408 77.475 Q 213.107 78.555 208.795 80.083 A 37.721 37.721 0 0 0 208.511 80.186 A 34.531 34.531 0 0 0 204.966 81.687 Q 203.254 82.537 201.934 83.486 A 13.094 13.094 0 0 0 199.448 85.768 Q 196.766 89.031 196.766 93.091 A 13.852 13.852 0 0 0 197.038 95.938 Q 197.394 97.632 198.216 98.891 A 6.958 6.958 0 0 0 200.028 100.776 A 12.023 12.023 0 0 0 204.272 102.651 Q 205.911 103.04 207.816 103.089 A 21.565 21.565 0 0 0 208.366 103.096 Q 213.151 103.096 217.283 100.848 A 35.246 35.246 0 0 0 221.404 98.197 Q 223.557 96.602 225.766 94.541 Z M 530.121 94.541 L 530.121 76.561 A 128.319 128.319 0 0 0 523.763 77.475 Q 517.462 78.555 513.15 80.083 A 37.721 37.721 0 0 0 512.866 80.186 A 34.531 34.531 0 0 0 509.321 81.687 Q 507.609 82.537 506.289 83.486 A 13.094 13.094 0 0 0 503.803 85.768 Q 501.121 89.031 501.121 93.091 A 13.852 13.852 0 0 0 501.393 95.938 Q 501.749 97.632 502.571 98.891 A 6.958 6.958 0 0 0 504.383 100.776 A 12.023 12.023 0 0 0 508.627 102.651 Q 510.266 103.04 512.171 103.089 A 21.565 21.565 0 0 0 512.721 103.096 Q 517.506 103.096 521.638 100.848 A 35.246 35.246 0 0 0 525.759 98.197 Q 527.912 96.602 530.121 94.541 Z M 1245.406 94.541 L 1245.406 76.561 A 128.319 128.319 0 0 0 1239.048 77.475 Q 1232.747 78.555 1228.435 80.083 A 37.721 37.721 0 0 0 1228.151 80.186 A 34.531 34.531 0 0 0 1224.606 81.687 Q 1222.894 82.537 1221.574 83.486 A 13.094 13.094 0 0 0 1219.088 85.768 Q 1216.406 89.031 1216.406 93.091 A 13.852 13.852 0 0 0 1216.678 95.938 Q 1217.034 97.632 1217.856 98.891 A 6.958 6.958 0 0 0 1219.668 100.776 A 12.023 12.023 0 0 0 1223.912 102.651 Q 1225.551 103.04 1227.456 103.089 A 21.565 21.565 0 0 0 1228.006 103.096 Q 1232.791 103.096 1236.923 100.848 A 35.246 35.246 0 0 0 1241.044 98.197 Q 1243.197 96.602 1245.406 94.541 Z M 7.84 21.222 A 14.818 14.818 0 0 0 11.311 21.606 A 14.865 14.865 0 0 0 13.103 21.5 A 10.963 10.963 0 0 0 19.431 18.633 Q 22.621 15.661 22.621 10.731 Q 22.621 5.946 19.431 2.973 A 10.657 10.657 0 0 0 15.161 0.53 A 13.394 13.394 0 0 0 11.311 0.001 A 15.012 15.012 0 0 0 8.049 0.336 A 10.15 10.15 0 0 0 3.046 2.973 A 9.7 9.7 0 0 0 0.503 7.142 A 12.233 12.233 0 0 0 0.001 10.731 Q 0.001 15.661 3.046 18.633 A 10.095 10.095 0 0 0 7.84 21.222 Z M 358.74 21.222 A 14.818 14.818 0 0 0 362.211 21.606 A 14.865 14.865 0 0 0 364.003 21.5 A 10.963 10.963 0 0 0 370.331 18.633 Q 373.521 15.661 373.521 10.731 Q 373.521 5.946 370.331 2.973 A 10.657 10.657 0 0 0 366.061 0.53 A 13.394 13.394 0 0 0 362.211 0.001 A 15.012 15.012 0 0 0 358.949 0.336 A 10.15 10.15 0 0 0 353.946 2.973 A 9.7 9.7 0 0 0 351.403 7.142 A 12.233 12.233 0 0 0 350.901 10.731 Q 350.901 15.661 353.946 18.633 A 10.095 10.095 0 0 0 358.74 21.222 Z M 633.66 21.222 A 14.818 14.818 0 0 0 637.131 21.606 A 14.865 14.865 0 0 0 638.923 21.5 A 10.963 10.963 0 0 0 645.251 18.633 Q 648.441 15.661 648.441 10.731 Q 648.441 5.946 645.251 2.973 A 10.657 10.657 0 0 0 640.981 0.53 A 13.394 13.394 0 0 0 637.131 0.001 A 15.012 15.012 0 0 0 633.869 0.336 A 10.15 10.15 0 0 0 628.866 2.973 A 9.7 9.7 0 0 0 626.323 7.142 A 12.233 12.233 0 0 0 625.821 10.731 Q 625.821 15.661 628.866 18.633 A 10.095 10.095 0 0 0 633.66 21.222 Z M 1337.49 21.222 A 14.818 14.818 0 0 0 1340.961 21.606 A 14.865 14.865 0 0 0 1342.753 21.5 A 10.963 10.963 0 0 0 1349.081 18.633 Q 1352.271 15.661 1352.271 10.731 Q 1352.271 5.946 1349.081 2.973 A 10.657 10.657 0 0 0 1344.811 0.53 A 13.394 13.394 0 0 0 1340.961 0.001 A 15.012 15.012 0 0 0 1337.699 0.336 A 10.15 10.15 0 0 0 1332.696 2.973 A 9.7 9.7 0 0 0 1330.153 7.142 A 12.233 12.233 0 0 0 1329.651 10.731 Q 1329.651 15.661 1332.696 18.633 A 10.095 10.095 0 0 0 1337.49 21.222 Z" vector-effect="non-scaling-stroke"/></g></svg>