<svg width="408" height="72" viewBox="0 0 408 72" fill="none" xmlns="http://www.w3.org/2000/svg">
<path d="M47.2 7.7C44.2667 6.56666 42.1333 5.93333 40.8 5.8C39.4667 5.66667 37.8333 5.56666 35.9 5.49999C34.0333 5.36666 31.8 5.3 29.2 5.3C26.6667 5.3 23.6333 5.46666 20.1 5.8V65.5L31.1 65.8C37.9667 65.5333 43.0333 64.6667 46.3 63.2C55.1667 59.1333 59.6333 49.9333 59.7 35.6C59.7 30 59.0667 25.2 57.8 21.2C56.5333 17.2 55.1667 14.2333 53.7 12.3C52.3 10.3667 50.1333 8.83333 47.2 7.7ZM13.2 2.29999L32.6 1.79999C38.5333 1.79999 43.7333 2.3 48.2 3.3C52.6667 4.3 56.7667 6 60.5 8.4C68.1 13.2667 71.9 22.3 71.9 35.5C71.9 57.8333 58.3 69 31.1 69H0.9V66.4L9.6 65.6V5.7L0.9 4.59999V2C4.96667 2.2 9.06667 2.29999 13.2 2.29999ZM76.1969 69V66.6L84.8969 65.7V5.49999L76.1969 4.4V2.2H124.097L124.197 16.4H121.597L118.197 5.8L95.1969 5.49999V32.4H115.397L118.497 25H120.497V43.6H118.397L115.397 36H95.1969V65.8L121.197 65.5L125.897 54.1H128.497L127.297 69H76.1969ZM125.465 2.2H152.465V4.3L144.465 5.4L164.765 56.5L184.265 7.2L175.465 4.59999V2.2H196.365V4.59999L188.765 7.3L163.965 69.6H159.465L133.165 5.4L125.465 4.3V2.2ZM214.052 37.7V65.7L222.752 66.6V69H195.052V66.6L203.752 65.7V5.6L195.052 4.4V2.2H243.552L243.652 16.4H241.052L237.652 5.8L214.052 5.49999V34.1H234.852L237.952 26.7H239.952V45.3H237.852L234.852 37.7H214.052ZM275.198 69H247.498V66.6L256.198 65.7V5.49999L247.498 4.59999V2.2H275.198V4.59999L266.498 5.49999V65.7L275.198 66.6V69ZM297.745 33.8H302.745C314.678 33.8 320.645 28.8 320.645 18.8C320.645 13.8667 319.478 10.3 317.145 8.1C314.811 5.83333 311.078 4.7 305.945 4.7C303.945 4.7 301.211 4.83333 297.745 5.09999V33.8ZM297.545 2L308.945 1.7C324.078 1.7 331.645 7.4 331.645 18.8C331.645 23.7333 329.945 27.8 326.545 31C323.211 34.1333 318.878 35.7 313.545 35.7C313.078 35.7 312.245 35.6333 311.045 35.5V35.7C318.178 36.7 323.078 39.0333 325.745 42.7C328.478 46.3 329.845 51.8333 329.845 59.3C329.845 63.9667 330.711 66.6667 332.445 67.4C333.245 67.9333 334.345 68.2 335.745 68.2C337.211 68.2 339.078 67.7667 341.345 66.9V69.4C337.811 70.6667 334.578 71.3 331.645 71.3C325.111 71.3 321.078 68.5 319.545 62.9C319.145 61.4333 318.911 59.3667 318.845 56.7C318.845 54.0333 318.745 51.6667 318.545 49.6C318.345 47.5333 317.878 45.4667 317.145 43.4C315.478 38.9333 310.878 36.7 303.345 36.7H297.745V66.1L305.445 66.8V69H279.945V66.9L287.445 66.1V5.3L278.745 4.3V1.7C283.011 1.9 287.578 2 292.445 2H297.545ZM407.991 35.4C407.991 45.4 404.957 53.7 398.891 60.3C392.824 66.8333 384.691 70.1 374.491 70.1C364.291 70.1 356.124 66.8333 349.991 60.3C343.924 53.7 340.891 45.4 340.891 35.4C340.891 25.4 343.924 17.1333 349.991 10.6C356.124 4 364.291 0.699997 374.491 0.699997C384.691 0.699997 392.824 4 398.891 10.6C404.957 17.1333 407.991 25.4 407.991 35.4ZM374.591 67C388.724 67 395.791 56.4667 395.791 35.4C395.791 25.2667 394.157 17.4667 390.891 12C387.691 6.53333 382.224 3.8 374.491 3.8C366.757 3.8 361.257 6.53333 357.991 12C354.724 17.4 353.091 25.2 353.091 35.4C353.091 56.4667 360.257 67 374.591 67Z" fill="#2E2E2E"/>
</svg>
