<svg width="604" height="72" viewBox="0 0 604 72" fill="none" xmlns="http://www.w3.org/2000/svg">
<path d="M27.3 28V44C27.3 46.7333 28.2 48.8333 30 50.3C31.8667 51.7667 34.2667 52.5 37.2 52.5C40.2 52.5 42.3667 52.0333 43.7 51.1C45.0333 50.1667 46.1333 48.8 47 47C47.9333 45.2 49.1333 44.3 50.6 44.3H72.2C72.8 44.3 73.3 44.5333 73.7 45C74.1667 45.4 74.4 45.9 74.4 46.5C74.4 52.7 71.4667 58.3667 65.6 63.5C62.6667 66.0333 58.7667 68.1 53.9 69.7C49.0333 71.2333 43.3 72 36.7 72C30.1 72 24.0667 71 18.6 69C13.2 66.9333 8.8 63.6 5.4 59C2 54.3333 0.3 48.6333 0.3 41.9V30.1C0.3 23.3667 2 17.6667 5.4 13C11.8 4.33333 22.5 -3.8147e-06 37.5 -3.8147e-06C43.5667 -3.8147e-06 49.0333 0.799996 53.9 2.4C58.7667 3.93333 62.6667 5.96666 65.6 8.5C71.4667 13.6333 74.4 19.3 74.4 25.5C74.4 26.1 74.1667 26.6333 73.7 27.1C73.3 27.5 72.8 27.7 72.2 27.7H50.6C49.1333 27.7 47.9333 26.8 47 25C46.1333 23.2 45.0333 21.8333 43.7 20.9C42.3667 19.9667 40.2 19.5 37.2 19.5C34.2667 19.5 31.8667 20.2333 30 21.7C28.2 23.1667 27.3 25.2667 27.3 28ZM152.161 67.9C152.294 68.1667 152.361 68.5333 152.361 69C152.361 69.4667 152.128 69.9333 151.661 70.4C151.261 70.8 150.761 71 150.161 71H127.461C125.461 71 124.061 70.1667 123.261 68.5L114.461 48.7H106.061V68.3C106.061 69.0333 105.794 69.6667 105.261 70.2C104.728 70.7333 104.094 71 103.361 71H81.7609C81.0276 71 80.3943 70.7333 79.8609 70.2C79.3276 69.6667 79.0609 69.0333 79.0609 68.3V3.7C79.0609 2.96666 79.3276 2.33333 79.8609 1.8C80.3943 1.26666 81.0276 0.999995 81.7609 0.999995H120.661C129.794 0.999995 137.028 3.16666 142.361 7.49999C147.694 11.8333 150.361 17.7333 150.361 25.2C150.361 34.2667 146.861 40.8333 139.861 44.9L152.161 67.9ZM106.061 19.6V30.2H118.561C120.028 30.2 121.161 29.7333 121.961 28.8C122.761 27.8 123.161 26.5667 123.161 25.1C123.161 23.6333 122.761 22.3667 121.961 21.3C121.228 20.1667 120.094 19.6 118.561 19.6H106.061ZM180.922 51.5H220.822C221.555 51.5 222.189 51.7667 222.722 52.3C223.255 52.8333 223.522 53.4667 223.522 54.2V68.3C223.522 69.0333 223.255 69.6667 222.722 70.2C222.189 70.7333 221.555 71 220.822 71H157.622C156.889 71 156.255 70.7333 155.722 70.2C155.189 69.6667 154.922 69.0333 154.922 68.3V3.7C154.922 2.96666 155.189 2.33333 155.722 1.8C156.255 1.26666 156.889 0.999995 157.622 0.999995H219.822C220.555 0.999995 221.189 1.26666 221.722 1.8C222.255 2.33333 222.522 2.96666 222.522 3.7V17.8C222.522 18.5333 222.255 19.1667 221.722 19.7C221.189 20.2333 220.555 20.5 219.822 20.5H180.922V26.8H214.322C215.055 26.8 215.689 27.0667 216.222 27.6C216.755 28.1333 217.022 28.7667 217.022 29.5V42.5C217.022 43.2333 216.755 43.8667 216.222 44.4C215.689 44.9333 215.055 45.2 214.322 45.2H180.922V51.5ZM245.483 71H226.583C225.983 71 225.449 70.8 224.983 70.4C224.583 69.9333 224.383 69.5 224.383 69.1C224.383 68.7 224.416 68.4 224.483 68.2L246.283 4.29999C246.883 2.09999 248.383 0.999995 250.783 0.999995H278.583C280.983 0.999995 282.483 2.09999 283.083 4.29999L304.883 68.2C304.949 68.4 304.983 68.7 304.983 69.1C304.983 69.5 304.749 69.9333 304.283 70.4C303.883 70.8 303.383 71 302.783 71H283.883C281.749 71 280.249 69.8667 279.383 67.6L276.883 60.6H252.483L249.983 67.6C249.116 69.8667 247.616 71 245.483 71ZM271.783 41.1L264.683 20.3L257.583 41.1H271.783ZM305.844 0.999995H374.844C375.577 0.999995 376.21 1.26666 376.744 1.8C377.277 2.33333 377.544 2.96666 377.544 3.7V19.8C377.544 20.5333 377.277 21.1667 376.744 21.7C376.21 22.2333 375.577 22.5 374.844 22.5H353.344V68.3C353.344 69.0333 353.077 69.6667 352.544 70.2C352.01 70.7333 351.377 71 350.644 71H330.044C329.31 71 328.677 70.7333 328.144 70.2C327.61 69.6667 327.344 69.0333 327.344 68.3V22.5H305.844C305.11 22.5 304.477 22.2333 303.944 21.7C303.41 21.1667 303.144 20.5333 303.144 19.8V3.7C303.144 2.96666 303.41 2.33333 303.944 1.8C304.477 1.26666 305.11 0.999995 305.844 0.999995ZM448.005 21.5H429.905V50.5H448.005C448.738 50.5 449.371 50.7667 449.905 51.3C450.438 51.8333 450.705 52.4667 450.705 53.2V68.3C450.705 69.0333 450.438 69.6667 449.905 70.2C449.371 70.7333 448.738 71 448.005 71H384.605C383.871 71 383.238 70.7333 382.705 70.2C382.171 69.6667 381.905 69.0333 381.905 68.3V53.2C381.905 52.4667 382.171 51.8333 382.705 51.3C383.238 50.7667 383.871 50.5 384.605 50.5H402.905V21.5H384.605C383.871 21.5 383.238 21.2333 382.705 20.7C382.171 20.1667 381.905 19.5333 381.905 18.8V3.7C381.905 2.96666 382.171 2.33333 382.705 1.8C383.238 1.26666 383.871 0.999995 384.605 0.999995H448.005C448.738 0.999995 449.371 1.26666 449.905 1.8C450.438 2.33333 450.705 2.96666 450.705 3.7V18.8C450.705 19.5333 450.438 20.1667 449.905 20.7C449.371 21.2333 448.738 21.5 448.005 21.5ZM508.266 0.999995H529.366C529.966 0.999995 530.466 1.23333 530.866 1.7C531.332 2.1 531.566 2.5 531.566 2.89999C531.566 3.3 531.532 3.63333 531.466 3.9L508.466 67.7C507.732 69.9 506.232 71 503.966 71H480.666C478.466 71 476.999 70 476.266 68L453.066 3.9C452.999 3.63333 452.966 3.3 452.966 2.89999C452.966 2.5 453.166 2.1 453.566 1.7C454.032 1.23333 454.566 0.999995 455.166 0.999995H476.266C477.466 0.999995 478.432 1.36666 479.166 2.1C479.966 2.76666 480.499 3.5 480.766 4.29999L492.266 42.6L503.766 4.29999C504.366 2.09999 505.866 0.999995 508.266 0.999995ZM560.727 51.5H600.627C601.36 51.5 601.993 51.7667 602.527 52.3C603.06 52.8333 603.327 53.4667 603.327 54.2V68.3C603.327 69.0333 603.06 69.6667 602.527 70.2C601.993 70.7333 601.36 71 600.627 71H537.427C536.693 71 536.06 70.7333 535.527 70.2C534.993 69.6667 534.727 69.0333 534.727 68.3V3.7C534.727 2.96666 534.993 2.33333 535.527 1.8C536.06 1.26666 536.693 0.999995 537.427 0.999995H599.627C600.36 0.999995 600.993 1.26666 601.527 1.8C602.06 2.33333 602.327 2.96666 602.327 3.7V17.8C602.327 18.5333 602.06 19.1667 601.527 19.7C600.993 20.2333 600.36 20.5 599.627 20.5H560.727V26.8H594.127C594.86 26.8 595.493 27.0667 596.027 27.6C596.56 28.1333 596.827 28.7667 596.827 29.5V42.5C596.827 43.2333 596.56 43.8667 596.027 44.4C595.493 44.9333 594.86 45.2 594.127 45.2H560.727V51.5Z" fill="#2E2E2E"/>
</svg>
