<svg width="684" height="72" viewBox="0 0 684 72" fill="none" xmlns="http://www.w3.org/2000/svg">
<path d="M3.3 0.999995H35.2C42.5333 0.999995 48.9 1.96666 54.3 3.9C59.7 5.83333 64.0667 9.1 67.4 13.7C70.7333 18.3 72.4 24.0333 72.4 30.9V41.1C72.4 51.7667 68.8 59.5333 61.6 64.4C55 68.8 46.2 71 35.2 71H3.3C2.56667 71 1.93333 70.7333 1.4 70.2C0.866667 69.6667 0.600001 69.0333 0.600001 68.3V3.7C0.600001 2.96666 0.866667 2.33333 1.4 1.8C1.93333 1.26666 2.56667 0.999995 3.3 0.999995ZM26.6 20.5V51.5H35.7C38.8333 51.5 41.3 50.7667 43.1 49.3C44.9667 47.7667 45.9 45.6333 45.9 42.9V29.1C45.9 26.3667 44.9667 24.2667 43.1 22.8C41.3 21.2667 38.8333 20.5 35.7 20.5H26.6ZM103.961 51.5H143.861C144.594 51.5 145.228 51.7667 145.761 52.3C146.294 52.8333 146.561 53.4667 146.561 54.2V68.3C146.561 69.0333 146.294 69.6667 145.761 70.2C145.228 70.7333 144.594 71 143.861 71H80.6609C79.9276 71 79.2943 70.7333 78.7609 70.2C78.2276 69.6667 77.9609 69.0333 77.9609 68.3V3.7C77.9609 2.96666 78.2276 2.33333 78.7609 1.8C79.2943 1.26666 79.9276 0.999995 80.6609 0.999995H142.861C143.594 0.999995 144.228 1.26666 144.761 1.8C145.294 2.33333 145.561 2.96666 145.561 3.7V17.8C145.561 18.5333 145.294 19.1667 144.761 19.7C144.228 20.2333 143.594 20.5 142.861 20.5H103.961V26.8H137.361C138.094 26.8 138.728 27.0667 139.261 27.6C139.794 28.1333 140.061 28.7667 140.061 29.5V42.5C140.061 43.2333 139.794 43.8667 139.261 44.4C138.728 44.9333 138.094 45.2 137.361 45.2H103.961V51.5ZM203.422 0.999995H224.522C225.122 0.999995 225.622 1.23333 226.022 1.7C226.489 2.1 226.722 2.5 226.722 2.89999C226.722 3.3 226.689 3.63333 226.622 3.9L203.622 67.7C202.889 69.9 201.389 71 199.122 71H175.822C173.622 71 172.155 70 171.422 68L148.222 3.9C148.155 3.63333 148.122 3.3 148.122 2.89999C148.122 2.5 148.322 2.1 148.722 1.7C149.189 1.23333 149.722 0.999995 150.322 0.999995H171.422C172.622 0.999995 173.589 1.36666 174.322 2.1C175.122 2.76666 175.655 3.5 175.922 4.29999L187.422 42.6L198.922 4.29999C199.522 2.09999 201.022 0.999995 203.422 0.999995ZM255.883 51.5H295.783C296.516 51.5 297.149 51.7667 297.683 52.3C298.216 52.8333 298.483 53.4667 298.483 54.2V68.3C298.483 69.0333 298.216 69.6667 297.683 70.2C297.149 70.7333 296.516 71 295.783 71H232.583C231.849 71 231.216 70.7333 230.683 70.2C230.149 69.6667 229.883 69.0333 229.883 68.3V3.7C229.883 2.96666 230.149 2.33333 230.683 1.8C231.216 1.26666 231.849 0.999995 232.583 0.999995H294.783C295.516 0.999995 296.149 1.26666 296.683 1.8C297.216 2.33333 297.483 2.96666 297.483 3.7V17.8C297.483 18.5333 297.216 19.1667 296.683 19.7C296.149 20.2333 295.516 20.5 294.783 20.5H255.883V26.8H289.283C290.016 26.8 290.649 27.0667 291.183 27.6C291.716 28.1333 291.983 28.7667 291.983 29.5V42.5C291.983 43.2333 291.716 43.8667 291.183 44.4C290.649 44.9333 290.016 45.2 289.283 45.2H255.883V51.5ZM337.844 50.5H371.944C372.677 50.5 373.31 50.7667 373.844 51.3C374.377 51.8333 374.644 52.4667 374.644 53.2V68.3C374.644 69.0333 374.377 69.6667 373.844 70.2C373.31 70.7333 372.677 71 371.944 71H313.544C312.81 71 312.177 70.7333 311.644 70.2C311.11 69.6667 310.844 69.0333 310.844 68.3V3.7C310.844 2.96666 311.11 2.33333 311.644 1.8C312.177 1.26666 312.81 0.999995 313.544 0.999995H335.144C335.877 0.999995 336.51 1.26666 337.044 1.8C337.577 2.33333 337.844 2.96666 337.844 3.7V50.5ZM452.505 29.9V42.1C452.505 48.9667 450.838 54.7 447.505 59.3C444.171 63.9 439.805 67.1667 434.405 69.1C429.005 71.0333 422.638 72 415.305 72C407.971 72 401.605 71.0333 396.205 69.1C390.805 67.1667 386.438 63.9 383.105 59.3C379.771 54.7 378.105 48.9 378.105 41.9V30.1C378.105 20.0333 381.538 12.5 388.405 7.49999C395.338 2.5 404.305 -3.8147e-06 415.305 -3.8147e-06C426.305 -3.8147e-06 435.238 2.5 442.105 7.49999C449.038 12.5 452.505 19.9667 452.505 29.9ZM405.105 28V44C405.105 46.7333 406.005 48.8333 407.805 50.3C409.671 51.7667 412.171 52.5 415.305 52.5C418.438 52.5 420.905 51.7667 422.705 50.3C424.571 48.7667 425.505 46.6333 425.505 43.9V28.1C425.505 25.3667 424.571 23.2667 422.705 21.8C420.905 20.2667 418.438 19.5 415.305 19.5C412.171 19.5 409.671 20.2333 407.805 21.7C406.005 23.1667 405.105 25.2667 405.105 28ZM464.066 0.999995H501.466C510.932 0.999995 518.432 3.3 523.966 7.9C529.499 12.5 532.266 18.4 532.266 25.6C532.266 32.8 529.932 38.5333 525.266 42.8C520.599 47 512.666 49.1 501.466 49.1H488.266V68.3C488.266 69.0333 487.999 69.6667 487.466 70.2C486.932 70.7333 486.299 71 485.566 71H464.066C463.332 71 462.699 70.7333 462.166 70.2C461.632 69.6667 461.366 69.0333 461.366 68.3V3.7C461.366 2.96666 461.632 2.33333 462.166 1.8C462.699 1.26666 463.332 0.999995 464.066 0.999995ZM488.366 19.6V30.6H501.066C502.599 30.6 503.832 30.1333 504.766 29.2C505.766 28.2667 506.266 26.9667 506.266 25.3C506.266 23.6333 505.799 22.2667 504.866 21.2C503.932 20.1333 502.666 19.6 501.066 19.6H488.366ZM559.727 51.5H599.627C600.36 51.5 600.993 51.7667 601.527 52.3C602.06 52.8333 602.327 53.4667 602.327 54.2V68.3C602.327 69.0333 602.06 69.6667 601.527 70.2C600.993 70.7333 600.36 71 599.627 71H536.427C535.693 71 535.06 70.7333 534.527 70.2C533.993 69.6667 533.727 69.0333 533.727 68.3V3.7C533.727 2.96666 533.993 2.33333 534.527 1.8C535.06 1.26666 535.693 0.999995 536.427 0.999995H598.627C599.36 0.999995 599.993 1.26666 600.527 1.8C601.06 2.33333 601.327 2.96666 601.327 3.7V17.8C601.327 18.5333 601.06 19.1667 600.527 19.7C599.993 20.2333 599.36 20.5 598.627 20.5H559.727V26.8H593.127C593.86 26.8 594.493 27.0667 595.027 27.6C595.56 28.1333 595.827 28.7667 595.827 29.5V42.5C595.827 43.2333 595.56 43.8667 595.027 44.4C594.493 44.9333 593.86 45.2 593.127 45.2H559.727V51.5ZM682.888 67.9C683.021 68.1667 683.088 68.5333 683.088 69C683.088 69.4667 682.854 69.9333 682.388 70.4C681.988 70.8 681.488 71 680.888 71H658.188C656.188 71 654.788 70.1667 653.988 68.5L645.188 48.7H636.788V68.3C636.788 69.0333 636.521 69.6667 635.988 70.2C635.454 70.7333 634.821 71 634.088 71H612.488C611.754 71 611.121 70.7333 610.588 70.2C610.054 69.6667 609.788 69.0333 609.788 68.3V3.7C609.788 2.96666 610.054 2.33333 610.588 1.8C611.121 1.26666 611.754 0.999995 612.488 0.999995H651.388C660.521 0.999995 667.754 3.16666 673.088 7.49999C678.421 11.8333 681.088 17.7333 681.088 25.2C681.088 34.2667 677.588 40.8333 670.588 44.9L682.888 67.9ZM636.788 19.6V30.2H649.288C650.754 30.2 651.888 29.7333 652.688 28.8C653.488 27.8 653.888 26.5667 653.888 25.1C653.888 23.6333 653.488 22.3667 652.688 21.3C651.954 20.1667 650.821 19.6 649.288 19.6H636.788Z" fill="#2E2E2E"/>
</svg>
