<svg width="69" height="71" viewBox="0 0 69 71" fill="none" xmlns="http://www.w3.org/2000/svg">
<path d="M36.7349 33.6211V2.68262H66.7195C66.2117 19.2263 53.1469 32.6091 36.7349 33.6211Z" fill="white"/>
<path d="M36.7349 33.6211V2.68262H66.7195C66.2117 19.2263 53.1469 32.6091 36.7349 33.6211Z" stroke="black" stroke-width="4"/>
<path d="M66.7349 68.6211C50.3228 67.6091 37.258 54.2263 36.7502 37.6826L66.7349 37.6826L66.7349 68.6211Z" fill="white"/>
<path d="M66.7349 68.6211C50.3228 67.6091 37.258 54.2263 36.7502 37.6826L66.7349 37.6826L66.7349 68.6211Z" stroke="black" stroke-width="4"/>
<path d="M32.7349 37.7441L32.7349 68.6826L2.75019 68.6826C3.25802 52.139 16.3229 38.7562 32.7349 37.7441Z" fill="white"/>
<path d="M32.7349 37.7441L32.7349 68.6826L2.75019 68.6826C3.25802 52.139 16.3229 38.7562 32.7349 37.7441Z" stroke="black" stroke-width="4"/>
<path d="M2.73487 2.7441C19.1469 3.75618 32.2117 17.139 32.7195 33.6826L2.73486 33.6826L2.73487 2.7441Z" fill="white"/>
<path d="M2.73487 2.7441C19.1469 3.75618 32.2117 17.139 32.7195 33.6826L2.73486 33.6826L2.73487 2.7441Z" stroke="black" stroke-width="4"/>
</svg>
