<svg width="69" height="71" viewBox="0 0 69 71" fill="none" xmlns="http://www.w3.org/2000/svg">
<path d="M37.2349 33.0849V3.18262H66.1998C65.4558 19.0513 52.9702 31.8494 37.2349 33.0849Z" fill="white"/>
<path d="M37.2349 33.0849V3.18262H66.1998C65.4558 19.0513 52.9702 31.8494 37.2349 33.0849Z" stroke="black" stroke-width="5"/>
<path d="M66.2349 68.0849C50.4995 66.8494 38.0139 54.0513 37.2699 38.1826L66.2349 38.1826L66.2349 68.0849Z" fill="white"/>
<path d="M66.2349 68.0849C50.4995 66.8494 38.0139 54.0513 37.2699 38.1826L66.2349 38.1826L66.2349 68.0849Z" stroke="black" stroke-width="5"/>
<path d="M32.2349 38.2804L32.2349 68.1826L3.26995 68.1826C4.01389 52.314 16.4995 39.5159 32.2349 38.2804Z" fill="white"/>
<path d="M32.2349 38.2804L32.2349 68.1826L3.26995 68.1826C4.01389 52.314 16.4995 39.5159 32.2349 38.2804Z" stroke="black" stroke-width="5"/>
<path d="M3.23487 3.28037C18.9702 4.51588 31.4558 17.314 32.1998 33.1826L3.23486 33.1826L3.23487 3.28037Z" fill="white"/>
<path d="M3.23487 3.28037C18.9702 4.51588 31.4558 17.314 32.1998 33.1826L3.23486 33.1826L3.23487 3.28037Z" stroke="black" stroke-width="5"/>
</svg>
