<?xml version="1.0" encoding="UTF-8"?>
<svg id="_레이어_1" data-name="레이어_1" xmlns="http://www.w3.org/2000/svg" viewBox="0 0 571.24 72">
  <defs>
    <style>
      .cls-1 {
        fill: #2e2e2e;
      }
    </style>
  </defs>
  <path class="cls-1" d="M3.52,1h34.48c7.93,0,14.81.97,20.65,2.9,5.84,1.93,10.56,5.2,14.16,9.8s5.41,10.33,5.41,17.2v10.2c0,10.67-3.89,18.43-11.68,23.3-7.13,4.4-16.65,6.6-28.54,6.6H3.52c-.79,0-1.48-.27-2.05-.8-.58-.53-.86-1.17-.86-1.9V3.7c0-.73.29-1.37.86-1.9.58-.53,1.26-.8,2.05-.8ZM28.71,20.5v31h9.84c3.39,0,6.05-.73,8-2.2,2.02-1.53,3.03-3.67,3.03-6.4v-13.8c0-2.73-1.01-4.83-3.03-6.3-1.95-1.53-4.61-2.3-8-2.3h-9.84ZM112.34,51.5h43.13c.79,0,1.48.27,2.05.8.58.53.86,1.17.86,1.9v14.1c0,.73-.29,1.37-.86,1.9-.58.53-1.26.8-2.05.8h-68.32c-.79,0-1.48-.27-2.05-.8-.58-.53-.86-1.17-.86-1.9V3.7c0-.73.29-1.37.86-1.9.58-.53,1.26-.8,2.05-.8h67.24c.79,0,1.48.27,2.05.8.58.53.86,1.17.86,1.9v14.1c0,.73-.29,1.37-.86,1.9-.58.53-1.26.8-2.05.8h-42.05v6.3h36.11c.79,0,1.48.27,2.05.8s.86,1.17.86,1.9v13c0,.73-.29,1.37-.86,1.9-.58.53-1.26.8-2.05.8h-36.11v6.3ZM219.86,1h22.81c.65,0,1.19.23,1.62.7.5.4.76.8.76,1.2s-.04.73-.11,1l-24.86,63.8c-.79,2.2-2.41,3.3-4.86,3.3h-25.19c-2.38,0-3.96-1-4.76-3L160.18,3.9c-.07-.27-.11-.6-.11-1s.22-.8.65-1.2c.5-.47,1.08-.7,1.73-.7h22.81c1.3,0,2.34.37,3.13,1.1.86.67,1.44,1.4,1.73,2.2l12.43,38.3,12.43-38.3c.65-2.2,2.27-3.3,4.86-3.3ZM252.46,1h68.75c.79,0,1.48.27,2.05.8.58.53.86,1.17.86,1.9v15.2c0,.73-.29,1.37-.86,1.9-.58.53-1.26.8-2.05.8h-42.48v6.4h35.46c.79,0,1.48.27,2.05.8.58.53.86,1.17.86,1.9v15.1c0,.73-.29,1.37-.86,1.9-.58.53-1.26.8-2.05.8h-35.46v19.8c0,.73-.29,1.37-.86,1.9-.58.53-1.26.8-2.05.8h-23.35c-.79,0-1.48-.27-2.05-.8-.58-.53-.86-1.17-.86-1.9V3.7c0-.73.29-1.37.86-1.9.58-.53,1.26-.8,2.05-.8ZM401.06,21.5h-19.57v29h19.57c.79,0,1.48.27,2.05.8.58.53.86,1.17.86,1.9v15.1c0,.73-.29,1.37-.86,1.9-.58.53-1.26.8-2.05.8h-68.54c-.79,0-1.48-.27-2.05-.8-.58-.53-.86-1.17-.86-1.9v-15.1c0-.73.29-1.37.86-1.9.58-.53,1.26-.8,2.05-.8h19.78v-29h-19.78c-.79,0-1.48-.27-2.05-.8-.58-.53-.86-1.17-.86-1.9V3.7c0-.73.29-1.37.86-1.9.58-.53,1.26-.8,2.05-.8h68.54c.79,0,1.48.27,2.05.8.58.53.86,1.17.86,1.9v15.1c0,.73-.29,1.37-.86,1.9-.58.53-1.26.8-2.05.8ZM491.83,67.9c.14.27.22.63.22,1.1s-.25.93-.76,1.4c-.43.4-.97.6-1.62.6h-24.54c-2.16,0-3.68-.83-4.54-2.5l-9.51-19.8h-9.08v19.6c0,.73-.29,1.37-.86,1.9-.58.53-1.26.8-2.05.8h-23.35c-.79,0-1.48-.27-2.05-.8-.58-.53-.86-1.17-.86-1.9V3.7c0-.73.29-1.37.86-1.9.58-.53,1.26-.8,2.05-.8h42.05c9.87,0,17.69,2.17,23.46,6.5,5.77,4.33,8.65,10.23,8.65,17.7,0,9.07-3.78,15.63-11.35,19.7l13.3,23ZM441.99,19.6v10.6h13.51c1.58,0,2.81-.47,3.68-1.4.86-1,1.3-2.23,1.3-3.7s-.43-2.73-1.3-3.8c-.79-1.13-2.02-1.7-3.68-1.7h-13.51ZM571.24,29.9v12.2c0,6.87-1.8,12.6-5.41,17.2-3.6,4.6-8.32,7.87-14.16,9.8-5.84,1.93-12.72,2.9-20.65,2.9s-14.81-.97-20.65-2.9c-5.84-1.93-10.56-5.2-14.16-9.8-3.6-4.6-5.41-10.4-5.41-17.4v-11.8c0-10.07,3.71-17.6,11.13-22.6C509.44,2.5,519.13,0,531.02,0s21.55,2.5,28.97,7.5c7.49,5,11.24,12.47,11.24,22.4ZM520,28v16c0,2.73.97,4.83,2.92,6.3,2.02,1.47,4.72,2.2,8.11,2.2s6.05-.73,8-2.2c2.02-1.53,3.03-3.67,3.03-6.4v-15.8c0-2.73-1.01-4.83-3.03-6.3-1.95-1.53-4.61-2.3-8-2.3s-6.09.73-8.11,2.2c-1.95,1.47-2.92,3.57-2.92,6.3Z"/>
</svg>