<svg width="529" height="72" viewBox="0 0 529 72" fill="none" xmlns="http://www.w3.org/2000/svg">
<path d="M3.3 0.999995H35.2C42.5333 0.999995 48.9 1.96666 54.3 3.9C59.7 5.83333 64.0667 9.1 67.4 13.7C70.7333 18.3 72.4 24.0333 72.4 30.9V41.1C72.4 51.7667 68.8 59.5333 61.6 64.4C55 68.8 46.2 71 35.2 71H3.3C2.56667 71 1.93333 70.7333 1.4 70.2C0.866667 69.6667 0.600001 69.0333 0.600001 68.3V3.7C0.600001 2.96666 0.866667 2.33333 1.4 1.8C1.93333 1.26666 2.56667 0.999995 3.3 0.999995ZM26.6 20.5V51.5H35.7C38.8333 51.5 41.3 50.7667 43.1 49.3C44.9667 47.7667 45.9 45.6333 45.9 42.9V29.1C45.9 26.3667 44.9667 24.2667 43.1 22.8C41.3 21.2667 38.8333 20.5 35.7 20.5H26.6ZM103.961 51.5H143.861C144.594 51.5 145.228 51.7667 145.761 52.3C146.294 52.8333 146.561 53.4667 146.561 54.2V68.3C146.561 69.0333 146.294 69.6667 145.761 70.2C145.228 70.7333 144.594 71 143.861 71H80.6609C79.9276 71 79.2943 70.7333 78.7609 70.2C78.2276 69.6667 77.9609 69.0333 77.9609 68.3V3.7C77.9609 2.96666 78.2276 2.33333 78.7609 1.8C79.2943 1.26666 79.9276 0.999995 80.6609 0.999995H142.861C143.594 0.999995 144.228 1.26666 144.761 1.8C145.294 2.33333 145.561 2.96666 145.561 3.7V17.8C145.561 18.5333 145.294 19.1667 144.761 19.7C144.228 20.2333 143.594 20.5 142.861 20.5H103.961V26.8H137.361C138.094 26.8 138.728 27.0667 139.261 27.6C139.794 28.1333 140.061 28.7667 140.061 29.5V42.5C140.061 43.2333 139.794 43.8667 139.261 44.4C138.728 44.9333 138.094 45.2 137.361 45.2H103.961V51.5ZM203.422 0.999995H224.522C225.122 0.999995 225.622 1.23333 226.022 1.7C226.489 2.1 226.722 2.5 226.722 2.89999C226.722 3.3 226.689 3.63333 226.622 3.9L203.622 67.7C202.889 69.9 201.389 71 199.122 71H175.822C173.622 71 172.155 70 171.422 68L148.222 3.9C148.155 3.63333 148.122 3.3 148.122 2.89999C148.122 2.5 148.322 2.1 148.722 1.7C149.189 1.23333 149.722 0.999995 150.322 0.999995H171.422C172.622 0.999995 173.589 1.36666 174.322 2.1C175.122 2.76666 175.655 3.5 175.922 4.29999L187.422 42.6L198.922 4.29999C199.522 2.09999 201.022 0.999995 203.422 0.999995ZM233.583 0.999995H297.183C297.916 0.999995 298.549 1.26666 299.083 1.8C299.616 2.33333 299.883 2.96666 299.883 3.7V18.9C299.883 19.6333 299.616 20.2667 299.083 20.8C298.549 21.3333 297.916 21.6 297.183 21.6H257.883V28H290.683C291.416 28 292.049 28.2667 292.583 28.8C293.116 29.3333 293.383 29.9667 293.383 30.7V45.8C293.383 46.5333 293.116 47.1667 292.583 47.7C292.049 48.2333 291.416 48.5 290.683 48.5H257.883V68.3C257.883 69.0333 257.616 69.6667 257.083 70.2C256.549 70.7333 255.916 71 255.183 71H233.583C232.849 71 232.216 70.7333 231.683 70.2C231.149 69.6667 230.883 69.0333 230.883 68.3V3.7C230.883 2.96666 231.149 2.33333 231.683 1.8C232.216 1.26666 232.849 0.999995 233.583 0.999995ZM371.044 21.5H352.944V50.5H371.044C371.777 50.5 372.41 50.7667 372.944 51.3C373.477 51.8333 373.744 52.4667 373.744 53.2V68.3C373.744 69.0333 373.477 69.6667 372.944 70.2C372.41 70.7333 371.777 71 371.044 71H307.644C306.91 71 306.277 70.7333 305.744 70.2C305.21 69.6667 304.944 69.0333 304.944 68.3V53.2C304.944 52.4667 305.21 51.8333 305.744 51.3C306.277 50.7667 306.91 50.5 307.644 50.5H325.944V21.5H307.644C306.91 21.5 306.277 21.2333 305.744 20.7C305.21 20.1667 304.944 19.5333 304.944 18.8V3.7C304.944 2.96666 305.21 2.33333 305.744 1.8C306.277 1.26666 306.91 0.999995 307.644 0.999995H371.044C371.777 0.999995 372.41 1.26666 372.944 1.8C373.477 2.33333 373.744 2.96666 373.744 3.7V18.8C373.744 19.5333 373.477 20.1667 372.944 20.7C372.41 21.2333 371.777 21.5 371.044 21.5ZM455.005 67.9C455.138 68.1667 455.205 68.5333 455.205 69C455.205 69.4667 454.971 69.9333 454.505 70.4C454.105 70.8 453.605 71 453.005 71H430.305C428.305 71 426.905 70.1667 426.105 68.5L417.305 48.7H408.905V68.3C408.905 69.0333 408.638 69.6667 408.105 70.2C407.571 70.7333 406.938 71 406.205 71H384.605C383.871 71 383.238 70.7333 382.705 70.2C382.171 69.6667 381.905 69.0333 381.905 68.3V3.7C381.905 2.96666 382.171 2.33333 382.705 1.8C383.238 1.26666 383.871 0.999995 384.605 0.999995H423.505C432.638 0.999995 439.871 3.16666 445.205 7.49999C450.538 11.8333 453.205 17.7333 453.205 25.2C453.205 34.2667 449.705 40.8333 442.705 44.9L455.005 67.9ZM408.905 19.6V30.2H421.405C422.871 30.2 424.005 29.7333 424.805 28.8C425.605 27.8 426.005 26.5667 426.005 25.1C426.005 23.6333 425.605 22.3667 424.805 21.3C424.071 20.1667 422.938 19.6 421.405 19.6H408.905ZM528.466 29.9V42.1C528.466 48.9667 526.799 54.7 523.466 59.3C520.132 63.9 515.766 67.1667 510.366 69.1C504.966 71.0333 498.599 72 491.266 72C483.932 72 477.566 71.0333 472.166 69.1C466.766 67.1667 462.399 63.9 459.066 59.3C455.732 54.7 454.066 48.9 454.066 41.9V30.1C454.066 20.0333 457.499 12.5 464.366 7.49999C471.299 2.5 480.266 -3.8147e-06 491.266 -3.8147e-06C502.266 -3.8147e-06 511.199 2.5 518.066 7.49999C524.999 12.5 528.466 19.9667 528.466 29.9ZM481.066 28V44C481.066 46.7333 481.966 48.8333 483.766 50.3C485.632 51.7667 488.132 52.5 491.266 52.5C494.399 52.5 496.866 51.7667 498.666 50.3C500.532 48.7667 501.466 46.6333 501.466 43.9V28.1C501.466 25.3667 500.532 23.2667 498.666 21.8C496.866 20.2667 494.399 19.5 491.266 19.5C488.132 19.5 485.632 20.2333 483.766 21.7C481.966 23.1667 481.066 25.2667 481.066 28Z" fill="#2E2E2E"/>
</svg>
