<svg width="800" height="800" viewBox="0 0 800 800" fill="none" xmlns="http://www.w3.org/2000/svg">
<g clip-path="url(#clip0_24_29)">
<path fill-rule="evenodd" clip-rule="evenodd" d="M234.786 4.90917C169.671 7.84717 113.233 23.767 67.6597 69.1474C21.9278 114.766 6.20566 171.428 3.26034 235.866C1.42946 276.085 -9.27656 579.932 21.7686 659.616C42.7042 713.374 83.9376 754.707 138.187 775.71C163.501 785.556 192.398 792.221 234.786 794.167C589.219 810.207 720.603 801.475 776.007 659.616C785.838 634.365 792.604 605.494 794.475 563.21C810.674 207.868 791.849 130.846 730.077 69.1474C681.081 20.273 623.448 -12.9968 234.786 4.90917ZM238.049 722.702C199.243 720.955 178.188 714.489 164.138 709.05C128.794 695.313 102.247 668.874 88.5948 633.737C64.9527 573.19 72.7939 285.621 74.9034 239.089C76.9731 193.51 86.2069 151.854 118.367 119.694C158.168 79.9911 209.591 60.5329 559.725 76.3349C605.417 78.3993 647.17 87.6143 679.409 119.694C719.211 159.397 738.952 211.216 722.872 560.007C721.121 598.717 714.634 619.722 709.181 633.737C673.16 726.046 590.293 738.861 238.049 722.702ZM563.586 187.585C563.586 213.869 584.96 235.241 611.349 235.241C637.737 235.241 659.15 213.869 659.15 187.585C659.15 161.302 637.737 139.948 611.349 139.948C584.96 139.948 563.586 161.302 563.586 187.585ZM194.507 399.519C194.507 512.116 286.011 603.405 398.888 603.405C511.765 603.405 603.269 512.116 603.269 399.519C603.269 286.921 511.765 195.69 398.888 195.69C286.011 195.69 194.507 286.921 194.507 399.519ZM266.229 399.519C266.229 326.465 325.613 267.194 398.888 267.194C472.162 267.194 531.546 326.465 531.546 399.519C531.546 472.612 472.162 531.901 398.888 531.901C325.613 531.901 266.229 472.612 266.229 399.519Z" fill="white"/>
</g>
<defs>
<clipPath id="clip0_24_29">
<rect width="800" height="800" fill="white"/>
</clipPath>
</defs>
</svg>
