<svg width="800" height="800" viewBox="0 0 800 800" fill="none" xmlns="http://www.w3.org/2000/svg">
<g clip-path="url(#clip0_24_22)">
<path d="M681.635 681.648H563.1V496.013C563.1 451.747 562.31 394.762 501.449 394.762C439.712 394.762 430.267 442.992 430.267 492.79V681.636H311.732V299.895H425.525V352.064H427.118C450.321 312.391 493.465 288.695 539.393 290.4C659.533 290.4 681.684 369.425 681.684 472.232L681.635 681.648ZM177.985 247.714C139.995 247.721 109.192 216.929 109.185 178.938C109.178 140.947 139.97 110.143 177.96 110.136C215.95 110.13 246.753 140.922 246.76 178.913C246.763 197.157 239.519 214.655 226.621 227.558C213.723 240.46 196.228 247.711 177.985 247.714ZM237.252 681.648H118.594V299.895H237.252V681.648ZM740.73 0.0569669H59.03C26.8114 -0.306627 0.39028 25.5017 -0.00292969 57.7206V742.263C0.376817 774.497 26.7958 800.331 59.03 799.993H740.73C773.027 800.393 799.55 774.561 799.997 742.263V57.6712C799.537 25.3886 773.012 -0.418191 740.73 0.00238282" fill="white"/>
</g>
<defs>
<clipPath id="clip0_24_22">
<rect width="800" height="800" fill="white"/>
</clipPath>
</defs>
</svg>
